<svg width="116" height="116" viewBox="0 0 116 116" fill="none" xmlns="http://www.w3.org/2000/svg">
<rect opacity="0.3" width="116" height="116" fill="#00699C"/>
<mask id="mask0" mask-type="alpha" maskUnits="userSpaceOnUse" x="0" y="0" width="116" height="116">
<rect width="116" height="116" fill="#FFEDAB"/>
</mask>
<g mask="url(#mask0)">
<path opacity="0.4" d="M18.7285 60.8888C68.867 101.946 100.789 89.1814 117 60.8888V115.5H-64V47.0716C-26.8975 26.6745 2.18283 47.3399 18.7285 60.8888Z" fill="url(#paint0_linear)"/>
<path opacity="0.4" d="M118.713 58.5C47.5129 73.7 34.0462 25.1667 36.2129 -1H118.713V58.5Z" fill="url(#paint1_linear)"/>
<path d="M38.3709 136.993L-7.51001 109.783L86.111 77.4236L131.992 104.635L38.3709 136.993Z" fill="#F16855"/>
<path d="M21.0122 107.285C21.0096 108.467 21.1386 110.29 21.8861 112.327C21.8861 112.327 23.3232 116.242 27.3308 119.385C34.3323 124.878 51.4543 124.676 67.5949 120.663C80.5547 117.44 83.9398 113.982 85.5423 110.781C87.13 107.609 87.1286 104.371 86.8759 102.149C86.8759 102.149 85.838 98.7621 81.6436 96.26C61.771 84.4069 26.6788 104.038 21.0122 107.285Z" fill="#106351"/>
<path d="M32.2916 46.0875L27.062 53.9084C27.062 53.9084 29.3475 64.5299 40.1025 56.3285V49.4716C40.1025 49.4716 37.7915 44.9877 32.2916 46.0875Z" fill="#E5A785"/>
<path d="M45.3804 44.3423C46.4344 44.661 47.0824 45.7164 46.8888 46.8001L46.5554 48.6649C47.0999 48.8692 47.3029 49.5321 46.9681 50.0067C46.0781 51.2678 44.477 51.8365 43.0049 51.3727C42.1149 51.0917 41.0932 50.5243 40.0352 49.4501C40.0352 49.4501 45.0107 42.171 45.3804 44.3423Z" fill="#1B355F"/>
<path d="M45.7906 38.081C46.6282 39.1633 47.467 40.2457 48.3046 41.328C48.435 41.496 48.3611 41.7434 48.1581 41.812L45.8672 42.5824C45.7879 42.6093 45.7019 42.6026 45.6266 42.5649L44.8697 42.1777C44.7514 42.1172 44.6855 41.9881 44.7044 41.8564C44.8818 40.6463 45.0606 39.4363 45.2381 38.2249C45.2797 37.956 45.6239 37.8659 45.7906 38.081Z" fill="#F16855"/>
<path d="M72.4996 19L73.4986 21.1922L75.1268 19.4157L75.3991 21.8093L77.4962 20.6234L77.0161 22.9839L79.3766 22.5038L78.1899 24.6009L80.5835 24.8732L78.8078 26.5006L81 27.4996L78.8078 28.4986L80.5835 30.1268L78.1899 30.3991L79.3766 32.4962L77.0161 32.0161L77.4962 34.3766L75.3991 33.1899L75.1268 35.5835L73.4986 33.8078L72.4996 36L71.5006 33.8078L69.8732 35.5835L69.6009 33.1899L67.5038 34.3766L67.9839 32.0161L65.6234 32.4962L66.8101 30.3991L64.4157 30.1268L66.1922 28.4986L64 27.4996L66.1922 26.5006L64.4157 24.8732L66.8101 24.6009L65.6234 22.5038L67.9839 22.9839L67.5038 20.6234L69.6009 21.8093L69.8732 19.4157L71.5006 21.1922L72.4996 19Z" fill="#EDBF58"/>
<path d="M45.6146 35.3543C45.382 33.7342 45.14 32.1558 44.328 30.697C44.3778 31.0789 44.4046 31.4661 44.4046 31.8587C44.4046 34.1712 43.5174 36.3076 42.0143 38.0406C42.0143 38.0406 42.0143 38.0406 42.0157 38.0406L41.2736 44.2347C40.9899 46.6078 38.976 48.3946 36.5857 48.3946H36.4365C38.6668 49.45 40.8434 49.7848 42.3881 49.0668C46.1819 47.3056 46.1671 39.2063 45.6146 35.3543Z" fill="#E5A785"/>
<path d="M42.0127 38.0406C39.7501 40.6503 36.0947 42.3457 31.9675 42.3457C31.0318 42.3457 30.1217 42.2583 29.2451 42.093L30.7804 44.1057L32.6343 46.5379C33.527 47.7089 34.9157 48.3959 36.3878 48.3959H36.4335H36.5827C38.973 48.3959 40.9856 46.6091 41.2706 44.2361L42.0127 38.0406C42.014 38.0406 42.014 38.0406 42.0127 38.0406Z" fill="#1B355F"/>
<path d="M44.3279 30.6971C44.0617 30.2198 43.7363 29.7546 43.329 29.3042C40.5528 26.2387 35.1027 25.0825 31.2296 27.5563C27.2704 30.0853 27.0688 35.06 27.062 35.3544C27.0069 37.6239 27.7974 39.8585 29.0692 41.8577C29.0732 41.8631 29.0759 41.8685 29.0799 41.8739L29.2466 42.093C30.1232 42.2584 31.0333 42.3458 31.969 42.3458C36.0949 42.3458 39.7516 40.6504 42.0142 38.0407C43.5172 36.3077 44.4045 34.1699 44.4045 31.8587C44.4045 31.4661 44.3776 31.0789 44.3279 30.6971Z" fill="#EAE7DC" stroke="#202223" stroke-miterlimit="10" stroke-linecap="round" stroke-linejoin="round"/>
<path d="M42.898 44.5586C43.5076 43.6793 43.1342 42.3649 42.064 41.6227C40.9937 40.8806 39.6319 40.9918 39.0223 41.8712C38.4127 42.7505 38.7861 44.065 39.8563 44.8071C40.9265 45.5492 42.2883 45.438 42.898 44.5586Z" fill="#E5A785"/>
<path d="M22.6929 53.2846C24.2766 51.1791 26.9223 50.1479 29.5116 50.6373C30.6086 50.8443 31.8185 51.1199 33.1118 51.4883C35.3972 52.1404 42.9983 54.3077 47.6311 59.152C51.3563 63.047 49.6584 65.0099 53.6808 78.6471C55.8102 85.8671 61.3437 99.8901 61.3437 99.8901C61.3437 99.8901 50.7231 113.335 21.0124 107.285C21.0124 107.285 12.2296 67.1974 22.6929 53.2846Z" fill="#00699C"/>
<path d="M42.623 58.5927C43.31 58.2296 43.9714 58.0508 44.606 58.0091C53.413 57.4216 61.291 82.9078 62.2173 85.9746C63.9677 87.4146 66.8863 89.4555 70.9558 90.8148C74.4417 91.9805 77.515 92.2252 79.627 92.2265C80.2992 95.05 80.9714 97.8734 81.6436 100.697C79.791 101.257 77.1439 101.857 73.9295 101.924C67.7427 102.052 63.1785 100.104 61.006 99.1507C52.8712 95.581 48.3729 89.7096 46.4868 87.1847C44.7579 84.8708 34.5447 71.1986 39.6305 62.0426C40.5352 60.4144 41.7169 59.3025 42.623 58.5927Z" fill="#00A4B4"/>
<path d="M89.6797 31.1393L89.9888 32.3394C90.3265 33.6499 91.3497 34.6735 92.6606 35.0112L93.8607 35.3203C94.0464 35.368 94.0464 35.632 93.8607 35.6797L92.6606 35.9888C91.3501 36.3265 90.3265 37.3497 89.9888 38.6606L89.6797 39.8607C89.632 40.0464 89.368 40.0464 89.3203 39.8607L89.0112 38.6606C88.6735 37.3501 87.6503 36.3265 86.3394 35.9888L85.1393 35.6797C84.9536 35.632 84.9536 35.368 85.1393 35.3203L86.3394 35.0112C87.6499 34.6735 88.6735 33.6503 89.0112 32.3394L89.3203 31.1393C89.368 30.9536 89.6317 30.9536 89.6797 31.1393Z" fill="#EDBF58"/>
<path d="M80.2796 38.2321L80.7604 40.2323C81.2856 42.4165 82.8774 44.1225 84.9165 44.6853L86.7833 45.2004C87.0722 45.2799 87.0722 45.7201 86.7833 45.7996L84.9165 46.3147C82.8779 46.8775 81.2856 48.5829 80.7604 50.7677L80.2796 52.7679C80.2054 53.0774 79.7946 53.0774 79.7204 52.7679L79.2396 50.7677C78.7144 48.5835 77.1226 46.8775 75.0835 46.3147L73.2167 45.7996C72.9278 45.7201 72.9278 45.2799 73.2167 45.2004L75.0835 44.6853C77.1221 44.1225 78.7144 42.4171 79.2396 40.2323L79.7204 38.2321C79.7946 37.9226 80.2049 37.9226 80.2796 38.2321Z" fill="#EDBF58"/>
<path d="M88.9047 90.043C89.4905 90.043 89.9654 89.5681 89.9654 88.9822C89.9654 88.3963 89.4905 87.9214 88.9047 87.9214C88.3189 87.9214 87.844 88.3963 87.844 88.9822C87.844 89.5681 88.3189 90.043 88.9047 90.043Z" stroke="#202223" stroke-miterlimit="10"/>
<path d="M87.0226 91.253C87.6084 91.253 88.0833 90.7781 88.0833 90.1922C88.0833 89.6063 87.6084 89.1314 87.0226 89.1314C86.4368 89.1314 85.9619 89.6063 85.9619 90.1922C85.9619 90.7781 86.4368 91.253 87.0226 91.253Z" stroke="#202223" stroke-miterlimit="10"/>
<path d="M91.026 90.7502C91.6119 90.7502 92.0868 90.2753 92.0868 89.6894C92.0868 89.1035 91.6119 88.6286 91.026 88.6286C90.4402 88.6286 89.9653 89.1035 89.9653 89.6894C89.9653 90.2753 90.4402 90.7502 91.026 90.7502Z" stroke="#202223" stroke-miterlimit="10"/>
<path d="M93.1972 91.7613C93.783 91.7613 94.2579 91.2864 94.2579 90.7005C94.2579 90.1147 93.783 89.6397 93.1972 89.6397C92.6114 89.6397 92.1365 90.1147 92.1365 90.7005C92.1365 91.2864 92.6114 91.7613 93.1972 91.7613Z" stroke="#202223" stroke-miterlimit="10"/>
<path d="M94.6571 93.3935C95.243 93.3935 95.7179 92.9186 95.7179 92.3327C95.7179 91.7468 95.243 91.2719 94.6571 91.2719C94.0713 91.2719 93.5964 91.7468 93.5964 92.3327C93.5964 92.9186 94.0713 93.3935 94.6571 93.3935Z" stroke="#202223" stroke-miterlimit="10"/>
<path d="M95.5055 95.6496C96.0913 95.6496 96.5662 95.1746 96.5662 94.5888C96.5662 94.0029 96.0913 93.528 95.5055 93.528C94.9197 93.528 94.4448 94.0029 94.4448 94.5888C94.4448 95.1746 94.9197 95.6496 95.5055 95.6496Z" stroke="#202223" stroke-miterlimit="10"/>
<path d="M95.6669 97.8733C96.2527 97.8733 96.7277 97.3984 96.7277 96.8125C96.7277 96.2266 96.2527 95.7517 95.6669 95.7517C95.0811 95.7517 94.6062 96.2266 94.6062 96.8125C94.6062 97.3984 95.0811 97.8733 95.6669 97.8733Z" stroke="#202223" stroke-miterlimit="10"/>
<path d="M94.8603 99.8901C95.4461 99.8901 95.921 99.4152 95.921 98.8293C95.921 98.2434 95.4461 97.7685 94.8603 97.7685C94.2745 97.7685 93.7996 98.2434 93.7996 98.8293C93.7996 99.4152 94.2745 99.8901 94.8603 99.8901Z" stroke="#202223" stroke-miterlimit="10"/>
<path d="M92.8437 100.562C93.4295 100.562 93.9044 100.087 93.9044 99.5015C93.9044 98.9157 93.4295 98.4407 92.8437 98.4407C92.2579 98.4407 91.783 98.9157 91.783 99.5015C91.783 100.087 92.2579 100.562 92.8437 100.562Z" stroke="#202223" stroke-miterlimit="10"/>
<path d="M90.6926 100.562C91.2784 100.562 91.7533 100.087 91.7533 99.5015C91.7533 98.9157 91.2784 98.4407 90.6926 98.4407C90.1067 98.4407 89.6318 98.9157 89.6318 99.5015C89.6318 100.087 90.1067 100.562 90.6926 100.562Z" stroke="#202223" stroke-miterlimit="10"/>
<path d="M88.4072 99.8901C88.993 99.8901 89.4679 99.4152 89.4679 98.8293C89.4679 98.2434 88.993 97.7685 88.4072 97.7685C87.8213 97.7685 87.3464 98.2434 87.3464 98.8293C87.3464 99.4152 87.8213 99.8901 88.4072 99.8901Z" stroke="#202223" stroke-miterlimit="10"/>
<path d="M86.7941 98.4112C87.3799 98.4112 87.8548 97.9362 87.8548 97.3504C87.8548 96.7645 87.3799 96.2896 86.7941 96.2896C86.2083 96.2896 85.7334 96.7645 85.7334 97.3504C85.7334 97.9362 86.2083 98.4112 86.7941 98.4112Z" stroke="#202223" stroke-miterlimit="10"/>
<path d="M96.7008 102.848C97.4631 102.4 98.224 101.951 98.9863 101.503C99.5549 102.126 100.426 103.289 100.585 104.871C100.638 105.411 100.789 106.865 99.9851 107.371C99.7028 107.548 99.4393 107.548 99.4393 107.548C99.4393 107.548 98.9069 106.883 98.5453 106.982C98.4929 106.997 98.47 107.02 98.4082 107.07C98.3907 107.084 97.9672 107.419 97.4913 107.548C97.3448 107.587 96.9778 107.688 96.8043 107.548C96.6699 107.441 96.7559 107.274 96.6484 107.223C96.4534 107.13 96.0138 107.61 95.8875 107.548C95.7329 107.473 96.1523 106.649 96.2236 106.512C96.2276 106.504 96.2303 106.498 96.2316 106.496C96.3983 106.176 96.5704 105.209 96.7008 102.848Z" fill="#EDBF58"/>
<path d="M57.3105 81.2017C57.3105 81.2017 60.8059 83.6217 62.2847 85.9074C60.8503 85.2351 59.4172 84.5629 57.9827 83.8906" stroke="#202223" stroke-miterlimit="10" stroke-linecap="round" stroke-linejoin="round"/>
<path d="M47.0449 87.9214C47.0449 87.9214 56.1006 101.369 73.9808 101.907" stroke="#202223" stroke-miterlimit="10" stroke-linecap="round" stroke-linejoin="round"/>
<path d="M61.5561 99.3886C61.5561 99.3886 56.6894 109.743 29.978 108.85" stroke="#202223" stroke-miterlimit="10" stroke-linecap="round" stroke-linejoin="round"/>
<path d="M23.2292 114.87C23.2292 114.87 27.7383 130.018 67.1594 120.769" stroke="#202223" stroke-miterlimit="10" stroke-linecap="round" stroke-linejoin="round"/>
<path d="M38.2202 48.7993C38.2202 48.7993 41.7653 50.8712 44.0938 47.549" stroke="#202223" stroke-miterlimit="10" stroke-linecap="round" stroke-linejoin="round"/>
<path d="M45.8162 37.9761L48.0976 41.2822C48.2388 41.4866 48.1554 41.769 47.9269 41.8644L45.6562 42.819" stroke="#202223" stroke-miterlimit="10" stroke-linecap="round" stroke-linejoin="round"/>
<path d="M40.1025 42.6146C41.1861 42.538 41.6902 43.0502 41.8798 43.2869C42.0008 43.4374 42.2388 43.7359 42.1756 43.9591C42.1137 44.1783 41.7561 44.3423 41.5827 44.0936C41.4725 43.9349 41.4631 43.6472 41.5827 43.4213" stroke="#202223" stroke-miterlimit="10" stroke-linecap="round" stroke-linejoin="round"/>
<path opacity="0.5" d="M32.3467 108.904C32.3467 108.904 46.6898 110.108 53.9495 121.805" stroke="#EAE7DC" stroke-miterlimit="10" stroke-linecap="round" stroke-linejoin="round"/>
<path opacity="0.5" d="M48.6138 107.156C48.6138 107.156 62.645 108.229 69.746 118.646" stroke="#EAE7DC" stroke-miterlimit="10" stroke-linecap="round" stroke-linejoin="round"/>
<path opacity="0.5" d="M58.4277 102.719C58.4277 102.719 72.459 103.792 79.56 114.209" stroke="#EAE7DC" stroke-miterlimit="10" stroke-linecap="round" stroke-linejoin="round"/>
<path opacity="0.5" d="M32.3052 112.932C32.3052 112.932 59.3271 117.351 69.746 101.697" stroke="#EAE7DC" stroke-miterlimit="10" stroke-linecap="round" stroke-linejoin="round"/>
<path opacity="0.5" d="M45.1909 119.007C45.1909 119.007 72.5248 120.609 81.2686 103.96" stroke="#EAE7DC" stroke-miterlimit="10" stroke-linecap="round" stroke-linejoin="round"/>
<path d="M-7.55566 109.772L38.2876 136.931" stroke="#202223" stroke-miterlimit="10" stroke-linecap="round" stroke-linejoin="round"/>
<path d="M-6.17773 115.357L0.233593 113.141" stroke="#202223" stroke-miterlimit="10" stroke-linecap="round" stroke-linejoin="round"/>
<path d="M-1.60693 118.046L4.80439 115.83" stroke="#202223" stroke-miterlimit="10" stroke-linecap="round" stroke-linejoin="round"/>
<path d="M131.755 104.529L85.9121 77.3699" stroke="#202223" stroke-miterlimit="10" stroke-linecap="round" stroke-linejoin="round"/>
<path d="M121.235 93.5656L114.823 95.7813" stroke="#202223" stroke-miterlimit="10" stroke-linecap="round" stroke-linejoin="round"/>
<path d="M116.665 90.8766L110.252 93.0923" stroke="#202223" stroke-miterlimit="10" stroke-linecap="round" stroke-linejoin="round"/>
<path d="M112.094 88.1876L105.681 90.4034" stroke="#202223" stroke-miterlimit="10" stroke-linecap="round" stroke-linejoin="round"/>
<path d="M107.523 85.4987L101.11 87.7144" stroke="#202223" stroke-miterlimit="10" stroke-linecap="round" stroke-linejoin="round"/>
<path d="M102.952 82.8096L96.5396 85.0254" stroke="#202223" stroke-miterlimit="10" stroke-linecap="round" stroke-linejoin="round"/>
<path d="M98.3812 80.1207L91.9685 82.3364" stroke="#202223" stroke-miterlimit="10" stroke-linecap="round" stroke-linejoin="round"/>
<path d="M93.8102 77.4317L87.3975 79.6474" stroke="#202223" stroke-miterlimit="10" stroke-linecap="round" stroke-linejoin="round"/>
<path d="M21.0122 78.5126C25.3519 81.6641 29.1094 83.8301 31.7672 85.2351C36.2023 87.5799 40.5514 89.3856 40.3699 89.8924C40.2919 90.1116 39.4019 89.9771 38.3547 89.8064C31.1515 88.6353 24.3826 87.1201 24.3731 87.1174" stroke="#202223" stroke-miterlimit="10" stroke-linecap="round" stroke-linejoin="round"/>
<path d="M24.6245 51.5327C24.6245 51.5327 27.5149 47.2773 44.0924 56.2397" stroke="#202223" stroke-miterlimit="10" stroke-linecap="round" stroke-linejoin="round"/>
<path d="M79.6272 92.2265C80.739 91.6712 81.8494 91.1146 82.9612 90.5593C83.9857 90.047 85.1512 89.8723 86.2765 90.0901C86.2859 90.0914 86.2939 90.0928 86.3007 90.0955C88.3495 90.5001 92.5117 92.4389 92.2643 93.8399C92.1823 94.3024 91.6472 94.5605 91.1888 94.781C91.1888 94.781 90.3862 95.1682 87.559 94.9155L87.5671 95.1629C87.641 97.3893 86.1945 99.3819 84.0542 100L81.5134 100.734L79.6272 92.2265Z" fill="#E5A785"/>
<path d="M96.7008 102.848C97.463 102.4 98.2239 101.951 98.9862 101.503C98.2401 100.87 97.4953 100.236 96.7492 99.6024C96.4816 99.3752 96.1065 99.3254 95.7893 99.4746C95.7826 99.4773 95.7772 99.48 95.7705 99.4827C95.2784 99.7113 95.0983 100.32 95.3913 100.779C95.8565 101.505 96.4574 102.451 96.7008 102.848Z" stroke="#202223" stroke-miterlimit="10"/>
<path d="M92.275 94.0388C92.275 94.0388 91.4576 95.8566 85.6768 94.6465" stroke="#202223" stroke-miterlimit="10"/>
<path d="M87.5589 94.9155C87.5589 94.9155 88.3548 97.0963 85.2009 99.5016" stroke="#202223" stroke-miterlimit="10"/>
</g>
<defs>
<linearGradient id="paint0_linear" x1="19" y1="92" x2="103.5" y2="92" gradientUnits="userSpaceOnUse">
<stop stop-color="white"/>
<stop offset="1" stop-color="white" stop-opacity="0"/>
</linearGradient>
<linearGradient id="paint1_linear" x1="77.2129" y1="24" x2="77.2129" y2="-1.5" gradientUnits="userSpaceOnUse">
<stop stop-color="white"/>
<stop offset="1" stop-color="white" stop-opacity="0"/>
</linearGradient>
</defs>
</svg>
