<svg width="116" height="116" viewBox="0 0 116 116" fill="none" xmlns="http://www.w3.org/2000/svg">
<rect width="116" height="116" fill="#EFF8F5"/>
<mask id="mask0" mask-type="alpha" maskUnits="userSpaceOnUse" x="0" y="0" width="116" height="116">
<rect width="116" height="116" fill="#EFF8F5"/>
</mask>
<g mask="url(#mask0)">
<path opacity="0.9" d="M116 0H-254V116H116V0Z" fill="url(#paint0_linear)"/>
<path opacity="0.07" d="M-115.492 38C-177.438 8.3396 -221.552 12 -254 38V116H116V12C105.346 31.5644 82.0995 57.5084 43.8403 65.1304C5.58115 72.7525 -58.8298 65.1304 -115.492 38Z" fill="url(#paint1_linear)"/>
<path opacity="0.07" d="M-22.5079 80.75C39.4383 67.3458 83.5524 69 116 80.75V116H-254V69C-243.346 77.8416 -220.099 89.5663 -181.84 93.0109C-143.581 96.4554 -79.1702 93.0109 -22.5079 80.75Z" fill="url(#paint2_linear)"/>
<path opacity="0.5" d="M69.7952 66.4869C66.6235 65.7978 63.5242 65.2418 60.4954 64.7993C58.3046 64.4802 56.151 64.2217 54.0346 64.024C50.8492 63.7244 47.748 63.5541 44.7348 63.5032C-5.57176 62.6476 -31.9556 94.486 -31.9556 94.486H-31.9536C-16.5474 91.3025 0.687441 89.1176 19.4788 88.8474C22.7327 88.8004 25.9357 88.8122 29.0898 88.8787C40.5568 82.4531 54.4868 75.9394 70.6899 70.6395C72.9982 69.8838 75.3535 69.1535 77.7557 68.4507C75.0519 67.7047 72.401 67.0528 69.7952 66.4869Z" fill="#1C3075"/>
<path d="M69.7954 51.4527H44.7351V63.5032C52.5195 63.6363 60.8755 64.5506 69.7954 66.487V51.4527Z" fill="#007B87"/>
<path opacity="0.8" d="M77.754 68.4507C82.676 67.0117 87.7918 65.694 93.0937 64.5252V51.4527H69.7954V66.487C72.4013 67.0528 75.0522 67.7047 77.754 68.4507Z" fill="#006872"/>
<path d="M80.4951 41.272L93.0938 51.4528H69.6683C65.502 48.0911 61.3338 44.7315 57.1675 41.3699C64.944 41.3366 72.7186 41.3053 80.4951 41.272Z" fill="#F16855"/>
<path d="M44.7351 51.4527L57.2653 41.3699L69.7954 51.4527H44.7351Z" fill="#C3475A"/>
<path d="M60.495 64.8014V61.0462C60.495 59.2626 59.0482 57.8158 57.2646 57.8158C55.481 57.8158 54.0342 59.2626 54.0342 61.0462V64.0241" fill="#F16855"/>
<path d="M60.495 64.8014V61.0462C60.495 59.2626 59.0482 57.8158 57.2646 57.8158C55.481 57.8158 54.0342 59.2626 54.0342 61.0462V64.0241" stroke="#202223" stroke-miterlimit="10" stroke-linecap="round" stroke-linejoin="round"/>
<path opacity="0.75" d="M93.0935 64.5252C87.7917 65.6941 82.6758 67.0117 77.7538 68.4507C75.3535 69.1536 72.9982 69.8838 70.688 70.6396C54.4849 75.9394 40.5569 82.4531 29.0879 88.8788C47.1117 89.2527 63.4518 91.377 77.748 94.2667C92.9564 97.3405 105.851 101.28 115.998 104.904V60.6566C108.018 61.6002 100.381 62.9198 93.0935 64.5252Z" fill="#1C3075"/>
<path d="M37.7573 55.2235C37.0682 57.9841 35.5352 59.5562 34.1275 59.5562C32.7198 59.5562 31.1868 57.9841 30.4977 55.2235C29.3895 50.7753 30.6484 44.5201 34.1275 44.5201C37.6046 44.5201 38.8655 50.7773 37.7573 55.2235Z" fill="#192772"/>
<path d="M34.1272 48.3966V64.3334" stroke="#00699C" stroke-miterlimit="10" stroke-linecap="round" stroke-linejoin="round"/>
<path d="M34.1272 56.177L36.1829 54.5637" stroke="#00699C" stroke-miterlimit="10" stroke-linecap="round" stroke-linejoin="round"/>
<path d="M34.1272 54.1526L32.2183 52.2633" stroke="#00699C" stroke-miterlimit="10" stroke-linecap="round" stroke-linejoin="round"/>
<path d="M34.1272 51.8032L35.8403 50.0118" stroke="#00699C" stroke-miterlimit="10" stroke-linecap="round" stroke-linejoin="round"/>
<path d="M112.2 55.9871C111.687 58.0429 110.545 59.2117 109.498 59.2117C108.45 59.2117 107.309 58.0409 106.796 55.9871C105.97 52.6764 106.908 48.0187 109.498 48.0187C112.088 48.0187 113.024 52.6764 112.2 55.9871Z" fill="#192772"/>
<path d="M109.498 50.9046V62.7671" stroke="#00699C" stroke-miterlimit="10" stroke-linecap="round" stroke-linejoin="round"/>
<path d="M109.498 56.6958L111.027 55.4957" stroke="#00699C" stroke-miterlimit="10" stroke-linecap="round" stroke-linejoin="round"/>
<path d="M109.498 55.1883L108.076 53.7825" stroke="#00699C" stroke-miterlimit="10" stroke-linecap="round" stroke-linejoin="round"/>
<path d="M109.498 53.4399L110.772 52.1066" stroke="#00699C" stroke-miterlimit="10" stroke-linecap="round" stroke-linejoin="round"/>
<path d="M103.143 52.9818C102.398 56.4825 100.737 58.4736 99.2121 58.4736C97.687 58.4736 96.0248 56.4805 95.2808 52.9818C94.0787 47.3433 95.4433 39.4121 99.2121 39.4121C102.981 39.4121 104.346 47.3433 103.143 52.9818Z" fill="#0A1E51"/>
<path d="M99.2109 44.3283V64.5292" stroke="#00699C" stroke-miterlimit="10" stroke-linecap="round" stroke-linejoin="round"/>
<path d="M99.2109 54.1899L101.439 52.1459" stroke="#00699C" stroke-miterlimit="10" stroke-linecap="round" stroke-linejoin="round"/>
<path d="M99.211 51.6232L97.1436 49.2288" stroke="#00699C" stroke-miterlimit="10" stroke-linecap="round" stroke-linejoin="round"/>
<path d="M99.2109 48.6434L101.067 46.3742" stroke="#00699C" stroke-miterlimit="10" stroke-linecap="round" stroke-linejoin="round"/>
<path d="M81.8356 56.8369H77.7241V60.9483H81.8356V56.8369Z" fill="#ED9758" stroke="#202223" stroke-miterlimit="10" stroke-linecap="round" stroke-linejoin="round"/>
<path d="M85.9476 56.8369H81.8362V60.9483H85.9476V56.8369Z" fill="#ED9758" stroke="#202223" stroke-miterlimit="10" stroke-linecap="round" stroke-linejoin="round"/>
<path d="M44.833 51.5506L57.3632 41.3699L69.8933 51.5506L93.0937 51.4528L80.5635 41.272" stroke="#202223" stroke-miterlimit="10" stroke-linecap="round" stroke-linejoin="round"/>
<path d="M74.2979 41.272L86.828 51.4528" stroke="#202223" stroke-miterlimit="10" stroke-linecap="round" stroke-linejoin="round"/>
<path d="M67.054 41.272L79.5841 51.4528" stroke="#202223" stroke-miterlimit="10" stroke-linecap="round" stroke-linejoin="round"/>
<path d="M69.7954 55.8246V66.4302" stroke="#202223" stroke-miterlimit="10" stroke-linecap="round" stroke-linejoin="round"/>
<path d="M57.5002 56C58.3287 56 59.0002 55.3284 59.0002 54.5C59.0002 53.6716 58.3287 53 57.5002 53C56.6718 53 56.0002 53.6716 56.0002 54.5C56.0002 55.3284 56.6718 56 57.5002 56Z" fill="#ED9758"/>
<path d="M72.5 25C72.7761 25 73 24.7761 73 24.5C73 24.2239 72.7761 24 72.5 24C72.2239 24 72 24.2239 72 24.5C72 24.7761 72.2239 25 72.5 25Z" fill="white"/>
<path d="M23 44C23.5523 44 24 43.5523 24 43C24 42.4477 23.5523 42 23 42C22.4477 42 22 42.4477 22 43C22 43.5523 22.4477 44 23 44Z" fill="white"/>
<path d="M107 33C107.552 33 108 32.5523 108 32C108 31.4477 107.552 31 107 31C106.448 31 106 31.4477 106 32C106 32.5523 106.448 33 107 33Z" fill="white"/>
<path d="M100.5 8C100.776 8 101 7.77614 101 7.5C101 7.22386 100.776 7 100.5 7C100.224 7 100 7.22386 100 7.5C100 7.77614 100.224 8 100.5 8Z" fill="white"/>
<path d="M57.5 12C57.7761 12 58 11.7761 58 11.5C58 11.2239 57.7761 11 57.5 11C57.2239 11 57 11.2239 57 11.5C57 11.7761 57.2239 12 57.5 12Z" fill="white"/>
<path d="M48 8C48.5523 8 49 7.55228 49 7C49 6.44772 48.5523 6 48 6C47.4477 6 47 6.44772 47 7C47 7.55228 47.4477 8 48 8Z" fill="white"/>
<path d="M29.5017 22C29.0017 22 -4.27443 11 -3.99829 11C-3.74079 11 25.6013 19.4554 29.5614 20.8208L30.0018 19.5L30.5017 21L32.0017 21.5L30.5017 22L30.0018 23.5L29.5017 22Z" fill="#EAE7DC"/>
<path d="M29.1138 84.6788C29.0042 84.6788 28.8945 84.6846 28.7888 84.6944C28.7888 84.6768 28.7907 84.6612 28.7907 84.6435C28.7907 82.6309 27.1599 81 25.1472 81C23.1346 81 21.5037 82.6309 21.5037 84.6435C21.5037 84.6886 21.5056 84.7316 21.5076 84.7767C21.2394 84.714 20.9614 84.6807 20.6755 84.6807C18.6629 84.6807 17.032 86.3116 17.032 88.3243C17.032 90.3369 18.6629 91.9678 20.6755 91.9678C20.8263 91.9678 20.9731 91.958 21.118 91.9404C21.2452 91.958 21.3745 91.9678 21.5056 91.9678H28.2132C28.3561 91.9678 28.4971 91.956 28.6361 91.9345C28.7927 91.956 28.9532 91.9678 29.1157 91.9678C31.1284 91.9678 32.7593 90.3369 32.7593 88.3243C32.7573 86.3096 31.1265 84.6788 29.1138 84.6788Z" fill="#1C3075"/>
<path d="M30.4696 62.2639C30.4186 62.2639 30.3678 62.2659 30.3188 62.2718C30.3188 62.2639 30.3188 62.2561 30.3188 62.2483C30.3188 61.3144 29.5611 60.5567 28.6272 60.5567C27.6933 60.5567 26.9357 61.3144 26.9357 62.2483C26.9357 62.2698 26.9357 62.2894 26.9376 62.3109C26.8143 62.2816 26.6831 62.2659 26.55 62.2659C25.6161 62.2659 24.8584 63.0236 24.8584 63.9575C24.8584 64.8914 25.6161 65.649 26.55 65.649C26.6205 65.649 26.689 65.6451 26.7555 65.6353C26.8143 65.6432 26.875 65.649 26.9357 65.649H30.0506C30.1171 65.649 30.1817 65.6432 30.2464 65.6334C30.3188 65.6432 30.3932 65.649 30.4696 65.649C31.4034 65.649 32.1611 64.8914 32.1611 63.9575C32.1611 63.0216 31.4034 62.2639 30.4696 62.2639Z" fill="#1C3075"/>
<path d="M77.7498 94.2843C63.4537 91.3848 47.1136 89.2527 29.0897 88.8768C25.9376 88.8102 22.7326 88.7985 19.4787 88.8455C0.687403 89.1176 -16.5494 91.3104 -31.9537 94.5056C-59.4828 100.215 -81.1658 109.119 -95.4463 115.963C-66.5016 115.963 -37.555 115.963 -8.61036 115.963C32.9271 115.963 74.4626 115.963 116 115.963V104.96C105.855 101.323 92.9583 97.3699 77.7498 94.2843Z" fill="#1C3075"/>
<path d="M10.96 63.4543C11.9546 61.843 12.5282 59.9459 12.5282 57.9136C12.5282 54.458 10.8699 51.3901 8.30515 49.4597C8.09958 42.5955 5.33707 37.1606 1.95589 37.1606C-1.4253 37.1606 -4.18781 42.5975 -4.39338 49.4597C-6.95814 51.3882 -8.61643 54.4561 -8.61643 57.9136C-8.61643 59.9459 -8.04279 61.843 -7.0482 63.4543C-9.57969 65.8448 -11.1616 69.2319 -11.1616 72.989C-11.1616 80.233 -5.28811 86.1065 1.95589 86.1065C9.19988 86.1065 15.0734 80.233 15.0734 72.989C15.0734 69.2319 13.4915 65.8468 10.96 63.4543Z" fill="#0A1E51"/>
<path d="M1.76123 62.123V93.9946" stroke="#00699C" stroke-miterlimit="10" stroke-linecap="round" stroke-linejoin="round"/>
<path d="M1.76123 77.6819L5.87269 74.4574" stroke="#00699C" stroke-miterlimit="10" stroke-linecap="round" stroke-linejoin="round"/>
<path d="M1.76114 73.6331L-2.05664 69.8564" stroke="#00699C" stroke-miterlimit="10" stroke-linecap="round" stroke-linejoin="round"/>
<path d="M1.76123 68.9343L5.18744 65.3535" stroke="#00699C" stroke-miterlimit="10" stroke-linecap="round" stroke-linejoin="round"/>
<path d="M108.087 81.8462C106.71 87.3673 103.644 90.5116 100.827 90.5116C98.0095 90.5116 94.9436 87.3673 93.5672 81.8462C91.349 72.9517 93.8687 60.4373 100.827 60.4373C107.783 60.4373 110.305 72.9517 108.087 81.8462Z" fill="#0A1E51"/>
<path d="M100.826 68.1923V100.064" stroke="#00699C" stroke-miterlimit="10" stroke-linecap="round" stroke-linejoin="round"/>
<path d="M100.826 83.7513L104.938 80.5267" stroke="#00699C" stroke-miterlimit="10" stroke-linecap="round" stroke-linejoin="round"/>
<path d="M100.826 79.7024L97.0085 75.9257" stroke="#00699C" stroke-miterlimit="10" stroke-linecap="round" stroke-linejoin="round"/>
<path d="M100.826 75.0037L104.252 71.4228" stroke="#00699C" stroke-miterlimit="10" stroke-linecap="round" stroke-linejoin="round"/>
<path d="M72.1037 17.8352C72.1524 18.1744 93.0996 17.8931 96.6754 17.842C96.9344 17.8386 97.0909 17.5506 96.9431 17.3392C96.9414 17.3375 96.9396 17.3358 96.9396 17.3341C95.9175 15.8972 93.5881 17.0154 92.2513 15.708C91.5073 14.9802 92.0079 14.4178 90.984 13.2059C90.692 12.8599 90.0801 12.1372 89.084 11.8304C87.6864 11.3992 86.3809 12.0469 85.8089 12.3997C85.6577 12.4935 85.4578 12.4474 85.3622 12.2974C83.7351 9.74078 81.3379 8.56471 79.7838 9.14593C79.2049 9.36239 78.5026 9.91293 78.0611 10.7038C77.6317 11.4725 77.5848 12.2276 77.6161 12.7202C77.63 12.94 77.4231 13.1088 77.2076 13.0525C75.7091 12.6605 71.2693 12.0742 72.1037 17.8352Z" fill="#00A4B4"/>
<path d="M55.9709 108.452C55.7927 108.452 55.6165 108.462 55.4442 108.477C55.4442 108.45 55.4462 108.422 55.4462 108.395C55.4462 105.139 52.807 102.5 49.5511 102.5C46.2952 102.5 43.6561 105.139 43.6561 108.395C43.6561 108.467 43.658 108.538 43.662 108.61C43.2293 108.509 42.777 108.454 42.313 108.454C39.0571 108.454 36.418 111.093 36.418 114.349C36.418 117.605 39.0571 120.244 42.313 120.244C42.5558 120.244 42.7946 120.228 43.0296 120.199C43.2351 120.228 43.4427 120.244 43.6561 120.244H54.5142C54.7472 120.244 54.9743 120.226 55.1975 120.191C55.4521 120.224 55.7105 120.244 55.9728 120.244C59.2287 120.244 61.8679 117.605 61.8679 114.349C61.8659 111.091 59.2268 108.452 55.9709 108.452Z" fill="#2A3F88"/>
</g>
<defs>
<linearGradient id="paint0_linear" x1="-254" y1="6.52396e-07" x2="116" y2="116" gradientUnits="userSpaceOnUse">
<stop stop-color="#006CA0"/>
<stop offset="1" stop-color="#00417D"/>
</linearGradient>
<linearGradient id="paint1_linear" x1="-248.855" y1="108.958" x2="120.622" y2="40.3243" gradientUnits="userSpaceOnUse">
<stop stop-color="white"/>
<stop offset="1" stop-color="white" stop-opacity="0"/>
</linearGradient>
<linearGradient id="paint2_linear" x1="110.855" y1="112.818" x2="-216.126" y2="-21.5855" gradientUnits="userSpaceOnUse">
<stop stop-color="white"/>
<stop offset="1" stop-color="white" stop-opacity="0"/>
</linearGradient>
</defs>
</svg>
