<svg width="116" height="116" viewBox="0 0 116 116" fill="none" xmlns="http://www.w3.org/2000/svg">
<rect width="116" height="116" fill="#EFF8F5"/>
<mask id="mask0" mask-type="alpha" maskUnits="userSpaceOnUse" x="0" y="0" width="116" height="116">
<rect width="116" height="116" fill="#EFF8F5"/>
</mask>
<g mask="url(#mask0)">
<path d="M116 0H-254V116H116V0Z" fill="url(#paint0_linear)"/>
<path opacity="0.25" d="M-111 38C-174.955 8.3396 -220.5 12 -254 38V116H128V12C117 31.5644 93 57.5084 53.5 65.1304C14 72.7525 -52.5 65.1304 -111 38Z" fill="url(#paint1_linear)"/>
<path opacity="0.25" d="M-15 80.75C48.9552 67.3458 94.5 69 128 80.75V116H-254V69C-243 77.8416 -219 89.5663 -179.5 93.0109C-140 96.4554 -73.5 93.0109 -15 80.75Z" fill="url(#paint2_linear)"/>
<path opacity="0.8" d="M70 36.9996L73.3531 35.4721L70.6362 32.9827L74.2972 32.5651L72.4829 29.3583L76.0936 30.0936L75.3591 26.4821L78.5659 28.2972L78.9827 24.6362L81.4721 27.3523L83.0004 24L84.5279 27.3523L87.0173 24.6362L87.4349 28.2972L90.6417 26.4821L89.9064 30.0936L93.5179 29.3583L91.7028 32.5651L95.3638 32.9827L92.6477 35.4721L96 36.9996L92.6477 38.5279L95.3638 41.0173L91.7028 41.4341L93.5179 44.6409L89.9064 43.9064L90.6417 47.5171L87.4349 45.7028L87.0173 49.3638L84.5279 46.6469L83.0004 50L81.4721 46.6469L78.9827 49.3638L78.5659 45.7028L75.3591 47.5171L76.0936 43.9064L72.4829 44.6409L74.2972 41.4341L70.6362 41.0173L73.3531 38.5279L70 36.9996Z" fill="#FFBE8F"/>
<path d="M83 45C87.4183 45 91 41.4183 91 37C91 32.5817 87.4183 29 83 29C78.5817 29 75 32.5817 75 37C75 41.4183 78.5817 45 83 45Z" fill="#EDBF58"/>
<path opacity="0.6" d="M69.7952 66.4869C66.6235 65.7978 63.5242 65.2418 60.4954 64.7993C58.3046 64.4802 56.151 64.2217 54.0346 64.024C50.8492 63.7244 47.748 63.5541 44.7348 63.5032C-5.57176 62.6476 -31.9556 94.486 -31.9556 94.486H-31.9536C-16.5474 91.3025 0.687441 89.1176 19.4788 88.8474C22.7327 88.8004 25.9357 88.8122 29.0898 88.8787C40.5568 82.4531 54.4868 75.9394 70.6899 70.6395C72.9982 69.8838 75.3535 69.1535 77.7557 68.4507C75.0519 67.7047 72.401 67.0528 69.7952 66.4869Z" fill="#148469"/>
<path d="M69.7954 51.4527H44.7351V63.5032C52.5195 63.6363 60.8755 64.5506 69.7954 66.487V51.4527Z" fill="#43ABB5"/>
<path opacity="0.8" d="M77.754 68.4507C82.676 67.0117 87.7918 65.694 93.0937 64.5252V51.4527H69.7954V66.487C72.4013 67.0528 75.0522 67.7047 77.754 68.4507Z" fill="#34AEBA"/>
<path d="M80.4951 41.272L93.0938 51.4528H69.6683C65.502 48.0911 61.3338 44.7315 57.1675 41.3699C64.944 41.3366 72.7186 41.3053 80.4951 41.272Z" fill="#F16855"/>
<path d="M44.7351 51.4527L57.2653 41.3699L69.7954 51.4527H44.7351Z" fill="#C3475A"/>
<path d="M60.495 64.8013V61.0462C60.495 59.2626 59.0482 57.8158 57.2646 57.8158C55.481 57.8158 54.0342 59.2626 54.0342 61.0462V64.0241" fill="#F16855"/>
<path d="M60.495 64.8013V61.0462C60.495 59.2626 59.0482 57.8158 57.2646 57.8158C55.481 57.8158 54.0342 59.2626 54.0342 61.0462V64.0241" stroke="#202223" stroke-miterlimit="10" stroke-linecap="round" stroke-linejoin="round"/>
<path opacity="0.8" d="M93.0935 64.5253C87.7917 65.6941 82.6758 67.0117 77.7538 68.4507C75.3535 69.1536 72.9982 69.8839 70.688 70.6396C54.4849 75.9395 40.5569 82.4532 29.0879 88.8788C47.1117 89.2527 63.4518 91.377 77.748 94.2668C92.9564 97.3406 105.851 101.28 115.998 104.904V60.6566C108.018 61.6003 100.381 62.9198 93.0935 64.5253Z" fill="#148469"/>
<path d="M37.7573 55.2235C37.0682 57.9841 35.5352 59.5562 34.1275 59.5562C32.7198 59.5562 31.1868 57.9841 30.4977 55.2235C29.3895 50.7753 30.6484 44.5201 34.1275 44.5201C37.6046 44.5201 38.8655 50.7773 37.7573 55.2235Z" fill="#148469"/>
<path d="M34.1272 48.3966V64.3334" stroke="#202223" stroke-miterlimit="10" stroke-linecap="round" stroke-linejoin="round"/>
<path d="M34.1272 56.177L36.1829 54.5638" stroke="#202223" stroke-miterlimit="10" stroke-linecap="round" stroke-linejoin="round"/>
<path d="M34.1272 54.1526L32.2183 52.2633" stroke="#202223" stroke-miterlimit="10" stroke-linecap="round" stroke-linejoin="round"/>
<path d="M34.1272 51.8032L35.8403 50.0118" stroke="#202223" stroke-miterlimit="10" stroke-linecap="round" stroke-linejoin="round"/>
<path d="M112.2 55.9871C111.687 58.0429 110.545 59.2117 109.498 59.2117C108.45 59.2117 107.309 58.0409 106.796 55.9871C105.97 52.6764 106.908 48.0187 109.498 48.0187C112.088 48.0187 113.024 52.6764 112.2 55.9871Z" fill="#106351"/>
<path d="M109.498 50.9046V62.7671" stroke="#202223" stroke-miterlimit="10" stroke-linecap="round" stroke-linejoin="round"/>
<path d="M109.498 56.6959L111.027 55.4957" stroke="#202223" stroke-miterlimit="10" stroke-linecap="round" stroke-linejoin="round"/>
<path d="M109.498 55.1883L108.076 53.7826" stroke="#202223" stroke-miterlimit="10" stroke-linecap="round" stroke-linejoin="round"/>
<path d="M109.498 53.4399L110.773 52.1067" stroke="#202223" stroke-miterlimit="10" stroke-linecap="round" stroke-linejoin="round"/>
<path d="M103.143 52.9818C102.398 56.4825 100.737 58.4736 99.2121 58.4736C97.687 58.4736 96.0248 56.4805 95.2808 52.9818C94.0787 47.3433 95.4433 39.4121 99.2121 39.4121C102.981 39.4121 104.346 47.3433 103.143 52.9818Z" fill="#148469"/>
<path d="M99.2109 44.3283V64.5292" stroke="#202223" stroke-miterlimit="10" stroke-linecap="round" stroke-linejoin="round"/>
<path d="M99.2109 54.1899L101.439 52.1459" stroke="#202223" stroke-miterlimit="10" stroke-linecap="round" stroke-linejoin="round"/>
<path d="M99.211 51.6232L97.1436 49.2288" stroke="#202223" stroke-miterlimit="10" stroke-linecap="round" stroke-linejoin="round"/>
<path d="M99.2109 48.6434L101.067 46.3742" stroke="#202223" stroke-miterlimit="10" stroke-linecap="round" stroke-linejoin="round"/>
<path d="M81.8356 56.8368H77.7241V60.9483H81.8356V56.8368Z" fill="#EAE7DC" stroke="#202223" stroke-miterlimit="10" stroke-linecap="round" stroke-linejoin="round"/>
<path d="M85.9476 56.8369H81.8362V60.9483H85.9476V56.8369Z" fill="#EAE7DC" stroke="#202223" stroke-miterlimit="10" stroke-linecap="round" stroke-linejoin="round"/>
<path d="M44.833 51.5506L57.3632 41.3699L69.8933 51.5506L93.0937 51.4528L80.5635 41.272" stroke="#202223" stroke-miterlimit="10" stroke-linecap="round" stroke-linejoin="round"/>
<path d="M74.2979 41.272L86.828 51.4528" stroke="#202223" stroke-miterlimit="10" stroke-linecap="round" stroke-linejoin="round"/>
<path d="M67.0542 41.272L79.5844 51.4528" stroke="#202223" stroke-miterlimit="10" stroke-linecap="round" stroke-linejoin="round"/>
<path d="M69.7954 55.8246V66.4302" stroke="#202223" stroke-miterlimit="10" stroke-linecap="round" stroke-linejoin="round"/>
<path d="M57.5002 56C58.3287 56 59.0002 55.3284 59.0002 54.5C59.0002 53.6716 58.3287 53 57.5002 53C56.6718 53 56.0002 53.6716 56.0002 54.5C56.0002 55.3284 56.6718 56 57.5002 56Z" fill="#EAE7DC"/>
<path d="M29.1138 84.6788C29.0042 84.6788 28.8945 84.6846 28.7888 84.6944C28.7888 84.6768 28.7907 84.6612 28.7907 84.6435C28.7907 82.6309 27.1599 81 25.1472 81C23.1346 81 21.5037 82.6309 21.5037 84.6435C21.5037 84.6886 21.5056 84.7316 21.5076 84.7767C21.2394 84.714 20.9614 84.6807 20.6755 84.6807C18.6629 84.6807 17.032 86.3116 17.032 88.3243C17.032 90.3369 18.6629 91.9678 20.6755 91.9678C20.8263 91.9678 20.9731 91.958 21.118 91.9404C21.2452 91.958 21.3745 91.9678 21.5056 91.9678H28.2132C28.3561 91.9678 28.4971 91.956 28.6361 91.9345C28.7927 91.956 28.9532 91.9678 29.1157 91.9678C31.1284 91.9678 32.7593 90.3369 32.7593 88.3243C32.7573 86.3096 31.1265 84.6788 29.1138 84.6788Z" fill="#148469"/>
<path d="M30.4696 62.2639C30.4186 62.2639 30.3678 62.2659 30.3188 62.2718C30.3188 62.2639 30.3188 62.2561 30.3188 62.2483C30.3188 61.3144 29.5611 60.5567 28.6272 60.5567C27.6933 60.5567 26.9357 61.3144 26.9357 62.2483C26.9357 62.2698 26.9357 62.2894 26.9376 62.3109C26.8143 62.2816 26.6831 62.2659 26.55 62.2659C25.6161 62.2659 24.8584 63.0236 24.8584 63.9575C24.8584 64.8914 25.6161 65.649 26.55 65.649C26.6205 65.649 26.689 65.6451 26.7555 65.6353C26.8143 65.6432 26.875 65.649 26.9357 65.649H30.0506C30.1171 65.649 30.1817 65.6432 30.2464 65.6334C30.3188 65.6432 30.3932 65.649 30.4696 65.649C31.4034 65.649 32.1611 64.8914 32.1611 63.9575C32.1611 63.0216 31.4034 62.2639 30.4696 62.2639Z" fill="#148469"/>
<path d="M77.7498 94.2844C63.4537 91.3848 47.1136 89.2527 29.0897 88.8768C25.9376 88.8103 22.7326 88.7985 19.4787 88.8455C0.687403 89.1176 -16.5494 91.3104 -31.9537 94.5056C-59.4828 100.215 -81.1658 109.119 -95.4463 115.963C-66.5016 115.963 -37.555 115.963 -8.61036 115.963C32.9271 115.963 74.4626 115.963 116 115.963V104.96C105.855 101.323 92.9583 97.3699 77.7498 94.2844Z" fill="#148469"/>
<path d="M10.96 63.4543C11.9546 61.843 12.5282 59.9459 12.5282 57.9136C12.5282 54.458 10.8699 51.3901 8.30515 49.4597C8.09958 42.5955 5.33707 37.1606 1.95589 37.1606C-1.4253 37.1606 -4.18781 42.5975 -4.39338 49.4597C-6.95814 51.3882 -8.61643 54.4561 -8.61643 57.9136C-8.61643 59.9459 -8.04279 61.843 -7.0482 63.4543C-9.57969 65.8448 -11.1616 69.2319 -11.1616 72.989C-11.1616 80.233 -5.28811 86.1065 1.95589 86.1065C9.19988 86.1065 15.0734 80.233 15.0734 72.989C15.0734 69.2319 13.4915 65.8468 10.96 63.4543Z" fill="#106351"/>
<path d="M1.76123 62.123V93.9946" stroke="#202223" stroke-miterlimit="10" stroke-linecap="round" stroke-linejoin="round"/>
<path d="M1.76123 77.6819L5.87269 74.4574" stroke="#202223" stroke-miterlimit="10" stroke-linecap="round" stroke-linejoin="round"/>
<path d="M1.76114 73.6331L-2.05664 69.8564" stroke="#202223" stroke-miterlimit="10" stroke-linecap="round" stroke-linejoin="round"/>
<path d="M1.76123 68.9343L5.18744 65.3534" stroke="#202223" stroke-miterlimit="10" stroke-linecap="round" stroke-linejoin="round"/>
<path d="M108.087 81.8462C106.71 87.3673 103.644 90.5116 100.827 90.5116C98.0095 90.5116 94.9436 87.3673 93.5672 81.8462C91.349 72.9517 93.8687 60.4373 100.827 60.4373C107.783 60.4373 110.305 72.9517 108.087 81.8462Z" fill="#106351"/>
<path d="M100.826 68.1923V100.064" stroke="#202223" stroke-miterlimit="10" stroke-linecap="round" stroke-linejoin="round"/>
<path d="M100.826 83.7513L104.938 80.5267" stroke="#202223" stroke-miterlimit="10" stroke-linecap="round" stroke-linejoin="round"/>
<path d="M100.826 79.7024L97.0085 75.9258" stroke="#202223" stroke-miterlimit="10" stroke-linecap="round" stroke-linejoin="round"/>
<path d="M100.826 75.0037L104.252 71.4228" stroke="#202223" stroke-miterlimit="10" stroke-linecap="round" stroke-linejoin="round"/>
<path opacity="0.55" d="M42.1035 17.8352C42.1522 18.1744 63.0994 17.8931 66.6752 17.842C66.9342 17.8386 67.0906 17.5506 66.9429 17.3392C66.9411 17.3375 66.9394 17.3358 66.9394 17.3341C65.9172 15.8972 63.5878 17.0154 62.251 15.708C61.507 14.9802 62.0077 14.4178 60.9838 13.2059C60.6917 12.8599 60.0798 12.1372 59.0838 11.8304C57.6861 11.3992 56.3806 12.0469 55.8087 12.3997C55.6575 12.4935 55.4575 12.4474 55.3619 12.2974C53.7348 9.74078 51.3376 8.56471 49.7836 9.14593C49.2047 9.36239 48.5024 9.91293 48.0608 10.7038C47.6315 11.4725 47.5845 12.2276 47.6158 12.7202C47.6297 12.94 47.4229 13.1088 47.2073 13.0525C45.7089 12.6605 41.2691 12.0742 42.1035 17.8352Z" fill="#F16855"/>
<path opacity="0.55" d="M33.8227 28.707C33.7389 29.31 -2.2908 28.81 -8.44127 28.7191C-8.88678 28.7131 -9.15588 28.201 -8.90173 27.8252C-8.89874 27.8222 -8.89576 27.8192 -8.89576 27.8162C-7.13763 25.2618 -3.13099 27.2495 -0.831664 24.9254C0.448065 23.6315 -0.413068 22.6316 1.34805 20.4772C1.85038 19.8621 2.90286 18.5773 4.61614 18.0319C7.02012 17.2653 9.26563 18.4167 10.2494 19.0439C10.5095 19.2106 10.8533 19.1288 11.0178 18.8621C13.8164 14.3169 17.9397 12.2262 20.6128 13.2594C21.6084 13.6443 22.8164 14.623 23.5759 16.029C24.3144 17.3956 24.3951 18.7379 24.3413 19.6136C24.3174 20.0045 24.6732 20.3045 25.044 20.2045C27.6184 19.5075 35.2549 18.4652 33.8227 28.707Z" fill="#F16855"/>
<path d="M55.9706 108.452C55.7925 108.452 55.6163 108.462 55.444 108.477C55.444 108.45 55.4459 108.422 55.4459 108.395C55.4459 105.139 52.8068 102.5 49.5509 102.5C46.295 102.5 43.6558 105.139 43.6558 108.395C43.6558 108.467 43.6578 108.538 43.6617 108.61C43.229 108.509 42.7768 108.454 42.3128 108.454C39.0569 108.454 36.4177 111.093 36.4177 114.349C36.4177 117.605 39.0569 120.244 42.3128 120.244C42.5555 120.244 42.7944 120.228 43.0293 120.199C43.2349 120.228 43.4424 120.244 43.6558 120.244H54.514C54.747 120.244 54.9741 120.226 55.1973 120.191C55.4518 120.224 55.7102 120.244 55.9726 120.244C59.2285 120.244 61.8676 117.605 61.8676 114.349C61.8657 111.091 59.2265 108.452 55.9706 108.452Z" fill="#419470"/>
</g>
<defs>
<linearGradient id="paint0_linear" x1="-236.5" y1="-1.70897e-05" x2="110" y2="116" gradientUnits="userSpaceOnUse">
<stop stop-color="#FCE6B7"/>
<stop offset="1" stop-color="#F38767"/>
</linearGradient>
<linearGradient id="paint1_linear" x1="-248.688" y1="108.958" x2="131.936" y2="35.9607" gradientUnits="userSpaceOnUse">
<stop stop-color="white"/>
<stop offset="1" stop-color="white" stop-opacity="0"/>
</linearGradient>
<linearGradient id="paint2_linear" x1="122.688" y1="112.818" x2="-211.712" y2="-29.0929" gradientUnits="userSpaceOnUse">
<stop stop-color="white"/>
<stop offset="1" stop-color="white" stop-opacity="0"/>
</linearGradient>
</defs>
</svg>
