<svg id="svg" version="1.1" xmlns="http://www.w3.org/2000/svg" xmlns:xlink="http://www.w3.org/1999/xlink" width="400" height="400" viewBox="0, 0, 400,400"><g id="svgg"><path id="path0" d="M0.000 64.627 L 0.000 129.254 0.900 128.976 C 1.395 128.824,2.286 128.451,2.880 128.149 C 7.514 125.793,15.443 129.494,19.769 136.033 C 22.491 140.147,22.800 140.667,22.800 141.142 C 22.800 141.417,23.151 142.307,23.579 143.121 C 25.152 146.106,27.506 154.440,27.995 158.756 C 28.218 160.725,28.488 162.575,28.595 162.868 C 28.702 163.161,28.953 164.891,29.152 166.713 L 29.514 170.025 32.664 173.313 C 35.845 176.632,39.204 181.268,39.993 183.427 C 40.228 184.072,40.675 185.140,40.985 185.800 C 43.591 191.353,44.618 204.897,42.714 208.600 C 42.374 209.260,41.969 210.430,41.812 211.200 C 41.656 211.970,40.887 213.916,40.104 215.525 C 38.689 218.431,38.685 218.455,39.440 219.385 C 44.092 225.119,46.382 228.281,46.868 229.645 C 47.599 231.697,49.886 231.861,55.200 230.242 C 56.190 229.940,59.160 229.214,61.800 228.630 C 64.440 228.045,68.130 227.223,70.000 226.804 C 71.870 226.384,74.300 225.927,75.400 225.787 C 76.500 225.648,78.390 225.285,79.600 224.980 C 80.810 224.675,82.632 224.322,83.650 224.196 L 85.499 223.966 85.684 220.779 C 85.911 216.854,88.494 214.000,91.820 214.000 C 92.105 214.000,92.535 213.402,92.777 212.671 C 94.575 207.223,100.989 206.924,104.435 212.128 C 105.207 213.293,106.270 214.253,107.388 214.794 C 109.401 215.769,109.898 216.286,111.000 218.553 C 111.630 219.849,112.051 220.229,112.980 220.334 C 114.983 220.562,115.200 219.801,115.200 212.563 L 115.200 206.079 113.749 204.939 C 109.006 201.214,105.635 195.826,104.807 190.646 C 104.577 189.202,104.194 187.521,103.957 186.910 C 103.146 184.824,103.041 174.941,103.794 171.600 C 104.166 169.950,104.635 167.799,104.838 166.821 C 105.182 165.155,106.374 162.162,107.236 160.800 C 107.445 160.470,107.869 159.660,108.178 159.000 C 110.494 154.053,117.196 151.726,121.957 154.215 C 125.200 155.911,129.593 161.508,129.602 163.956 C 129.604 164.310,129.884 165.135,130.225 165.789 C 131.488 168.211,132.227 178.287,131.605 184.600 C 130.666 194.122,128.065 199.402,121.500 205.114 L 120.000 206.419 120.000 212.165 C 120.000 220.387,118.816 219.716,132.400 219.199 C 138.450 218.969,145.740 218.740,148.600 218.690 L 153.800 218.600 153.904 199.689 C 154.007 180.984,153.999 180.766,153.162 179.634 C 152.104 178.203,152.377 176.584,153.913 175.177 C 155.057 174.129,160.653 169.563,162.463 168.200 C 163.558 167.375,169.817 162.225,172.538 159.909 C 173.384 159.189,174.374 158.435,174.738 158.234 C 175.102 158.033,175.490 157.739,175.600 157.582 C 175.849 157.224,178.686 154.871,180.158 153.800 C 180.763 153.360,181.749 152.550,182.351 152.000 C 182.952 151.450,184.836 149.920,186.536 148.600 C 188.237 147.280,190.837 145.152,192.314 143.870 C 196.693 140.072,198.480 139.611,200.715 141.706 C 201.667 142.598,201.701 142.600,214.679 142.503 L 227.689 142.405 229.058 141.203 C 230.750 139.717,231.553 139.699,233.708 141.100 C 235.399 142.199,235.405 142.200,243.800 142.321 L 252.200 142.442 254.165 141.045 L 256.130 139.648 258.365 140.924 L 260.600 142.200 267.400 142.157 C 274.059 142.115,274.232 142.092,275.756 141.057 C 277.757 139.698,278.720 139.724,280.318 141.184 C 281.032 141.836,281.862 142.511,282.165 142.684 C 282.467 142.858,283.408 143.582,284.257 144.294 C 285.106 145.005,287.422 146.895,289.405 148.494 C 291.388 150.092,293.368 151.721,293.805 152.113 C 294.242 152.505,296.220 154.102,298.200 155.662 C 300.180 157.223,301.980 158.712,302.200 158.972 C 302.420 159.232,303.590 160.177,304.800 161.072 C 306.010 161.966,307.494 163.162,308.098 163.728 C 308.702 164.294,309.447 164.902,309.755 165.079 C 310.062 165.256,311.098 166.069,312.057 166.886 C 313.016 167.703,315.330 169.593,317.200 171.086 C 323.392 176.029,324.386 177.855,321.880 179.680 L 320.800 180.467 320.800 201.046 C 320.800 224.515,320.415 222.508,324.702 221.374 C 326.900 220.793,327.659 220.367,328.800 219.071 C 332.806 214.520,335.204 212.176,337.100 210.959 L 339.200 209.610 339.200 205.979 C 339.200 202.031,338.854 200.953,337.409 200.403 C 336.353 200.002,332.400 195.448,332.400 194.633 C 332.400 194.344,332.040 193.650,331.600 193.091 C 331.160 192.531,330.800 191.737,330.800 191.326 C 330.800 190.915,330.542 190.209,330.226 189.758 C 329.645 188.929,328.340 184.432,327.510 180.400 C 326.909 177.476,326.910 158.514,327.512 155.600 C 330.264 142.285,335.166 135.612,342.203 135.602 C 345.325 135.598,346.445 136.138,349.462 139.105 C 352.447 142.040,354.140 145.434,355.427 151.059 C 355.736 152.412,356.183 154.028,356.419 154.650 C 356.656 155.273,357.025 158.306,357.240 161.391 C 358.472 179.094,355.294 192.024,347.917 199.316 L 344.764 202.432 344.882 205.116 L 345.000 207.800 349.000 208.071 C 353.512 208.377,356.588 209.483,359.462 211.832 C 362.302 214.154,364.946 214.292,372.200 212.494 L 375.000 211.800 375.116 208.243 L 375.233 204.687 373.004 202.700 C 371.778 201.607,370.514 200.148,370.195 199.457 C 369.877 198.765,369.446 197.930,369.237 197.600 C 365.540 191.741,366.048 176.177,370.149 169.681 C 373.966 163.634,380.789 163.519,384.781 169.434 C 387.488 173.446,388.200 176.602,388.200 184.600 C 388.200 192.336,388.245 192.107,385.476 198.516 C 384.690 200.335,381.309 204.000,380.417 204.000 C 379.987 204.000,379.801 210.867,380.220 211.287 C 380.341 211.408,381.106 211.348,381.920 211.155 C 382.734 210.961,386.010 210.525,389.200 210.184 C 392.390 209.844,395.630 209.394,396.400 209.185 C 397.170 208.976,398.295 208.803,398.900 208.802 L 400.000 208.800 400.000 104.400 L 400.000 0.000 200.000 0.000 L 0.000 0.000 0.000 64.627 M283.077 31.286 C 283.475 31.645,284.279 32.057,284.864 32.203 C 286.645 32.648,291.025 36.406,293.000 39.185 C 294.968 41.954,295.703 42.025,300.348 39.897 C 306.247 37.194,315.767 43.537,317.402 51.258 C 318.004 54.102,321.075 55.571,328.000 56.327 C 333.353 56.911,336.708 59.919,334.267 61.944 C 333.424 62.644,249.020 62.777,248.322 62.079 C 247.340 61.099,247.616 51.744,248.686 49.743 C 249.889 47.494,253.337 44.538,255.154 44.199 C 255.949 44.050,256.817 43.749,257.081 43.531 C 257.547 43.146,260.853 43.269,264.900 43.821 L 266.800 44.081 266.801 41.940 C 266.802 38.302,269.202 34.347,273.000 31.726 C 275.321 30.124,281.489 29.855,283.077 31.286 M173.415 44.348 C 176.550 44.956,184.800 51.535,184.800 53.426 C 184.800 53.682,185.127 54.321,185.527 54.846 C 186.798 56.514,188.149 61.227,188.380 64.800 L 188.600 68.200 190.177 68.329 C 191.044 68.400,193.024 68.159,194.577 67.795 C 201.675 66.128,211.083 68.328,215.345 72.650 C 217.176 74.507,219.600 78.301,219.600 79.309 C 219.600 79.596,219.960 80.537,220.400 81.400 C 221.583 83.720,221.621 98.379,220.448 99.552 C 219.200 100.800,76.087 101.406,73.914 100.173 C 69.570 97.707,72.542 91.655,78.600 90.631 C 79.480 90.483,81.010 90.115,82.000 89.814 C 82.990 89.514,85.971 89.181,88.625 89.075 C 92.513 88.920,93.754 88.719,95.019 88.041 C 95.882 87.579,96.787 87.200,97.029 87.200 C 98.523 87.200,102.800 81.015,102.800 78.855 C 102.800 77.913,104.163 74.856,106.190 71.249 C 108.004 68.023,115.880 61.754,118.656 61.327 C 119.505 61.196,120.453 60.889,120.761 60.644 C 121.500 60.060,128.501 60.060,129.239 60.645 C 129.547 60.890,130.534 61.202,131.431 61.339 C 133.206 61.609,138.186 63.731,138.594 64.391 C 139.254 65.459,142.400 63.170,142.400 61.621 C 142.400 61.390,142.715 60.877,143.100 60.482 C 143.485 60.087,144.698 58.692,145.795 57.382 C 151.382 50.709,157.709 46.348,164.600 44.418 C 166.146 43.985,171.332 43.944,173.415 44.348 M196.578 183.184 C 195.119 183.774,193.200 186.322,193.200 187.667 C 193.200 192.151,198.258 194.372,201.599 191.353 C 205.497 187.832,201.433 181.218,196.578 183.184 M201.261 185.267 C 203.809 188.026,201.950 192.400,198.230 192.400 C 196.004 192.400,193.271 188.917,193.998 187.005 C 195.349 183.451,198.819 182.620,201.261 185.267 M273.312 198.695 C 274.364 198.777,275.984 198.776,276.912 198.692 C 277.840 198.608,276.980 198.541,275.000 198.542 C 273.020 198.543,272.260 198.612,273.312 198.695 M287.312 198.695 C 288.364 198.777,289.984 198.776,290.912 198.692 C 291.840 198.608,290.980 198.541,289.000 198.542 C 287.020 198.543,286.260 198.612,287.312 198.695 M279.197 202.718 L 279.394 206.600 279.514 203.036 C 279.579 201.077,279.491 199.330,279.316 199.155 C 279.142 198.980,279.089 200.583,279.197 202.718 M271.555 207.717 C 271.731 207.892,273.388 207.980,275.237 207.914 L 278.600 207.794 274.918 207.597 C 272.893 207.489,271.380 207.543,271.555 207.717 M287.312 207.895 C 288.364 207.977,289.984 207.976,290.912 207.892 C 291.840 207.808,290.980 207.741,289.000 207.742 C 287.020 207.743,286.260 207.812,287.312 207.895 " stroke="none" fill="#a0dbfb" fill-rule="evenodd"></path><path id="path1" d="M273.000 31.726 C 269.202 34.347,266.802 38.302,266.801 41.940 L 266.800 44.081 264.900 43.821 C 260.853 43.269,257.547 43.146,257.081 43.531 C 256.817 43.749,255.949 44.050,255.154 44.199 C 253.337 44.538,249.889 47.494,248.686 49.743 C 247.616 51.744,247.340 61.099,248.322 62.079 C 249.020 62.777,333.424 62.644,334.267 61.944 C 336.708 59.919,333.353 56.911,328.000 56.327 C 321.075 55.571,318.004 54.102,317.402 51.258 C 315.767 43.537,306.247 37.194,300.348 39.897 C 295.703 42.025,294.968 41.954,293.000 39.185 C 291.025 36.406,286.645 32.648,284.864 32.203 C 284.279 32.057,283.475 31.645,283.077 31.286 C 281.489 29.855,275.321 30.124,273.000 31.726 M164.600 44.418 C 157.709 46.348,151.382 50.709,145.795 57.382 C 144.698 58.692,143.485 60.087,143.100 60.482 C 142.715 60.877,142.400 61.390,142.400 61.621 C 142.400 63.170,139.254 65.459,138.594 64.391 C 138.186 63.731,133.206 61.609,131.431 61.339 C 130.534 61.202,129.547 60.890,129.239 60.645 C 128.501 60.060,121.500 60.060,120.761 60.644 C 120.453 60.889,119.505 61.196,118.656 61.327 C 115.880 61.754,108.004 68.023,106.190 71.249 C 104.163 74.856,102.800 77.913,102.800 78.855 C 102.800 81.015,98.523 87.200,97.029 87.200 C 96.787 87.200,95.882 87.579,95.019 88.041 C 93.754 88.719,92.513 88.920,88.625 89.075 C 85.971 89.181,82.990 89.514,82.000 89.814 C 81.010 90.115,79.480 90.483,78.600 90.631 C 72.542 91.655,69.570 97.707,73.914 100.173 C 76.087 101.406,219.200 100.800,220.448 99.552 C 221.621 98.379,221.583 83.720,220.400 81.400 C 219.960 80.537,219.600 79.596,219.600 79.309 C 219.600 78.301,217.176 74.507,215.345 72.650 C 211.083 68.328,201.675 66.128,194.577 67.795 C 193.024 68.159,191.044 68.400,190.177 68.329 L 188.600 68.200 188.380 64.800 C 188.149 61.227,186.798 56.514,185.527 54.846 C 185.127 54.321,184.800 53.682,184.800 53.426 C 184.800 51.535,176.550 44.956,173.415 44.348 C 171.332 43.944,166.146 43.985,164.600 44.418 M195.687 184.779 C 193.210 187.041,193.219 188.451,195.726 191.100 C 197.487 192.960,199.013 192.876,201.152 190.800 C 205.068 187.000,199.714 181.101,195.687 184.779 M271.048 199.419 C 270.659 200.434,270.758 205.437,271.190 206.574 C 271.569 207.571,271.684 207.600,275.182 207.600 C 279.430 207.600,279.304 207.766,279.118 202.400 L 279.000 199.000 275.148 198.886 C 271.901 198.790,271.257 198.874,271.048 199.419 M285.067 199.067 C 284.735 199.398,284.724 205.474,285.052 206.700 C 285.315 207.679,291.813 208.085,293.200 207.209 C 293.997 206.705,294.320 200.267,293.592 199.391 C 293.082 198.776,285.640 198.493,285.067 199.067 " stroke="none" fill="#c3eafb" fill-rule="evenodd"></path><path id="path2" d="M2.100 129.483 C 0.945 129.824,-0.000 130.259,-0.000 130.451 C 0.000 130.919,0.137 130.902,2.451 130.145 C 5.656 129.097,10.490 129.548,12.806 131.111 C 15.400 132.862,20.000 138.268,20.000 139.566 C 20.000 139.745,20.349 140.336,20.775 140.878 C 21.202 141.420,21.671 142.344,21.819 142.933 C 21.966 143.521,22.428 144.670,22.844 145.486 C 23.260 146.302,23.600 147.339,23.600 147.791 C 23.600 148.242,23.934 149.239,24.341 150.006 C 24.749 150.773,25.211 152.549,25.367 153.954 C 25.524 155.358,25.899 156.888,26.201 157.354 C 26.563 157.912,26.846 160.206,27.032 164.090 L 27.315 169.979 31.054 174.017 C 34.551 177.793,36.622 180.544,38.117 183.400 C 39.625 186.279,40.800 189.224,40.800 190.123 C 40.800 190.658,41.160 192.223,41.600 193.600 C 42.568 196.631,42.685 202.291,41.830 204.716 C 41.516 205.606,41.136 207.203,40.986 208.267 C 40.695 210.334,39.323 213.804,37.770 216.400 C 36.789 218.040,37.327 219.789,39.564 222.236 C 41.688 224.561,46.000 230.786,46.000 231.529 C 46.000 231.771,46.340 232.291,46.755 232.684 C 47.719 233.599,49.431 237.956,49.943 240.800 C 50.161 242.010,50.533 243.507,50.770 244.126 C 51.567 246.213,51.305 257.833,50.395 260.736 C 49.958 262.130,49.600 263.683,49.600 264.187 C 49.600 266.389,45.324 274.674,41.925 279.057 C 36.632 285.881,24.289 294.317,19.449 294.418 C 18.982 294.427,17.880 294.703,17.000 295.031 C 16.120 295.359,13.990 295.780,12.267 295.967 C 10.544 296.153,8.924 296.516,8.667 296.772 C 7.878 297.559,7.799 307.651,8.570 309.141 C 9.525 310.989,9.499 325.254,8.539 326.051 C 7.570 326.855,4.582 326.753,3.714 325.887 C 2.688 324.862,2.429 312.870,3.373 310.099 C 5.356 304.278,4.028 296.000,1.111 296.000 C -0.483 296.000,-0.258 296.595,1.500 297.029 L 3.000 297.400 3.115 302.800 C 3.238 308.607,2.893 309.600,0.756 309.600 C 0.019 309.600,0.000 310.750,0.000 354.800 L 0.000 400.000 200.000 400.000 L 400.000 400.000 400.000 305.457 L 400.000 210.914 395.100 211.108 C 391.922 211.234,389.792 211.510,389.041 211.892 C 386.776 213.044,380.083 213.091,379.658 211.958 C 379.416 211.311,379.365 211.920,379.499 213.835 C 379.741 217.277,379.273 218.400,377.600 218.400 C 375.950 218.400,375.456 217.265,375.700 214.034 C 375.884 211.593,375.864 211.502,375.415 212.800 L 374.931 214.200 371.165 214.493 C 369.094 214.654,366.751 214.989,365.957 215.238 C 364.096 215.821,363.227 215.529,359.667 213.120 C 355.075 210.014,351.851 208.800,348.196 208.800 C 343.818 208.800,343.600 208.618,343.600 204.961 L 343.600 201.951 346.385 199.275 C 349.266 196.507,350.911 194.367,351.407 192.741 C 351.565 192.224,351.913 191.530,352.179 191.200 C 355.536 187.043,357.674 165.765,355.603 157.125 C 355.164 155.296,354.798 153.260,354.789 152.600 C 354.780 151.940,354.425 150.680,354.000 149.800 C 353.575 148.920,353.221 147.839,353.214 147.397 C 353.177 145.214,349.448 139.960,346.494 137.927 C 342.882 135.442,337.597 136.622,334.760 140.547 C 332.464 143.722,331.560 145.301,331.324 146.546 C 331.193 147.236,330.808 148.340,330.468 149.000 C 330.129 149.660,329.724 151.010,329.568 152.000 C 329.413 152.990,329.000 155.060,328.650 156.600 C 325.974 168.381,328.922 187.700,334.662 196.000 C 336.041 197.994,337.168 199.108,338.469 199.764 C 339.666 200.368,340.335 202.497,340.364 205.800 C 340.399 209.666,340.175 210.222,338.055 211.543 C 335.721 212.998,333.471 215.126,331.020 218.200 C 327.570 222.526,326.434 223.200,322.593 223.200 C 320.724 223.200,318.714 223.437,317.949 223.748 C 317.207 224.050,315.627 224.420,314.437 224.570 C 313.248 224.721,311.808 225.080,311.237 225.368 C 310.667 225.656,309.289 226.007,308.175 226.149 C 307.062 226.291,305.131 226.766,303.885 227.204 C 302.639 227.642,301.172 228.000,300.625 228.000 C 300.077 228.000,298.716 228.360,297.600 228.800 C 296.484 229.240,294.992 229.608,294.285 229.618 C 293.578 229.627,292.280 229.913,291.400 230.252 C 290.520 230.591,288.630 231.111,287.200 231.407 C 285.770 231.704,283.340 232.330,281.800 232.799 C 280.260 233.268,277.470 234.080,275.600 234.603 C 273.730 235.126,270.940 235.906,269.400 236.337 C 267.860 236.767,266.150 237.306,265.600 237.535 C 265.050 237.764,263.760 238.061,262.733 238.195 C 261.706 238.330,260.662 238.685,260.413 238.985 C 260.164 239.285,259.024 239.651,257.880 239.799 C 256.736 239.947,255.119 240.412,254.288 240.834 C 253.456 241.255,252.424 241.600,251.996 241.600 C 251.567 241.600,249.997 242.071,248.508 242.647 C 247.019 243.222,244.990 244.006,244.000 244.388 C 241.323 245.421,238.448 246.381,236.200 246.992 C 233.842 247.632,230.906 248.631,228.400 249.646 C 227.410 250.047,225.843 250.566,224.917 250.798 C 223.991 251.031,223.135 251.381,223.015 251.576 C 222.894 251.771,222.087 252.050,221.221 252.196 C 220.355 252.343,219.449 252.700,219.209 252.989 C 218.968 253.279,218.103 253.641,217.286 253.794 C 216.469 253.947,215.045 254.416,214.122 254.836 C 213.199 255.256,212.209 255.606,211.922 255.613 C 211.635 255.619,210.500 256.068,209.400 256.609 C 208.300 257.150,207.158 257.594,206.862 257.596 C 206.566 257.598,205.846 257.849,205.262 258.153 C 203.653 258.990,198.856 260.800,198.246 260.800 C 197.950 260.800,197.250 261.160,196.691 261.600 C 196.131 262.040,195.335 262.400,194.921 262.400 C 194.508 262.400,193.463 262.760,192.600 263.200 C 191.737 263.640,190.826 264.000,190.575 264.000 C 190.324 264.000,189.273 264.450,188.238 265.000 C 187.204 265.550,186.107 266.000,185.800 266.000 C 185.493 266.000,184.396 266.450,183.362 267.000 C 182.327 267.550,181.242 268.000,180.950 268.000 C 180.658 268.000,179.830 268.359,179.110 268.799 C 178.389 269.238,177.507 269.598,177.149 269.599 C 176.791 269.599,176.274 269.870,176.000 270.200 C 175.726 270.530,175.195 270.800,174.819 270.800 C 174.443 270.800,173.250 271.249,172.168 271.799 C 171.086 272.348,169.621 272.907,168.914 273.040 C 168.207 273.174,167.430 273.523,167.187 273.816 C 166.944 274.109,166.230 274.462,165.600 274.600 C 164.970 274.738,164.250 275.098,164.000 275.400 C 163.750 275.702,162.972 276.070,162.272 276.219 C 161.573 276.367,160.730 276.721,160.400 277.005 C 160.070 277.289,159.033 277.748,158.095 278.025 C 157.158 278.303,156.191 278.770,155.946 279.065 C 155.702 279.359,155.299 279.603,155.051 279.606 C 154.803 279.609,153.028 280.404,151.106 281.373 C 149.185 282.341,147.082 283.250,146.434 283.393 C 145.786 283.535,145.050 283.898,144.800 284.200 C 144.550 284.502,143.830 284.862,143.200 285.000 C 142.570 285.138,141.841 285.510,141.579 285.826 C 141.317 286.142,140.939 286.400,140.740 286.400 C 140.361 286.400,135.044 288.934,134.000 289.611 C 133.670 289.825,132.950 290.180,132.400 290.399 C 131.850 290.619,131.130 290.979,130.800 291.199 C 130.470 291.420,129.750 291.780,129.200 291.999 C 128.650 292.219,127.930 292.574,127.600 292.789 C 127.270 293.005,126.370 293.456,125.600 293.793 C 124.830 294.130,123.480 294.845,122.600 295.382 C 121.720 295.919,120.550 296.548,120.000 296.779 C 119.450 297.010,118.730 297.376,118.400 297.592 C 117.289 298.320,113.727 300.000,113.295 300.000 C 113.060 300.000,112.207 299.099,111.398 297.997 C 109.137 294.916,106.912 293.310,103.554 292.331 C 99.979 291.290,100.017 291.327,98.612 287.642 C 94.404 276.610,80.105 276.246,74.998 287.041 C 74.449 288.201,73.997 289.477,73.994 289.875 C 73.983 291.168,73.441 291.494,71.000 291.673 C 64.555 292.145,59.292 297.077,58.556 303.334 C 58.181 306.527,58.781 306.338,48.188 306.600 C 42.915 306.731,34.280 307.144,29.000 307.517 C 23.720 307.891,17.060 308.198,14.200 308.198 L 9.000 308.200 8.884 303.600 C 8.719 297.054,8.583 297.315,12.299 297.033 C 14.005 296.904,16.480 296.451,17.800 296.027 C 19.120 295.603,20.823 295.130,21.584 294.978 C 22.865 294.720,25.378 293.652,26.800 292.760 C 27.130 292.553,27.998 292.110,28.729 291.774 C 34.105 289.309,42.242 281.654,45.417 276.076 C 45.753 275.484,46.548 274.190,47.183 273.200 C 47.818 272.210,48.351 271.127,48.369 270.794 C 48.386 270.461,48.768 269.501,49.218 268.662 C 49.668 267.822,50.194 266.385,50.388 265.468 C 50.581 264.550,51.049 262.990,51.427 262.000 C 52.443 259.346,52.442 243.850,51.426 241.200 C 51.047 240.210,50.558 238.523,50.341 237.450 C 49.949 235.515,48.220 232.400,47.538 232.400 C 47.343 232.400,46.970 231.905,46.710 231.300 C 45.909 229.433,42.393 224.325,40.142 221.756 C 37.587 218.840,37.528 218.274,39.397 214.690 C 40.165 213.216,40.956 211.333,41.154 210.505 C 41.352 209.677,41.803 207.927,42.157 206.616 C 43.111 203.079,43.032 195.611,42.005 192.336 C 41.568 190.941,41.208 189.474,41.205 189.075 C 41.202 188.677,40.773 187.417,40.251 186.275 C 39.729 185.134,39.180 183.930,39.032 183.600 C 38.705 182.875,37.412 180.756,35.836 178.366 C 35.195 177.395,33.337 175.272,31.706 173.648 C 28.100 170.059,28.212 170.341,27.601 163.216 C 27.329 160.035,26.870 156.765,26.582 155.950 C 26.294 155.134,25.932 153.597,25.778 152.533 C 25.623 151.470,25.219 150.060,24.881 149.400 C 24.542 148.740,24.132 147.570,23.969 146.800 C 23.614 145.121,22.073 141.464,21.020 139.800 C 17.456 134.168,16.109 132.569,13.384 130.733 C 10.428 128.742,6.202 128.274,2.100 129.483 M194.351 143.231 C 192.948 144.347,191.620 145.464,191.400 145.711 C 190.863 146.315,192.177 145.366,194.521 143.456 C 195.578 142.595,197.018 141.753,197.721 141.586 C 198.898 141.306,198.917 141.279,197.951 141.241 C 197.252 141.214,196.051 141.878,194.351 143.231 M233.200 142.200 C 233.945 142.750,234.726 143.200,234.934 143.200 C 235.141 143.200,234.649 142.750,233.838 142.200 C 233.028 141.650,232.247 141.200,232.105 141.200 C 231.962 141.200,232.455 141.650,233.200 142.200 M278.433 141.327 C 281.793 143.883,283.681 145.191,283.247 144.663 C 282.571 143.840,279.013 141.200,278.580 141.200 C 278.408 141.200,278.342 141.257,278.433 141.327 M186.250 149.825 C 183.913 151.708,182.000 153.336,182.000 153.443 C 182.000 153.649,184.443 151.808,186.831 149.802 C 187.618 149.141,188.878 148.108,189.631 147.507 C 190.384 146.906,190.888 146.411,190.750 146.407 C 190.613 146.403,188.588 147.941,186.250 149.825 M287.001 147.945 C 287.660 148.685,288.830 149.714,289.600 150.230 C 290.370 150.747,291.495 151.552,292.100 152.018 C 292.705 152.485,293.200 152.784,293.200 152.682 C 293.200 152.580,292.165 151.721,290.900 150.771 C 289.635 149.822,287.970 148.495,287.201 147.823 L 285.802 146.600 287.001 147.945 M343.882 150.790 C 345.071 151.872,345.173 152.168,345.282 154.878 C 345.410 158.056,345.298 157.953,348.063 157.412 C 351.662 156.706,352.183 160.613,348.953 164.083 C 347.989 165.118,347.200 166.146,347.200 166.367 C 347.200 166.588,346.795 167.146,346.300 167.607 C 345.481 168.370,345.389 168.868,345.283 173.123 C 345.140 178.858,345.368 179.347,347.492 177.875 C 350.215 175.988,352.400 176.810,352.400 179.722 C 352.400 181.308,352.213 181.575,348.900 184.728 L 345.400 188.059 345.280 193.329 C 345.173 198.018,345.051 198.805,344.180 200.454 C 343.079 202.538,342.761 207.801,343.680 208.720 C 343.974 209.014,345.410 209.200,347.386 209.200 C 349.752 209.200,350.983 209.397,352.006 209.939 C 352.773 210.345,353.893 210.798,354.495 210.945 C 355.098 211.092,356.358 211.756,357.295 212.420 C 358.233 213.083,359.450 213.924,360.000 214.289 C 362.495 215.942,364.484 217.787,365.222 219.135 C 365.664 219.941,366.569 221.480,367.234 222.556 C 367.899 223.632,368.719 225.252,369.057 226.156 C 371.045 231.470,372.377 235.508,372.388 236.251 C 372.394 236.719,372.675 237.760,373.011 238.564 C 373.837 240.541,375.162 253.310,375.186 259.523 C 375.215 267.126,373.218 281.131,371.410 286.000 C 371.124 286.770,370.400 288.750,369.801 290.400 C 368.246 294.686,368.221 294.736,364.800 300.247 C 362.067 304.651,357.088 309.033,353.099 310.546 C 349.851 311.778,350.000 310.856,350.000 329.666 L 350.000 346.355 349.111 346.977 C 348.025 347.738,346.792 347.775,345.836 347.075 C 345.164 346.584,345.122 345.475,345.178 329.516 L 345.238 312.482 344.037 311.626 C 343.376 311.156,342.252 310.567,341.539 310.319 C 338.732 309.340,334.887 305.967,331.354 301.384 C 329.140 298.512,325.151 290.307,324.167 286.600 C 320.710 273.573,320.182 269.002,320.544 255.200 C 320.785 246.001,321.940 238.162,323.755 233.400 C 324.090 232.520,324.373 231.523,324.382 231.185 C 324.392 230.846,324.760 229.863,325.200 229.000 C 325.640 228.137,326.003 227.154,326.008 226.815 C 326.034 224.684,334.993 213.971,338.094 212.364 C 341.104 210.804,341.947 204.363,339.700 200.088 C 338.838 198.447,338.800 197.961,338.793 188.488 L 338.786 178.600 337.787 177.652 C 335.487 175.471,332.000 170.714,332.000 169.758 C 332.000 167.263,334.866 166.111,336.873 167.800 C 338.773 169.399,338.800 169.297,338.800 160.560 L 338.800 152.320 340.160 150.960 C 341.809 149.311,342.235 149.292,343.882 150.790 M114.400 154.856 C 111.014 156.412,109.072 158.934,106.588 165.000 C 103.428 172.715,104.458 192.574,108.239 196.831 C 108.548 197.179,108.800 197.650,108.800 197.879 C 108.800 198.640,112.069 202.415,113.262 203.032 C 113.907 203.366,114.787 204.215,115.216 204.919 C 116.149 206.449,116.227 206.117,115.400 204.138 C 114.942 203.043,114.800 200.999,114.800 195.518 L 114.800 188.334 111.400 184.800 C 107.292 180.530,107.006 178.948,110.055 177.371 C 111.236 176.761,111.347 176.777,112.712 177.748 C 114.741 179.192,114.799 179.033,114.806 172.076 C 114.813 165.272,114.861 165.061,116.561 164.415 C 118.745 163.584,120.561 165.136,121.025 168.228 L 121.291 170.000 123.072 170.000 C 127.468 170.000,127.743 172.464,123.800 176.525 L 121.200 179.203 121.200 183.001 C 121.200 186.964,121.273 187.184,122.257 186.200 C 123.305 185.152,126.200 185.420,127.171 186.654 C 128.459 188.292,128.199 188.975,125.331 191.474 C 120.893 195.342,121.200 194.826,121.200 198.423 C 121.200 201.117,121.036 201.940,120.200 203.437 C 118.796 205.951,118.881 205.948,121.811 203.375 C 125.483 200.151,128.367 195.523,129.024 191.800 C 129.180 190.920,129.586 189.660,129.928 189.000 C 130.716 187.478,131.107 174.448,130.456 171.400 C 127.555 157.811,121.514 151.587,114.400 154.856 M176.800 157.478 C 171.988 161.461,171.283 162.038,168.100 164.588 C 166.285 166.042,164.800 167.322,164.800 167.432 C 164.800 167.632,169.927 163.624,173.057 160.976 C 173.969 160.205,175.409 159.067,176.257 158.446 C 177.639 157.435,179.576 155.556,179.162 155.628 C 179.073 155.644,178.010 156.476,176.800 157.478 M296.924 155.877 C 297.260 156.421,300.400 158.955,300.400 158.682 C 300.400 158.580,299.553 157.803,298.519 156.955 C 297.484 156.107,296.766 155.622,296.924 155.877 M302.487 160.441 C 304.832 162.627,306.817 164.274,309.400 166.175 C 311.878 168.000,309.920 166.176,306.635 163.600 C 305.372 162.610,303.498 161.098,302.470 160.241 L 300.600 158.682 302.487 160.441 M374.158 166.920 C 371.602 168.731,369.869 171.471,368.925 175.191 C 368.617 176.406,368.197 178.030,367.992 178.800 C 366.135 185.775,368.882 197.384,373.434 201.800 C 374.568 202.900,375.595 204.070,375.716 204.400 C 375.885 204.859,375.944 204.827,375.968 204.267 C 375.986 203.864,375.103 202.633,374.007 201.531 C 371.773 199.285,369.780 195.509,369.398 192.800 C 369.259 191.810,368.869 190.133,368.531 189.073 C 366.472 182.605,370.368 169.665,375.103 167.250 C 378.117 165.712,382.733 167.688,383.846 170.992 C 383.992 171.428,384.429 172.238,384.816 172.792 C 385.204 173.347,385.629 174.790,385.762 176.000 C 385.895 177.210,386.265 178.920,386.584 179.800 C 388.534 185.173,385.382 197.418,380.914 201.822 C 379.971 202.752,379.200 203.696,379.200 203.921 C 379.200 206.310,385.325 197.402,386.297 193.600 C 387.414 189.233,387.565 188.139,387.583 184.305 C 387.639 171.787,380.441 162.466,374.158 166.920 M160.200 171.038 C 157.308 173.315,155.369 175.091,157.011 173.959 C 158.444 172.971,163.200 169.133,163.200 168.963 C 163.200 168.687,163.085 168.767,160.200 171.038 M314.800 170.547 C 315.570 171.382,316.560 172.255,317.000 172.487 C 317.440 172.719,317.710 172.825,317.600 172.722 C 315.042 170.343,313.528 169.167,314.800 170.547 M319.854 174.627 C 320.984 175.712,321.998 176.960,322.107 177.400 L 322.307 178.200 322.349 177.400 C 322.389 176.648,321.092 175.196,318.800 173.426 C 318.250 173.001,318.724 173.541,319.854 174.627 M154.575 175.700 L 153.400 177.000 154.700 175.825 C 155.912 174.730,156.184 174.400,155.875 174.400 C 155.806 174.400,155.221 174.985,154.575 175.700 M153.240 177.851 C 153.149 179.801,156.384 180.813,157.806 179.280 L 158.807 178.200 196.304 178.084 C 235.793 177.962,235.966 177.967,237.161 179.251 C 238.737 180.942,322.000 180.309,322.000 178.606 C 322.000 178.477,321.685 178.537,321.300 178.738 C 320.896 178.950,303.693 179.179,280.663 179.281 L 240.727 179.457 238.463 178.330 L 236.200 177.203 197.474 177.202 C 157.894 177.200,157.945 177.198,156.458 178.685 C 155.575 179.568,153.878 179.168,153.556 178.000 C 153.312 177.118,153.275 177.100,153.240 177.851 M238.496 190.311 L 237.193 191.400 237.196 209.540 C 237.200 225.561,237.277 227.841,237.860 229.070 C 238.722 230.886,240.002 231.715,241.401 231.364 C 243.528 230.830,243.600 230.143,243.600 210.366 L 243.600 192.306 242.047 190.753 C 240.209 188.915,240.172 188.911,238.496 190.311 M241.920 191.680 C 242.871 192.631,242.580 229.313,241.615 230.187 C 240.647 231.062,239.714 230.753,239.194 229.384 C 238.628 227.896,238.669 194.094,239.239 192.460 C 239.706 191.119,240.987 190.747,241.920 191.680 M266.465 194.399 L 265.152 195.598 265.276 203.432 C 265.390 210.646,265.461 211.311,266.176 211.833 C 267.103 212.510,296.945 212.675,298.000 212.009 C 298.612 211.623,299.156 197.438,298.636 195.427 C 298.095 193.335,297.077 193.200,281.857 193.200 L 267.778 193.200 266.465 194.399 M296.974 194.790 L 298.000 195.180 298.000 202.967 C 298.000 213.083,299.926 212.000,281.934 212.000 L 267.645 212.000 267.023 211.111 C 266.074 209.756,266.107 196.187,267.062 195.131 C 267.818 194.296,294.862 193.987,296.974 194.790 M194.507 196.400 C 194.086 196.892,193.327 197.200,192.537 197.200 C 190.049 197.200,187.137 199.385,184.590 203.165 L 183.400 204.931 183.400 212.565 C 183.400 221.863,183.620 222.600,186.400 222.600 C 187.882 222.600,188.210 222.463,188.309 221.800 C 188.419 221.069,188.392 221.060,187.995 221.700 C 187.523 222.461,186.155 222.612,185.200 222.009 C 183.969 221.233,184.124 209.031,185.404 205.992 C 188.557 198.500,197.776 195.053,203.589 199.192 C 204.213 199.636,204.885 200.000,205.083 200.000 C 205.807 200.000,207.925 202.665,209.146 205.112 L 210.400 207.624 210.400 215.638 C 210.400 225.493,210.025 226.516,207.267 224.195 C 206.208 223.304,206.095 223.278,206.276 223.969 C 206.932 226.479,209.795 226.659,210.921 224.261 C 212.128 221.689,211.780 205.348,210.500 204.499 C 209.943 204.130,209.600 203.498,209.600 202.840 C 209.600 201.431,205.972 198.153,203.569 197.390 C 203.066 197.231,202.103 196.763,201.428 196.352 C 199.651 195.268,195.451 195.298,194.507 196.400 M273.300 197.494 C 274.345 197.576,276.055 197.576,277.100 197.494 C 278.145 197.412,277.290 197.344,275.200 197.344 C 273.110 197.344,272.255 197.412,273.300 197.494 M284.576 197.830 C 284.149 198.176,284.070 198.311,284.400 198.130 C 284.730 197.948,286.800 197.698,289.000 197.572 L 293.000 197.345 289.176 197.272 C 286.213 197.216,285.178 197.342,284.576 197.830 M279.700 198.032 C 280.085 198.256,280.414 198.746,280.432 199.120 C 280.452 199.558,280.537 199.617,280.669 199.287 C 280.909 198.691,280.111 197.594,279.451 197.612 C 279.203 197.619,279.315 197.808,279.700 198.032 M283.685 203.038 C 283.574 208.844,283.529 208.800,289.483 208.800 C 293.223 208.800,293.983 208.692,294.432 208.100 C 294.882 207.504,294.878 207.475,294.401 207.900 C 293.600 208.614,285.059 208.594,284.463 207.876 C 284.224 207.588,283.970 205.383,283.899 202.976 L 283.770 198.600 283.685 203.038 M269.344 202.800 C 269.344 204.890,269.412 205.745,269.494 204.700 C 269.576 203.655,269.576 201.945,269.494 200.900 C 269.412 199.855,269.344 200.710,269.344 202.800 M118.963 212.400 C 118.963 216.030,119.023 217.515,119.098 215.700 C 119.172 213.885,119.172 210.915,119.098 209.100 C 119.023 207.285,118.963 208.770,118.963 212.400 M273.100 208.695 C 274.255 208.776,276.145 208.776,277.300 208.695 C 278.455 208.614,277.510 208.548,275.200 208.548 C 272.890 208.548,271.945 208.614,273.100 208.695 M97.422 209.817 C 95.538 210.465,94.965 211.017,93.637 213.468 C 92.703 215.190,92.422 215.411,90.814 215.684 C 86.755 216.374,84.859 222.241,87.758 225.139 L 88.819 226.200 98.383 226.200 L 107.948 226.200 109.142 225.056 C 112.050 222.269,110.492 217.151,106.260 215.592 C 104.955 215.111,104.378 214.570,103.561 213.063 C 102.622 211.332,101.311 210.163,99.581 209.518 C 99.241 209.391,98.269 209.526,97.422 209.817 M115.450 220.450 C 115.069 222.357,115.134 222.734,116.000 223.600 C 118.010 225.610,120.534 223.398,119.670 220.385 L 119.272 219.000 119.236 220.526 C 119.168 223.423,118.158 224.264,116.557 222.760 C 115.854 222.099,115.710 221.630,115.884 220.560 C 116.161 218.853,115.788 218.759,115.450 220.450 M352.974 345.158 C 353.240 345.588,352.081 346.097,351.564 345.778 C 351.364 345.654,351.200 345.383,351.200 345.176 C 351.200 344.697,352.680 344.682,352.974 345.158 M365.400 348.800 C 365.536 349.020,365.277 349.200,364.824 349.200 C 364.371 349.200,364.000 349.020,364.000 348.800 C 364.000 348.580,364.259 348.400,364.576 348.400 C 364.893 348.400,365.264 348.580,365.400 348.800 M396.400 359.224 C 396.400 359.431,396.130 359.600,395.800 359.600 C 395.181 359.600,395.005 359.128,395.456 358.678 C 395.775 358.358,396.400 358.719,396.400 359.224 " stroke="none" fill="#1f8c79" fill-rule="evenodd"></path><path id="path3" d="M1.900 130.257 L 0.000 130.917 0.000 188.458 C 0.000 232.557,0.111 246.000,0.474 246.000 C 0.735 246.000,1.367 246.394,1.880 246.875 C 3.722 248.605,3.791 248.048,3.913 230.546 C 4.034 213.206,4.129 212.400,6.052 212.400 C 7.950 212.400,8.397 214.392,8.399 222.857 C 8.400 232.553,8.351 232.500,12.830 227.615 C 16.142 224.004,17.394 223.247,18.808 224.004 C 20.791 225.066,20.223 225.901,11.186 235.197 C 10.848 235.544,10.080 236.473,9.480 237.260 L 8.388 238.692 8.494 250.440 C 8.620 264.443,8.173 263.784,14.223 258.886 C 19.263 254.807,19.762 254.552,21.056 255.400 C 22.479 256.332,22.273 257.733,20.500 259.175 C 15.673 263.101,9.860 267.600,9.614 267.600 C 8.618 267.600,8.400 270.214,8.400 282.170 C 8.400 292.756,8.301 294.940,7.760 296.235 C 7.197 297.581,7.155 299.235,7.410 309.796 C 7.709 322.196,7.546 325.092,6.529 325.483 C 4.538 326.247,4.151 321.012,4.984 304.552 C 5.268 298.944,5.225 297.932,4.655 296.790 C 4.075 295.628,4.000 293.242,4.000 276.036 C 4.000 264.475,3.840 256.038,3.606 255.222 C 3.230 253.911,1.168 251.600,0.375 251.600 C 0.146 251.600,0.000 260.240,0.000 273.800 L 0.000 296.000 1.111 296.000 C 4.028 296.000,5.356 304.278,3.373 310.099 C 2.429 312.870,2.688 324.862,3.714 325.887 C 4.582 326.753,7.570 326.855,8.539 326.051 C 9.499 325.254,9.525 310.989,8.570 309.141 C 7.799 307.651,7.878 297.559,8.667 296.772 C 8.924 296.516,10.544 296.153,12.267 295.967 C 13.990 295.780,16.120 295.359,17.000 295.031 C 17.880 294.703,18.982 294.427,19.449 294.418 C 24.289 294.317,36.632 285.881,41.925 279.057 C 45.324 274.674,49.600 266.389,49.600 264.187 C 49.600 263.683,49.958 262.130,50.395 260.736 C 51.305 257.833,51.567 246.213,50.770 244.126 C 50.533 243.507,50.161 242.010,49.943 240.800 C 49.431 237.956,47.719 233.599,46.755 232.684 C 46.340 232.291,46.000 231.771,46.000 231.529 C 46.000 230.786,41.688 224.561,39.564 222.236 C 37.327 219.789,36.789 218.040,37.770 216.400 C 39.323 213.804,40.695 210.334,40.986 208.267 C 41.136 207.203,41.516 205.606,41.830 204.716 C 42.685 202.291,42.568 196.631,41.600 193.600 C 41.160 192.223,40.800 190.658,40.800 190.123 C 40.800 189.224,39.625 186.279,38.117 183.400 C 36.622 180.544,34.551 177.793,31.054 174.017 L 27.315 169.979 27.032 164.090 C 26.846 160.206,26.563 157.912,26.201 157.354 C 25.899 156.888,25.524 155.358,25.367 153.954 C 25.211 152.549,24.749 150.773,24.341 150.006 C 23.934 149.239,23.600 148.242,23.600 147.791 C 23.600 147.339,23.260 146.302,22.844 145.486 C 22.428 144.670,21.966 143.521,21.819 142.933 C 21.671 142.344,21.202 141.420,20.775 140.878 C 20.349 140.336,20.000 139.745,20.000 139.566 C 20.000 138.269,15.404 132.867,12.800 131.103 C 10.522 129.560,5.118 129.141,1.900 130.257 M230.500 141.612 C 230.005 141.811,229.600 142.196,229.600 142.467 C 229.600 142.850,229.707 142.853,230.080 142.480 C 230.728 141.832,231.997 141.874,232.769 142.569 C 233.116 142.882,233.940 143.246,234.600 143.378 C 235.683 143.595,235.709 143.578,234.861 143.208 C 234.345 142.982,233.466 142.438,232.907 141.999 C 231.776 141.108,231.760 141.106,230.500 141.612 M255.500 141.635 C 255.115 141.858,254.800 142.247,254.800 142.500 C 254.800 142.836,254.930 142.830,255.280 142.480 C 255.922 141.838,257.191 141.872,257.969 142.553 C 258.316 142.857,259.050 143.238,259.600 143.399 C 260.393 143.632,260.298 143.484,259.141 142.686 C 257.266 141.393,256.368 141.134,255.500 141.635 M277.300 141.634 C 276.805 141.821,276.414 142.205,276.432 142.487 C 276.456 142.889,276.507 142.891,276.665 142.500 C 277.247 141.056,281.972 143.924,287.800 149.259 C 288.563 149.958,291.028 151.963,303.200 161.788 C 310.708 167.848,314.861 171.231,315.800 172.050 C 316.240 172.434,317.573 173.525,318.761 174.474 C 324.280 178.881,326.946 178.583,280.815 178.708 L 240.871 178.815 238.976 177.808 C 237.934 177.253,236.703 176.805,236.240 176.812 C 235.743 176.819,236.494 177.362,238.080 178.141 L 240.760 179.457 280.680 179.281 C 321.286 179.102,322.000 179.071,322.000 177.524 C 322.000 176.747,318.250 172.809,317.504 172.802 C 317.342 172.801,316.172 171.901,314.904 170.802 C 313.637 169.703,312.280 168.528,311.889 168.191 C 311.498 167.854,310.328 166.931,309.289 166.140 C 307.368 164.678,306.068 163.613,302.282 160.400 C 301.115 159.410,299.119 157.790,297.846 156.800 C 296.573 155.810,294.962 154.502,294.266 153.893 C 293.570 153.283,292.218 152.203,291.262 151.493 C 289.778 150.388,286.496 147.686,284.400 145.841 C 283.634 145.167,279.128 141.806,278.600 141.515 C 278.380 141.393,277.795 141.447,277.300 141.634 M193.327 144.478 C 191.387 146.060,189.591 147.545,189.335 147.778 C 189.080 148.010,187.843 149.010,186.587 150.000 C 185.331 150.990,182.683 153.150,180.701 154.800 C 178.720 156.450,176.607 158.160,176.007 158.600 C 175.407 159.040,174.124 160.072,173.158 160.893 C 172.191 161.714,169.851 163.611,167.957 165.107 C 166.064 166.604,164.239 168.104,163.903 168.440 C 163.566 168.777,161.800 170.210,159.979 171.626 C 154.339 176.010,153.545 176.808,153.680 177.965 C 153.825 179.217,155.539 179.604,156.534 178.609 C 156.883 178.260,157.760 177.701,158.484 177.366 L 159.800 176.758 158.496 176.970 C 157.779 177.086,156.671 177.567,156.034 178.038 C 155.397 178.509,154.679 178.772,154.438 178.624 C 153.542 178.069,154.053 176.956,155.827 175.598 C 156.832 174.829,158.504 173.480,159.542 172.600 C 161.415 171.011,165.483 167.701,177.000 158.393 C 180.300 155.726,183.182 153.331,183.405 153.072 C 183.627 152.812,184.437 152.158,185.205 151.617 C 185.972 151.077,188.968 148.692,191.861 146.317 C 197.431 141.747,197.885 141.537,199.491 142.800 C 200.050 143.240,200.799 143.589,201.154 143.575 C 201.630 143.556,201.586 143.462,200.986 143.219 C 200.538 143.038,199.931 142.599,199.637 142.245 C 198.544 140.927,197.014 141.468,193.327 144.478 M340.160 150.960 L 338.800 152.320 338.800 160.560 C 338.800 169.297,338.773 169.399,336.873 167.800 C 334.866 166.111,332.000 167.263,332.000 169.758 C 332.000 170.714,335.487 175.471,337.787 177.652 L 338.786 178.600 338.793 188.488 C 338.800 197.961,338.838 198.447,339.700 200.088 C 341.947 204.363,341.104 210.804,338.094 212.364 C 334.993 213.971,326.034 224.684,326.008 226.815 C 326.003 227.154,325.640 228.137,325.200 229.000 C 324.760 229.863,324.392 230.846,324.382 231.185 C 324.373 231.523,324.090 232.520,323.755 233.400 C 321.940 238.162,320.785 246.001,320.544 255.200 C 320.182 269.002,320.710 273.573,324.167 286.600 C 325.151 290.307,329.140 298.512,331.354 301.384 C 334.887 305.967,338.732 309.340,341.539 310.319 C 342.252 310.567,343.376 311.156,344.037 311.626 L 345.238 312.482 345.178 329.516 C 345.122 345.475,345.164 346.584,345.836 347.075 C 346.792 347.775,348.025 347.738,349.111 346.977 L 350.000 346.355 350.000 329.666 C 350.000 310.856,349.851 311.778,353.099 310.546 C 357.088 309.033,362.067 304.651,364.800 300.247 C 368.221 294.736,368.246 294.686,369.801 290.400 C 370.400 288.750,371.124 286.770,371.410 286.000 C 373.218 281.131,375.215 267.126,375.186 259.523 C 375.162 253.310,373.837 240.541,373.011 238.564 C 372.675 237.760,372.394 236.719,372.388 236.251 C 372.377 235.508,371.045 231.470,369.057 226.156 C 368.719 225.252,367.899 223.632,367.234 222.556 C 366.569 221.480,365.664 219.941,365.222 219.135 C 364.484 217.787,362.495 215.942,360.000 214.289 C 359.450 213.924,358.233 213.083,357.295 212.420 C 356.358 211.756,355.098 211.092,354.495 210.945 C 353.893 210.798,352.773 210.345,352.006 209.939 C 350.983 209.397,349.752 209.200,347.386 209.200 C 345.410 209.200,343.974 209.014,343.680 208.720 C 342.761 207.801,343.079 202.538,344.180 200.454 C 345.051 198.805,345.173 198.018,345.280 193.329 L 345.400 188.059 348.900 184.728 C 352.213 181.575,352.400 181.308,352.400 179.722 C 352.400 176.810,350.215 175.988,347.492 177.875 C 345.368 179.347,345.140 178.858,345.283 173.123 C 345.389 168.868,345.481 168.370,346.300 167.607 C 346.795 167.146,347.200 166.588,347.200 166.367 C 347.200 166.146,347.989 165.118,348.953 164.083 C 352.183 160.613,351.662 156.706,348.063 157.412 C 345.298 157.953,345.410 158.056,345.282 154.878 C 345.094 150.224,342.716 148.404,340.160 150.960 M342.800 151.991 C 343.263 152.283,343.431 153.425,343.534 156.985 C 343.608 159.523,343.750 161.600,343.848 161.600 C 344.262 161.600,346.240 160.160,346.723 159.507 C 347.364 158.640,349.426 158.570,349.746 159.403 C 350.065 160.235,349.469 161.643,348.392 162.600 C 347.897 163.040,346.616 164.552,345.546 165.960 L 343.600 168.519 343.600 175.060 C 343.600 182.506,343.708 182.698,346.611 180.391 C 348.437 178.940,349.799 178.535,350.605 179.204 C 351.536 179.977,351.424 180.151,347.443 184.126 L 343.687 187.877 343.445 194.238 C 342.923 207.975,342.739 209.698,341.887 208.848 C 341.214 208.177,340.825 202.946,340.456 189.600 C 340.282 183.330,340.109 178.173,340.070 178.141 C 339.314 177.503,333.600 170.081,333.600 169.737 C 333.600 168.222,336.646 168.895,337.807 170.666 C 338.507 171.736,339.799 171.901,340.157 170.967 C 340.291 170.619,340.400 166.519,340.400 161.856 C 340.400 152.253,340.775 150.713,342.800 151.991 M116.411 164.445 C 114.882 165.056,114.813 165.385,114.806 172.076 C 114.799 179.033,114.741 179.192,112.712 177.748 C 111.347 176.777,111.236 176.761,110.055 177.371 C 107.006 178.948,107.292 180.530,111.400 184.800 L 114.800 188.334 114.800 195.518 C 114.800 201.106,114.938 203.032,115.421 204.188 C 115.921 205.386,116.029 207.254,115.975 213.855 C 115.916 221.176,115.983 222.119,116.616 222.818 C 118.699 225.120,119.130 223.520,118.892 214.363 L 118.685 206.444 119.943 203.988 C 121.040 201.844,121.200 201.127,121.200 198.366 C 121.200 194.835,120.898 195.338,125.331 191.474 C 128.199 188.975,128.459 188.292,127.171 186.654 C 126.200 185.420,123.305 185.152,122.257 186.200 C 121.273 187.184,121.200 186.964,121.200 183.001 L 121.200 179.203 123.800 176.525 C 127.743 172.464,127.468 170.000,123.072 170.000 L 121.291 170.000 121.011 168.135 C 120.554 165.084,118.646 163.554,116.411 164.445 M118.786 166.374 C 119.014 166.799,119.200 168.509,119.200 170.174 C 119.200 173.629,119.414 173.794,121.796 172.177 C 124.965 170.027,125.439 172.531,122.468 175.724 C 119.193 179.243,119.200 179.224,119.200 184.489 C 119.200 189.940,119.304 190.050,122.536 188.000 C 125.492 186.125,127.709 187.661,125.089 189.769 C 118.879 194.767,119.342 193.982,118.989 200.108 C 118.821 203.018,118.650 209.134,118.610 213.699 C 118.532 222.401,118.501 222.613,117.330 222.242 C 116.657 222.028,116.595 221.361,116.533 213.705 C 116.496 209.137,116.316 201.320,116.133 196.332 L 115.800 187.265 112.900 184.275 C 110.007 181.292,109.474 180.135,110.574 179.221 C 111.268 178.645,112.623 179.223,113.683 180.547 C 115.321 182.592,115.781 181.181,116.000 173.442 C 116.161 167.745,116.317 166.295,116.800 165.991 C 117.723 165.409,118.332 165.526,118.786 166.374 M375.016 167.270 C 370.346 169.732,366.495 182.678,368.531 189.073 C 368.869 190.133,369.259 191.810,369.398 192.800 C 369.783 195.533,371.780 199.291,374.069 201.593 L 376.123 203.658 375.874 210.279 C 375.598 217.619,375.764 218.400,377.600 218.400 C 379.457 218.400,379.627 217.603,379.336 210.246 L 379.076 203.634 380.852 201.884 C 385.380 197.419,388.549 185.213,386.584 179.800 C 386.265 178.920,385.895 177.210,385.762 176.000 C 385.629 174.790,385.204 173.347,384.816 172.792 C 384.429 172.238,383.992 171.428,383.846 170.992 C 382.727 167.669,378.022 165.686,375.016 167.270 M379.357 174.633 C 379.491 174.981,379.600 175.870,379.600 176.609 C 379.600 178.184,380.074 178.603,381.183 178.009 C 382.119 177.508,383.600 178.684,383.600 179.928 C 383.600 180.545,382.003 182.739,380.104 184.729 C 379.528 185.333,379.402 190.230,379.955 190.572 C 380.150 190.693,380.532 190.523,380.804 190.196 C 381.557 189.288,383.881 189.430,384.408 190.415 C 385.074 191.659,384.575 192.569,382.011 194.790 L 379.662 196.825 379.390 199.913 C 379.240 201.611,379.073 205.880,379.020 209.400 C 378.892 217.843,379.009 217.200,377.600 217.200 C 376.932 217.200,376.379 216.978,376.353 216.700 C 376.326 216.425,376.256 213.230,376.197 209.600 C 376.137 205.970,375.933 200.363,375.744 197.139 L 375.400 191.279 373.100 188.869 C 370.500 186.145,370.149 184.825,371.823 184.062 C 372.566 183.724,373.067 183.715,373.654 184.029 C 375.343 184.933,375.600 184.335,375.600 179.493 C 375.600 176.501,375.763 174.797,376.080 174.480 C 376.790 173.770,379.067 173.876,379.357 174.633 M239.239 192.460 C 238.669 194.094,238.628 227.896,239.194 229.384 C 239.714 230.753,240.647 231.062,241.615 230.187 C 242.580 229.313,242.871 192.631,241.920 191.680 C 240.987 190.747,239.706 191.119,239.239 192.460 M241.504 210.324 C 241.609 228.506,241.460 230.819,240.263 229.623 C 239.747 229.108,239.346 197.883,239.806 194.077 C 240.011 192.384,240.199 191.980,240.732 192.082 C 241.343 192.200,241.409 193.768,241.504 210.324 M267.062 195.131 C 266.107 196.187,266.074 209.756,267.023 211.111 L 267.645 212.000 281.934 212.000 C 299.926 212.000,298.000 213.083,298.000 202.967 L 298.000 195.180 296.974 194.790 C 294.862 193.987,267.818 194.296,267.062 195.131 M297.120 195.680 C 297.939 196.499,297.779 209.540,296.938 210.469 C 296.320 211.151,295.322 211.200,281.985 211.200 L 267.693 211.200 267.452 210.300 C 267.122 209.068,267.135 195.798,267.467 195.467 C 267.981 194.952,296.598 195.158,297.120 195.680 M269.782 197.782 C 268.441 199.123,268.285 206.476,269.565 208.056 C 270.496 209.206,279.249 209.521,280.539 208.451 C 281.570 207.595,281.511 198.406,280.469 197.462 C 279.150 196.269,271.052 196.512,269.782 197.782 M283.747 197.817 C 282.761 198.803,282.734 198.968,282.865 203.253 C 283.045 209.142,283.146 209.233,289.344 209.115 L 293.800 209.030 289.416 208.901 C 283.564 208.728,283.600 208.764,283.600 203.138 C 283.600 197.231,283.749 197.079,289.375 197.265 C 294.895 197.447,294.800 197.343,294.800 203.169 C 294.800 206.356,294.641 208.008,294.300 208.370 C 293.896 208.798,293.916 208.865,294.400 208.717 C 295.354 208.427,295.487 198.580,294.550 197.545 C 293.370 196.241,285.115 196.449,283.747 197.817 M280.140 197.949 C 281.287 198.903,281.098 207.346,279.911 208.177 C 278.510 209.158,271.605 209.056,270.344 208.036 C 268.381 206.447,268.824 198.475,270.926 197.585 C 272.270 197.015,279.353 197.295,280.140 197.949 M193.754 198.120 C 189.981 199.005,187.268 201.563,185.404 205.992 C 184.124 209.031,183.969 221.233,185.200 222.009 C 186.203 222.642,187.547 222.446,188.000 221.600 C 188.290 221.058,188.295 220.800,188.014 220.800 C 187.786 220.800,187.600 220.980,187.600 221.200 C 187.600 221.857,185.706 221.652,185.443 220.967 C 184.708 219.051,185.209 208.586,186.147 206.286 C 190.376 195.903,203.635 195.497,208.538 205.600 L 209.800 208.200 209.800 216.000 L 209.800 223.800 208.867 223.932 C 208.354 224.005,207.589 223.752,207.167 223.370 C 206.745 222.988,206.400 222.871,206.400 223.109 C 206.400 223.663,208.341 225.200,209.040 225.200 C 210.165 225.200,210.400 223.550,210.400 215.648 L 210.400 207.644 209.031 204.922 C 207.360 201.599,206.148 200.441,202.315 198.504 C 200.817 197.748,196.220 197.541,193.754 198.120 M349.018 234.182 C 349.997 235.160,350.000 235.191,350.000 243.358 C 350.000 248.795,350.145 251.643,350.432 251.820 C 350.671 251.967,352.615 250.367,354.776 248.243 C 358.776 244.313,359.311 244.008,360.571 244.929 C 362.116 246.059,361.064 247.818,355.347 253.669 L 350.000 259.141 350.000 271.147 C 350.000 284.706,349.921 284.411,352.922 282.016 C 361.120 275.475,363.241 274.563,363.522 277.456 C 363.631 278.579,363.356 278.948,360.922 280.937 C 359.425 282.161,357.498 283.755,356.641 284.481 C 355.783 285.206,354.613 286.094,354.041 286.453 C 353.468 286.813,352.325 287.737,351.500 288.507 L 350.000 289.908 350.000 299.690 C 350.000 307.209,349.862 309.927,349.404 311.436 C 348.919 313.036,348.808 316.416,348.804 329.673 C 348.800 345.853,348.795 345.948,347.960 346.213 C 346.482 346.682,346.421 346.068,346.214 328.789 C 345.867 299.768,345.409 275.675,345.200 275.451 C 345.090 275.333,342.255 272.465,338.900 269.077 C 332.612 262.727,331.527 260.974,333.433 260.243 C 334.793 259.721,335.454 260.141,339.656 264.200 C 346.083 270.409,345.600 271.453,345.600 251.347 C 345.600 232.747,345.929 231.093,349.018 234.182 " stroke="none" fill="#146454" fill-rule="evenodd"></path><path id="path4" d="M194.600 144.046 C 193.280 145.147,190.400 147.479,188.200 149.229 C 186.000 150.978,183.930 152.658,183.600 152.962 C 183.270 153.266,180.300 155.703,177.000 158.378 C 173.700 161.053,168.846 164.988,166.214 167.121 C 163.582 169.254,160.579 171.720,159.542 172.600 C 158.504 173.480,156.832 174.829,155.827 175.598 C 154.053 176.956,153.542 178.069,154.438 178.624 C 154.679 178.772,155.381 178.521,155.998 178.065 C 156.615 177.609,157.558 177.125,158.094 176.991 C 158.875 176.795,164.279 172.657,169.406 168.330 C 170.139 167.711,188.044 153.212,194.677 147.866 C 198.127 145.085,197.328 144.839,204.683 150.946 C 207.633 153.396,210.790 155.893,211.698 156.496 C 212.605 157.099,213.449 157.752,213.574 157.947 C 213.698 158.143,215.510 159.669,217.600 161.340 C 219.690 163.010,221.670 164.622,222.000 164.922 C 222.330 165.221,224.580 167.058,227.000 169.004 C 229.420 170.950,232.480 173.474,233.800 174.614 C 235.120 175.754,236.650 176.822,237.200 176.989 C 237.750 177.155,238.767 177.634,239.459 178.053 C 241.066 179.025,320.300 179.060,321.271 178.089 C 321.972 177.388,321.426 176.602,318.761 174.474 C 317.573 173.525,316.240 172.434,315.800 172.050 C 314.861 171.231,310.708 167.848,303.200 161.788 C 291.028 151.963,288.563 149.958,287.800 149.259 C 281.897 143.855,277.248 141.055,276.672 142.556 C 276.474 143.073,280.722 147.272,282.343 148.161 C 282.704 148.359,283.850 149.259,284.888 150.161 C 285.927 151.062,287.727 152.568,288.888 153.508 C 290.050 154.447,291.756 155.855,292.681 156.637 C 293.605 157.419,294.986 158.540,295.750 159.129 C 297.758 160.679,305.659 167.101,306.600 167.949 C 307.040 168.346,308.300 169.351,309.400 170.183 C 312.000 172.149,314.800 174.726,314.800 175.153 C 314.800 175.584,301.662 176.149,300.600 175.764 C 299.681 175.430,292.350 169.700,286.426 164.686 C 286.111 164.419,284.744 163.300,283.388 162.200 C 282.033 161.100,279.501 159.037,277.762 157.615 C 266.661 148.542,260.411 143.659,259.569 143.401 C 259.036 143.239,258.300 142.842,257.933 142.521 C 257.080 141.772,255.447 141.994,255.278 142.882 C 255.207 143.257,255.546 143.887,256.031 144.282 C 256.517 144.677,257.833 145.759,258.957 146.687 C 260.081 147.615,261.948 149.145,263.107 150.087 C 264.266 151.029,266.001 152.479,266.963 153.310 C 267.924 154.140,269.262 155.220,269.936 155.710 C 271.555 156.886,279.980 163.725,281.000 164.691 C 281.440 165.108,282.520 165.972,283.400 166.610 C 284.280 167.249,285.733 168.408,286.630 169.186 C 287.526 169.964,289.033 171.230,289.978 172.000 C 290.923 172.770,292.159 173.780,292.726 174.244 L 293.755 175.089 292.863 175.566 C 291.422 176.338,274.884 175.997,274.267 175.184 C 274.010 174.845,273.080 174.041,272.200 173.398 C 271.320 172.755,269.857 171.592,268.949 170.814 C 268.041 170.036,266.179 168.500,264.811 167.400 C 263.443 166.300,261.434 164.635,260.348 163.700 C 259.262 162.765,258.242 162.000,258.083 162.000 C 257.923 162.000,257.074 161.317,256.196 160.483 C 255.318 159.649,252.890 157.636,250.800 156.012 C 248.710 154.387,246.375 152.459,245.612 151.729 C 244.848 150.998,244.085 150.400,243.916 150.400 C 243.747 150.400,242.572 149.507,241.304 148.415 C 240.037 147.323,238.280 145.815,237.400 145.064 C 236.520 144.312,235.227 143.574,234.528 143.423 C 233.828 143.272,233.041 142.890,232.779 142.574 C 232.128 141.790,230.433 141.849,230.119 142.667 C 229.826 143.430,230.951 144.469,239.000 150.863 C 240.980 152.437,242.870 153.969,243.200 154.268 C 243.826 154.836,255.150 164.011,258.101 166.342 C 259.035 167.080,260.556 168.340,261.480 169.142 C 262.404 169.944,264.435 171.576,265.992 172.768 C 269.986 175.826,270.143 175.782,254.880 175.908 L 241.800 176.017 239.727 174.508 C 238.586 173.679,236.156 171.730,234.327 170.178 C 232.497 168.626,228.480 165.349,225.400 162.897 C 222.320 160.444,219.515 158.189,219.167 157.885 C 218.818 157.582,217.108 156.178,215.367 154.766 C 210.284 150.646,209.204 149.765,205.341 146.599 C 203.329 144.950,201.419 143.600,201.095 143.600 C 200.772 143.600,200.050 143.240,199.491 142.800 C 198.006 141.632,197.269 141.820,194.600 144.046 M341.023 152.489 C 340.507 153.226,340.400 154.830,340.400 161.856 C 340.400 166.519,340.291 170.619,340.157 170.967 C 339.799 171.901,338.507 171.736,337.807 170.666 C 336.646 168.895,333.600 168.222,333.600 169.737 C 333.600 170.081,339.314 177.503,340.070 178.141 C 340.109 178.173,340.282 183.330,340.456 189.600 C 340.825 202.946,341.214 208.177,341.887 208.848 C 342.739 209.698,342.923 207.975,343.445 194.238 L 343.687 187.877 347.443 184.126 C 351.424 180.151,351.536 179.977,350.605 179.204 C 349.799 178.535,348.437 178.940,346.611 180.391 C 343.708 182.698,343.600 182.506,343.600 175.060 L 343.600 168.519 345.546 165.960 C 346.616 164.552,347.897 163.040,348.392 162.600 C 349.469 161.643,350.065 160.235,349.746 159.403 C 349.426 158.570,347.364 158.640,346.723 159.507 C 346.240 160.160,344.262 161.600,343.848 161.600 C 343.750 161.600,343.608 159.523,343.534 156.985 C 343.431 153.425,343.263 152.283,342.800 151.991 C 341.929 151.441,341.715 151.501,341.023 152.489 M116.800 165.991 C 116.317 166.295,116.161 167.745,116.000 173.442 C 115.781 181.181,115.321 182.592,113.683 180.547 C 112.623 179.223,111.268 178.645,110.574 179.221 C 109.474 180.135,110.007 181.292,112.900 184.275 L 115.800 187.265 116.133 196.332 C 116.316 201.320,116.496 209.137,116.533 213.705 C 116.595 221.361,116.657 222.028,117.330 222.242 C 118.501 222.613,118.532 222.401,118.610 213.699 C 118.650 209.134,118.821 203.018,118.989 200.108 C 119.342 193.982,118.879 194.767,125.089 189.769 C 127.709 187.661,125.492 186.125,122.536 188.000 C 119.304 190.050,119.200 189.940,119.200 184.489 C 119.200 179.224,119.193 179.243,122.468 175.724 C 125.439 172.531,124.965 170.027,121.796 172.177 C 119.414 173.794,119.200 173.629,119.200 170.174 C 119.200 166.119,118.508 164.913,116.800 165.991 M376.080 174.480 C 375.763 174.797,375.600 176.501,375.600 179.493 C 375.600 184.335,375.343 184.933,373.654 184.029 C 373.067 183.715,372.566 183.724,371.823 184.062 C 370.149 184.825,370.500 186.145,373.100 188.869 L 375.400 191.279 375.744 197.139 C 375.933 200.363,376.137 205.970,376.197 209.600 C 376.256 213.230,376.326 216.425,376.353 216.700 C 376.379 216.978,376.932 217.200,377.600 217.200 C 379.009 217.200,378.892 217.843,379.020 209.400 C 379.073 205.880,379.240 201.611,379.390 199.913 L 379.662 196.825 382.011 194.790 C 384.575 192.569,385.074 191.659,384.408 190.415 C 383.881 189.430,381.557 189.288,380.804 190.196 C 380.532 190.523,380.150 190.693,379.955 190.572 C 379.402 190.230,379.528 185.333,380.104 184.729 C 382.003 182.739,383.600 180.545,383.600 179.928 C 383.600 178.684,382.119 177.508,381.183 178.009 C 380.074 178.603,379.600 178.184,379.600 176.609 C 379.600 174.129,377.625 172.935,376.080 174.480 M239.806 194.077 C 239.346 197.883,239.747 229.108,240.263 229.623 C 241.460 230.819,241.609 228.506,241.504 210.324 C 241.409 193.768,241.343 192.200,240.732 192.082 C 240.199 191.980,240.011 192.384,239.806 194.077 M267.467 195.467 C 267.135 195.798,267.122 209.068,267.452 210.300 L 267.693 211.200 281.985 211.200 C 295.322 211.200,296.320 211.151,296.938 210.469 C 297.779 209.540,297.939 196.499,297.120 195.680 C 296.598 195.158,267.981 194.952,267.467 195.467 M280.469 197.462 C 281.511 198.406,281.570 207.595,280.539 208.451 C 279.249 209.521,270.496 209.206,269.565 208.056 C 268.285 206.476,268.441 199.123,269.782 197.782 C 271.052 196.512,279.150 196.269,280.469 197.462 M294.469 197.462 C 295.105 198.038,295.200 198.793,295.200 203.272 L 295.200 208.420 294.174 208.810 C 292.200 209.560,285.009 209.297,283.944 208.436 C 282.413 207.198,282.266 199.297,283.747 197.817 C 285.050 196.513,293.125 196.246,294.469 197.462 M193.800 198.748 C 187.985 200.261,185.205 205.344,185.202 214.467 C 185.200 221.051,185.307 221.600,186.600 221.600 C 187.891 221.600,188.000 221.050,188.000 214.511 C 188.000 204.420,192.103 199.944,199.834 201.602 C 205.241 202.761,206.800 205.926,206.800 215.744 C 206.800 223.660,206.939 224.206,208.878 223.931 L 209.800 223.800 209.800 216.000 L 209.800 208.200 208.538 205.600 C 205.774 199.904,199.884 197.166,193.800 198.748 M4.659 213.366 C 4.113 214.199,4.011 216.561,3.913 230.546 C 3.791 248.048,3.722 248.605,1.880 246.875 C 0.318 245.407,0.000 245.733,0.000 248.800 C 0.000 250.340,0.169 251.600,0.375 251.600 C 1.168 251.600,3.230 253.911,3.606 255.222 C 3.840 256.038,4.000 264.475,4.000 276.036 C 4.000 293.242,4.075 295.628,4.655 296.790 C 5.225 297.932,5.268 298.944,4.984 304.552 C 4.151 321.012,4.538 326.247,6.529 325.483 C 7.546 325.092,7.709 322.196,7.410 309.796 C 7.155 299.235,7.197 297.581,7.760 296.235 C 8.301 294.940,8.400 292.756,8.400 282.170 C 8.400 270.214,8.618 267.600,9.614 267.600 C 9.860 267.600,15.673 263.101,20.500 259.175 C 22.273 257.733,22.479 256.332,21.056 255.400 C 19.762 254.552,19.263 254.807,14.223 258.886 C 8.173 263.784,8.620 264.443,8.494 250.440 L 8.388 238.692 9.480 237.260 C 10.080 236.473,10.848 235.544,11.186 235.197 C 20.223 225.901,20.791 225.066,18.808 224.004 C 17.394 223.247,16.142 224.004,12.830 227.615 C 8.351 232.500,8.400 232.553,8.399 222.857 C 8.397 215.730,8.323 214.879,7.604 213.700 C 6.661 212.153,5.537 212.026,4.659 213.366 M346.210 234.380 C 345.693 235.379,345.600 237.979,345.600 251.347 C 345.600 271.453,346.083 270.409,339.656 264.200 C 335.454 260.141,334.793 259.721,333.433 260.243 C 331.527 260.974,332.612 262.727,338.900 269.077 C 342.255 272.465,345.090 275.333,345.200 275.451 C 345.409 275.675,345.867 299.768,346.214 328.789 C 346.421 346.068,346.482 346.682,347.960 346.213 C 348.795 345.948,348.800 345.853,348.804 329.673 C 348.808 316.416,348.919 313.036,349.404 311.436 C 349.862 309.927,350.000 307.209,350.000 299.690 L 350.000 289.908 351.500 288.507 C 352.325 287.737,353.468 286.813,354.041 286.453 C 354.613 286.094,355.783 285.206,356.641 284.481 C 357.498 283.755,359.425 282.161,360.922 280.937 C 363.356 278.948,363.631 278.579,363.522 277.456 C 363.241 274.563,361.120 275.475,352.922 282.016 C 349.921 284.411,350.000 284.706,350.000 271.147 L 350.000 259.141 355.347 253.669 C 361.064 247.818,362.116 246.059,360.571 244.929 C 359.311 244.008,358.776 244.313,354.776 248.243 C 352.615 250.367,350.671 251.967,350.432 251.820 C 350.145 251.643,350.000 248.795,350.000 243.358 C 350.000 235.191,349.997 235.160,349.018 234.182 C 347.725 232.888,346.954 232.943,346.210 234.380 " stroke="none" fill="#243330" fill-rule="evenodd"></path><path id="path5" d="M215.533 142.783 C 208.126 142.902,201.952 143.113,201.814 143.252 C 201.563 143.504,203.369 145.039,215.367 154.766 C 217.108 156.178,218.818 157.582,219.167 157.885 C 219.515 158.189,222.320 160.444,225.400 162.897 C 228.480 165.349,232.497 168.626,234.327 170.178 C 236.156 171.730,238.586 173.679,239.727 174.508 L 241.800 176.017 254.880 175.908 C 270.143 175.782,269.986 175.826,265.992 172.768 C 264.435 171.576,262.404 169.944,261.480 169.142 C 260.556 168.340,259.035 167.080,258.101 166.342 C 255.150 164.011,243.826 154.836,243.200 154.268 C 242.870 153.969,240.980 152.437,239.000 150.863 C 233.529 146.517,232.836 145.936,230.932 144.100 C 229.963 143.165,229.131 142.437,229.085 142.483 C 229.038 142.528,222.940 142.663,215.533 142.783 M244.700 142.700 C 234.800 142.825,234.817 142.820,237.300 144.963 C 238.235 145.769,240.037 147.323,241.304 148.415 C 242.572 149.507,243.747 150.400,243.916 150.400 C 244.085 150.400,244.848 150.998,245.612 151.729 C 246.375 152.459,248.710 154.387,250.800 156.012 C 252.890 157.636,255.318 159.649,256.196 160.483 C 257.074 161.317,257.923 162.000,258.083 162.000 C 258.242 162.000,259.262 162.765,260.348 163.700 C 261.434 164.635,263.443 166.300,264.811 167.400 C 266.179 168.500,268.041 170.036,268.949 170.814 C 269.857 171.592,271.320 172.755,272.200 173.398 C 273.080 174.041,274.010 174.845,274.267 175.184 C 274.884 175.997,291.422 176.338,292.863 175.566 L 293.755 175.089 292.726 174.244 C 292.159 173.780,290.923 172.770,289.978 172.000 C 289.033 171.230,287.526 169.964,286.630 169.186 C 285.733 168.408,284.280 167.249,283.400 166.610 C 282.520 165.972,281.440 165.108,281.000 164.691 C 279.980 163.725,271.555 156.886,269.936 155.710 C 269.262 155.220,267.924 154.140,266.963 153.310 C 266.001 152.479,264.266 151.027,263.107 150.083 C 261.948 149.138,259.937 147.473,258.638 146.383 C 257.339 145.292,256.152 144.400,256.002 144.400 C 255.852 144.400,255.523 143.950,255.273 143.400 C 255.022 142.850,254.588 142.441,254.309 142.492 C 254.029 142.543,249.705 142.636,244.700 142.700 M265.671 142.699 C 259.175 142.851,259.165 142.604,265.878 148.000 C 268.752 150.310,273.315 154.000,276.018 156.200 C 278.720 158.400,282.039 161.100,283.392 162.200 C 284.745 163.300,286.111 164.419,286.426 164.686 C 292.350 169.700,299.681 175.430,300.600 175.764 C 301.662 176.149,314.800 175.584,314.800 175.153 C 314.800 174.726,312.000 172.149,309.400 170.183 C 308.300 169.351,307.040 168.346,306.600 167.949 C 305.659 167.101,297.758 160.679,295.750 159.129 C 294.986 158.540,293.605 157.419,292.681 156.637 C 291.756 155.855,290.055 154.447,288.899 153.508 C 287.744 152.568,285.807 150.945,284.595 149.900 C 283.383 148.855,282.258 148.000,282.096 148.000 C 281.933 148.000,280.463 146.740,278.828 145.200 L 275.857 142.400 273.428 142.487 C 272.093 142.535,268.602 142.631,265.671 142.699 M183.800 156.639 C 176.320 162.701,169.570 168.197,168.800 168.853 C 168.030 169.508,165.567 171.511,163.327 173.303 C 161.086 175.096,159.342 176.706,159.450 176.881 C 159.727 177.330,235.498 177.288,235.776 176.839 C 236.016 176.450,233.901 174.562,227.000 169.008 C 224.580 167.060,222.330 165.221,222.000 164.922 C 221.670 164.622,219.690 163.010,217.600 161.340 C 215.510 159.669,213.698 158.143,213.574 157.947 C 213.449 157.752,212.605 157.099,211.698 156.496 C 210.790 155.893,207.633 153.396,204.683 150.946 C 200.018 147.072,198.011 145.576,197.526 145.609 C 197.457 145.613,191.280 150.577,183.800 156.639 M194.675 201.587 C 190.115 202.470,187.945 206.844,188.089 214.865 L 188.200 221.000 190.400 221.253 C 191.610 221.391,194.220 221.705,196.200 221.949 C 203.043 222.793,206.201 223.091,206.500 222.922 C 207.436 222.393,206.803 208.392,205.753 206.383 C 203.582 202.232,199.802 200.595,194.675 201.587 " stroke="none" fill="#e05e57" fill-rule="evenodd"></path><path id="path6" d="M2.200 128.421 C 1.320 128.837,0.420 129.248,0.200 129.334 C -1.161 129.866,0.694 129.944,2.433 129.427 C 6.361 128.261,10.435 128.747,13.384 130.733 C 16.109 132.569,17.456 134.168,21.020 139.800 C 22.073 141.464,23.614 145.121,23.969 146.800 C 24.132 147.570,24.542 148.740,24.881 149.400 C 25.219 150.060,25.623 151.470,25.778 152.533 C 25.932 153.597,26.294 155.134,26.582 155.950 C 26.870 156.765,27.329 160.035,27.601 163.216 C 28.212 170.341,28.100 170.059,31.706 173.648 C 33.337 175.272,35.195 177.395,35.836 178.366 C 37.412 180.756,38.705 182.875,39.032 183.600 C 39.180 183.930,39.729 185.134,40.251 186.275 C 40.773 187.417,41.202 188.677,41.205 189.075 C 41.208 189.474,41.568 190.941,42.005 192.336 C 43.032 195.611,43.111 203.079,42.157 206.616 C 41.803 207.927,41.352 209.677,41.154 210.505 C 40.956 211.333,40.165 213.216,39.397 214.690 C 37.528 218.274,37.587 218.840,40.142 221.756 C 42.393 224.325,45.909 229.433,46.710 231.300 C 46.970 231.905,47.343 232.400,47.538 232.400 C 48.220 232.400,49.949 235.515,50.341 237.450 C 50.558 238.523,51.047 240.210,51.426 241.200 C 52.442 243.850,52.443 259.346,51.427 262.000 C 51.049 262.990,50.581 264.550,50.388 265.468 C 50.194 266.385,49.668 267.822,49.218 268.662 C 48.768 269.501,48.386 270.461,48.369 270.794 C 48.351 271.127,47.818 272.210,47.183 273.200 C 46.548 274.190,45.753 275.484,45.417 276.076 C 42.242 281.654,34.105 289.309,28.729 291.774 C 27.998 292.110,27.130 292.553,26.800 292.760 C 25.378 293.652,22.865 294.720,21.584 294.978 C 20.823 295.130,19.120 295.603,17.800 296.027 C 16.480 296.451,14.005 296.904,12.299 297.033 C 8.583 297.315,8.719 297.054,8.884 303.600 L 9.000 308.200 14.200 308.198 C 17.060 308.198,23.720 307.891,29.000 307.517 C 34.280 307.144,42.915 306.731,48.188 306.600 C 58.781 306.338,58.181 306.527,58.556 303.334 C 59.292 297.077,64.555 292.145,71.000 291.673 C 73.441 291.494,73.983 291.168,73.994 289.875 C 73.997 289.477,74.449 288.201,74.998 287.041 C 80.105 276.246,94.404 276.610,98.612 287.642 C 100.017 291.327,99.979 291.290,103.554 292.331 C 106.912 293.310,109.137 294.916,111.398 297.997 C 112.207 299.099,113.060 300.000,113.295 300.000 C 113.727 300.000,117.289 298.320,118.400 297.592 C 118.730 297.376,119.450 297.010,120.000 296.779 C 120.550 296.548,121.720 295.919,122.600 295.382 C 123.480 294.845,124.830 294.130,125.600 293.793 C 126.370 293.456,127.270 293.005,127.600 292.789 C 127.930 292.574,128.650 292.219,129.200 291.999 C 129.750 291.780,130.470 291.420,130.800 291.199 C 131.130 290.979,131.850 290.619,132.400 290.399 C 132.950 290.180,133.670 289.825,134.000 289.611 C 135.044 288.934,140.361 286.400,140.740 286.400 C 140.939 286.400,141.317 286.142,141.579 285.826 C 141.841 285.510,142.570 285.138,143.200 285.000 C 143.830 284.862,144.550 284.502,144.800 284.200 C 145.050 283.898,145.786 283.535,146.434 283.393 C 147.082 283.250,149.185 282.341,151.106 281.373 C 153.028 280.404,154.803 279.609,155.051 279.606 C 155.299 279.603,155.702 279.359,155.946 279.065 C 156.191 278.770,157.158 278.303,158.095 278.025 C 159.033 277.748,160.070 277.289,160.400 277.005 C 160.730 276.721,161.573 276.367,162.272 276.219 C 162.972 276.070,163.750 275.702,164.000 275.400 C 164.250 275.098,164.970 274.738,165.600 274.600 C 166.230 274.462,166.944 274.109,167.187 273.816 C 167.430 273.523,168.207 273.174,168.914 273.040 C 169.621 272.907,171.086 272.348,172.168 271.799 C 173.250 271.249,174.443 270.800,174.819 270.800 C 175.195 270.800,175.726 270.530,176.000 270.200 C 176.274 269.870,176.791 269.599,177.149 269.599 C 177.507 269.598,178.389 269.238,179.110 268.799 C 179.830 268.359,180.658 268.000,180.950 268.000 C 181.242 268.000,182.327 267.550,183.362 267.000 C 184.396 266.450,185.493 266.000,185.800 266.000 C 186.107 266.000,187.204 265.550,188.238 265.000 C 189.273 264.450,190.324 264.000,190.575 264.000 C 190.826 264.000,191.737 263.640,192.600 263.200 C 193.463 262.760,194.508 262.400,194.921 262.400 C 195.335 262.400,196.131 262.040,196.691 261.600 C 197.250 261.160,197.950 260.800,198.246 260.800 C 198.856 260.800,203.653 258.990,205.262 258.153 C 205.846 257.849,206.566 257.598,206.862 257.596 C 207.158 257.594,208.300 257.150,209.400 256.609 C 210.500 256.068,211.635 255.619,211.922 255.613 C 212.209 255.606,213.199 255.256,214.122 254.836 C 215.045 254.416,216.469 253.947,217.286 253.794 C 218.103 253.641,218.968 253.279,219.209 252.989 C 219.449 252.700,220.355 252.343,221.221 252.196 C 222.087 252.050,222.894 251.771,223.015 251.576 C 223.135 251.381,223.991 251.031,224.917 250.798 C 225.843 250.566,227.410 250.047,228.400 249.646 C 230.906 248.631,233.842 247.632,236.200 246.992 C 238.448 246.381,241.323 245.421,244.000 244.388 C 244.990 244.006,247.019 243.222,248.508 242.647 C 249.997 242.071,251.567 241.600,251.996 241.600 C 252.424 241.600,253.456 241.255,254.288 240.834 C 255.119 240.412,256.736 239.947,257.880 239.799 C 259.024 239.651,260.164 239.285,260.413 238.985 C 260.662 238.685,261.706 238.330,262.733 238.195 C 263.760 238.061,265.050 237.764,265.600 237.535 C 266.150 237.306,267.860 236.767,269.400 236.337 C 270.940 235.906,273.730 235.126,275.600 234.603 C 277.470 234.080,280.260 233.268,281.800 232.799 C 283.340 232.330,285.770 231.704,287.200 231.407 C 288.630 231.111,290.520 230.591,291.400 230.252 C 292.280 229.913,293.578 229.627,294.285 229.618 C 294.992 229.608,296.484 229.240,297.600 228.800 C 298.716 228.360,300.077 228.000,300.625 228.000 C 301.172 228.000,302.639 227.642,303.885 227.204 C 305.131 226.766,307.062 226.291,308.175 226.149 C 309.289 226.007,310.667 225.656,311.237 225.368 C 311.808 225.080,313.248 224.721,314.437 224.570 C 315.627 224.420,317.207 224.050,317.949 223.748 C 318.714 223.437,320.724 223.200,322.593 223.200 C 326.434 223.200,327.570 222.526,331.020 218.200 C 333.471 215.126,335.721 212.998,338.055 211.543 C 340.175 210.222,340.399 209.666,340.364 205.800 C 340.335 202.497,339.666 200.368,338.469 199.764 C 335.320 198.177,331.620 192.004,329.978 185.600 C 328.110 178.317,328.000 177.349,328.007 168.314 C 328.012 161.628,328.173 158.700,328.650 156.600 C 329.000 155.060,329.413 152.990,329.568 152.000 C 329.724 151.010,330.129 149.660,330.468 149.000 C 330.808 148.340,331.193 147.236,331.324 146.546 C 331.560 145.301,332.464 143.722,334.760 140.547 C 337.597 136.622,342.882 135.442,346.494 137.927 C 349.448 139.960,353.177 145.214,353.214 147.397 C 353.221 147.839,353.575 148.920,354.000 149.800 C 354.425 150.680,354.780 151.940,354.789 152.600 C 354.798 153.260,355.164 155.296,355.603 157.125 C 357.674 165.765,355.536 187.043,352.179 191.200 C 351.913 191.530,351.565 192.224,351.407 192.741 C 350.911 194.367,349.266 196.507,346.385 199.275 L 343.600 201.951 343.600 204.961 C 343.600 208.618,343.818 208.800,348.196 208.800 C 351.851 208.800,355.075 210.014,359.667 213.120 C 363.227 215.529,364.096 215.821,365.957 215.238 C 366.751 214.989,369.092 214.654,371.161 214.493 L 374.922 214.200 375.486 212.600 C 375.856 211.554,376.008 209.795,375.925 207.518 L 375.800 204.036 373.586 201.918 C 368.892 197.427,366.102 185.899,367.992 178.800 C 368.197 178.030,368.617 176.406,368.925 175.191 C 371.567 164.778,380.226 162.770,384.898 171.487 C 387.075 175.549,388.270 185.002,387.213 189.800 C 385.741 196.477,384.537 199.036,381.404 202.144 L 379.200 204.331 379.200 207.539 C 379.200 209.304,379.385 211.236,379.612 211.831 L 380.024 212.915 383.952 212.699 C 386.385 212.565,388.353 212.238,389.121 211.841 C 389.963 211.405,391.424 211.199,393.680 211.196 C 398.718 211.189,400.000 210.895,400.000 209.748 C 400.000 208.674,398.907 208.504,396.400 209.185 C 395.630 209.394,392.390 209.844,389.200 210.184 C 386.010 210.525,382.734 210.961,381.920 211.155 C 381.106 211.348,380.341 211.408,380.220 211.287 C 379.801 210.867,379.987 204.000,380.417 204.000 C 381.309 204.000,384.690 200.335,385.476 198.516 C 388.245 192.107,388.200 192.336,388.200 184.600 C 388.200 171.976,384.459 165.200,377.489 165.200 C 368.798 165.200,363.746 181.413,368.203 195.000 C 368.564 196.100,369.029 197.270,369.237 197.600 C 369.446 197.930,369.877 198.765,370.195 199.457 C 370.514 200.148,371.778 201.607,373.004 202.700 L 375.233 204.687 375.116 208.243 L 375.000 211.800 372.200 212.494 C 364.946 214.292,362.302 214.154,359.462 211.832 C 356.588 209.483,353.512 208.377,349.000 208.071 L 345.000 207.800 344.882 205.116 L 344.764 202.432 347.917 199.316 C 355.294 192.024,358.472 179.094,357.240 161.391 C 357.025 158.306,356.656 155.273,356.419 154.650 C 356.183 154.028,355.736 152.412,355.427 151.059 C 354.140 145.434,352.447 142.040,349.462 139.105 C 346.445 136.138,345.325 135.598,342.203 135.602 C 335.166 135.612,330.264 142.285,327.512 155.600 C 326.910 158.514,326.909 177.476,327.510 180.400 C 328.340 184.432,329.645 188.929,330.226 189.758 C 330.542 190.209,330.800 190.915,330.800 191.326 C 330.800 191.737,331.160 192.531,331.600 193.091 C 332.040 193.650,332.400 194.344,332.400 194.633 C 332.400 195.448,336.353 200.002,337.409 200.403 C 338.854 200.953,339.200 202.031,339.200 205.979 L 339.200 209.610 337.100 210.959 C 335.204 212.176,332.806 214.520,328.800 219.071 C 327.659 220.367,326.900 220.793,324.702 221.374 C 320.415 222.508,320.800 224.515,320.800 201.046 L 320.800 180.467 321.880 179.680 C 324.386 177.855,323.392 176.029,317.200 171.086 C 315.330 169.593,313.016 167.703,312.057 166.886 C 311.098 166.069,310.062 165.256,309.755 165.079 C 309.447 164.902,308.702 164.294,308.098 163.728 C 307.494 163.162,306.010 161.966,304.800 161.072 C 303.590 160.177,302.420 159.232,302.200 158.972 C 301.980 158.712,300.180 157.223,298.200 155.662 C 296.220 154.102,294.242 152.505,293.805 152.113 C 293.368 151.721,291.388 150.092,289.405 148.494 C 287.422 146.895,285.106 145.005,284.257 144.294 C 283.408 143.582,282.467 142.858,282.165 142.684 C 281.862 142.511,281.032 141.836,280.318 141.184 C 278.720 139.724,277.757 139.698,275.756 141.057 C 274.232 142.092,274.059 142.115,267.400 142.157 L 260.600 142.200 258.365 140.924 L 256.130 139.648 254.165 141.045 L 252.200 142.442 243.800 142.321 C 235.405 142.200,235.399 142.199,233.708 141.100 C 231.557 139.702,230.750 139.717,229.074 141.189 C 227.724 142.374,227.703 142.378,221.960 142.501 L 216.200 142.624 222.504 142.712 C 228.373 142.794,228.855 142.745,229.493 142.000 C 230.395 140.947,232.050 140.986,233.689 142.100 C 235.698 143.465,253.667 143.136,255.094 141.707 C 256.064 140.736,257.410 140.942,258.900 142.291 C 259.897 143.192,275.327 142.771,276.385 141.814 C 277.719 140.606,278.908 141.091,283.221 144.604 C 285.519 146.477,288.480 148.842,289.800 149.860 C 291.120 150.878,292.650 152.131,293.200 152.645 C 294.284 153.658,302.032 159.977,304.180 161.600 C 304.908 162.150,306.868 163.721,308.536 165.090 C 310.204 166.460,311.966 167.900,312.452 168.290 C 312.937 168.681,314.069 169.636,314.967 170.414 C 315.865 171.192,317.320 172.348,318.200 172.983 C 322.715 176.240,323.468 178.228,320.635 179.411 C 318.113 180.465,238.150 180.311,237.161 179.251 C 235.966 177.967,235.793 177.962,196.304 178.084 L 158.807 178.200 157.806 179.280 C 156.857 180.304,156.728 180.333,155.326 179.848 C 151.939 178.675,152.528 177.168,158.084 172.784 C 160.348 170.997,162.650 169.133,163.200 168.640 C 163.750 168.148,165.820 166.443,167.800 164.851 C 169.780 163.260,171.760 161.644,172.200 161.260 C 173.002 160.560,176.260 157.926,185.600 150.426 C 188.350 148.218,190.870 146.156,191.200 145.843 C 195.827 141.460,197.858 140.619,200.000 142.200 C 201.377 143.216,203.350 143.527,203.800 142.800 C 203.946 142.563,203.491 142.400,202.686 142.400 C 201.836 142.400,201.054 142.102,200.607 141.608 C 198.755 139.561,196.605 140.148,192.314 143.870 C 190.837 145.152,188.237 147.280,186.536 148.600 C 184.836 149.920,182.952 151.450,182.351 152.000 C 181.749 152.550,180.763 153.360,180.158 153.800 C 178.686 154.871,175.849 157.224,175.600 157.582 C 175.490 157.739,175.102 158.033,174.738 158.234 C 174.374 158.435,173.384 159.189,172.538 159.909 C 169.817 162.225,163.558 167.375,162.463 168.200 C 160.653 169.563,155.057 174.129,153.913 175.177 C 152.377 176.584,152.104 178.203,153.162 179.634 C 153.999 180.766,154.007 180.984,153.904 199.689 L 153.800 218.600 148.600 218.690 C 145.740 218.740,138.450 218.969,132.400 219.199 C 118.816 219.716,120.000 220.387,120.000 212.165 L 120.000 206.419 121.500 205.114 C 128.065 199.402,130.666 194.122,131.605 184.600 C 132.227 178.287,131.488 168.211,130.225 165.789 C 129.884 165.135,129.604 164.310,129.602 163.956 C 129.593 161.508,125.200 155.911,121.957 154.215 C 117.196 151.726,110.494 154.053,108.178 159.000 C 107.869 159.660,107.445 160.470,107.236 160.800 C 106.374 162.162,105.182 165.155,104.838 166.821 C 104.635 167.799,104.166 169.950,103.794 171.600 C 103.041 174.941,103.146 184.824,103.957 186.910 C 104.194 187.521,104.577 189.202,104.807 190.646 C 105.635 195.826,109.006 201.214,113.749 204.939 L 115.200 206.079 115.200 212.563 C 115.200 219.801,114.983 220.562,112.980 220.334 C 112.051 220.229,111.630 219.849,111.000 218.553 C 109.898 216.286,109.401 215.769,107.388 214.794 C 106.270 214.253,105.207 213.293,104.435 212.128 C 100.989 206.924,94.575 207.223,92.777 212.671 C 92.535 213.402,92.105 214.000,91.820 214.000 C 88.494 214.000,85.911 216.854,85.684 220.779 L 85.499 223.966 83.650 224.196 C 82.632 224.322,80.810 224.675,79.600 224.980 C 78.390 225.285,76.500 225.648,75.400 225.787 C 74.300 225.927,71.870 226.384,70.000 226.804 C 68.130 227.223,64.440 228.045,61.800 228.630 C 59.160 229.214,56.190 229.940,55.200 230.242 C 49.886 231.861,47.599 231.697,46.868 229.645 C 46.382 228.281,44.092 225.119,39.440 219.385 C 38.685 218.455,38.689 218.431,40.104 215.525 C 40.887 213.916,41.656 211.970,41.812 211.200 C 41.969 210.430,42.374 209.260,42.714 208.600 C 44.618 204.897,43.591 191.353,40.985 185.800 C 40.675 185.140,40.228 184.072,39.993 183.427 C 39.204 181.268,35.845 176.632,32.664 173.313 L 29.514 170.025 29.152 166.713 C 28.953 164.891,28.702 163.161,28.595 162.868 C 28.488 162.575,28.218 160.725,27.995 158.756 C 27.506 154.440,25.152 146.106,23.579 143.121 C 23.151 142.307,22.800 141.417,22.800 141.142 C 22.800 140.868,22.350 139.958,21.800 139.122 C 21.250 138.285,20.305 136.850,19.700 135.933 C 15.213 129.133,7.603 125.866,2.200 128.421 M121.249 155.100 C 126.136 157.632,128.356 161.562,130.456 171.400 C 131.107 174.448,130.716 187.478,129.928 189.000 C 129.586 189.660,129.180 190.920,129.024 191.800 C 128.367 195.523,125.483 200.151,121.811 203.375 L 119.200 205.668 119.200 212.057 C 119.200 215.571,119.396 219.224,119.635 220.174 C 120.475 223.511,118.100 225.700,115.960 223.560 C 115.303 222.903,115.181 222.448,115.398 221.460 C 115.550 220.767,115.763 217.114,115.870 213.343 C 116.090 205.589,115.847 204.591,113.380 203.135 C 111.998 202.320,108.800 198.650,108.800 197.879 C 108.800 197.650,108.548 197.179,108.239 196.831 C 104.458 192.574,103.428 172.715,106.588 165.000 C 110.487 155.479,115.477 152.109,121.249 155.100 M200.251 183.314 C 203.596 185.225,204.226 188.980,201.599 191.353 C 197.020 195.490,190.429 189.584,194.478 184.972 C 196.347 182.843,198.396 182.255,200.251 183.314 M242.047 190.753 L 243.600 192.306 243.600 210.366 C 243.600 230.143,243.528 230.830,241.401 231.364 C 240.002 231.715,238.722 230.886,237.860 229.070 C 237.277 227.841,237.200 225.561,237.196 209.540 L 237.193 191.400 238.496 190.311 C 240.172 188.911,240.209 188.915,242.047 190.753 M297.179 193.900 C 298.834 194.832,298.869 195.059,298.725 203.942 C 298.623 210.245,298.492 211.699,298.000 212.009 C 296.945 212.675,267.103 212.510,266.176 211.833 C 265.461 211.311,265.390 210.646,265.276 203.432 L 265.152 195.598 266.465 194.399 L 267.778 193.200 281.857 193.200 C 294.524 193.200,296.060 193.270,297.179 193.900 M201.428 196.352 C 202.103 196.763,203.066 197.231,203.569 197.390 C 205.972 198.153,209.600 201.431,209.600 202.840 C 209.600 203.498,209.943 204.130,210.500 204.499 C 211.780 205.348,212.128 221.689,210.921 224.261 C 209.735 226.788,207.569 226.602,206.205 223.857 C 205.850 223.143,205.279 222.950,202.789 222.701 C 201.145 222.537,198.180 222.198,196.200 221.948 C 188.946 221.031,188.537 221.033,188.287 221.991 C 188.094 222.728,187.819 222.832,186.334 222.725 C 183.623 222.529,183.400 221.756,183.400 212.565 L 183.400 204.931 184.590 203.165 C 187.137 199.385,190.049 197.200,192.537 197.200 C 193.327 197.200,194.086 196.892,194.507 196.400 C 195.451 195.298,199.651 195.268,201.428 196.352 M270.489 198.223 C 269.342 199.026,269.143 205.969,270.223 207.511 C 270.900 208.478,278.634 208.872,280.000 208.009 C 281.011 207.370,280.860 198.929,279.824 198.169 C 278.690 197.338,271.695 197.378,270.489 198.223 M284.700 198.013 C 283.832 198.542,283.643 207.083,284.480 207.920 C 284.796 208.236,286.480 208.400,289.400 208.400 C 292.320 208.400,294.004 208.236,294.320 207.920 C 294.902 207.338,294.977 199.300,294.409 198.400 C 293.940 197.657,285.817 197.333,284.700 198.013 M278.826 198.814 C 279.860 199.367,279.975 205.687,278.977 207.111 C 278.093 208.374,271.878 208.466,271.214 207.226 C 270.628 206.131,270.680 199.480,271.280 198.880 C 271.877 198.283,277.738 198.232,278.826 198.814 M292.974 198.790 C 294.072 199.207,294.561 205.693,293.609 207.200 C 293.105 207.997,286.270 208.322,285.389 207.591 C 284.607 206.942,284.527 198.977,285.300 198.665 C 286.207 198.299,291.928 198.392,292.974 198.790 M101.361 210.447 C 101.999 210.831,102.989 212.008,103.561 213.063 C 104.378 214.570,104.955 215.111,106.260 215.592 C 110.492 217.151,112.050 222.269,109.142 225.056 L 107.948 226.200 98.383 226.200 L 88.819 226.200 87.758 225.139 C 84.859 222.241,86.755 216.374,90.814 215.684 C 92.422 215.411,92.703 215.190,93.637 213.468 C 94.965 211.017,95.538 210.465,97.422 209.817 C 99.050 209.257,99.502 209.329,101.361 210.447 M0.000 303.200 C 0.000 310.182,0.129 310.505,2.311 308.977 C 3.155 308.386,3.200 308.081,3.200 302.967 L 3.200 297.580 2.174 297.190 C -0.026 296.354,0.000 296.281,0.000 303.200 M351.200 345.176 C 351.200 345.383,351.364 345.654,351.564 345.778 C 352.081 346.097,353.240 345.588,352.974 345.158 C 352.680 344.682,351.200 344.697,351.200 345.176 M364.000 348.800 C 364.000 349.020,364.371 349.200,364.824 349.200 C 365.277 349.200,365.536 349.020,365.400 348.800 C 365.264 348.580,364.893 348.400,364.576 348.400 C 364.259 348.400,364.000 348.580,364.000 348.800 M395.456 358.678 C 395.005 359.128,395.181 359.600,395.800 359.600 C 396.130 359.600,396.400 359.431,396.400 359.224 C 396.400 358.719,395.775 358.358,395.456 358.678 " stroke="none" fill="#52aba3" fill-rule="evenodd"></path></g></svg>