<svg width="116" height="116" viewBox="0 0 116 116" fill="none" xmlns="http://www.w3.org/2000/svg">
<rect opacity="0.61" width="116" height="116" fill="url(#paint0_linear)"/>
<mask id="mask0" mask-type="alpha" maskUnits="userSpaceOnUse" x="0" y="0" width="116" height="116">
<rect width="116" height="116" fill="#FFEDAB"/>
</mask>
<g mask="url(#mask0)">
<path opacity="0.32" d="M17.7285 61.8888C67.867 102.946 99.7886 90.1814 116 61.8888V116.5H-65V48.0716C-27.8975 27.6745 1.18283 48.3399 17.7285 61.8888Z" fill="url(#paint1_linear)"/>
<path opacity="0.32" d="M117.713 59.5C46.5129 74.7 33.0462 26.1667 35.2129 0H117.713V59.5Z" fill="url(#paint2_linear)"/>
<path fill-rule="evenodd" clip-rule="evenodd" d="M35.1214 41.8787C33.9498 43.0503 33.9498 44.9498 35.1214 46.1214L41.201 52.201V60.799C41.201 62.4559 42.5442 63.799 44.201 63.799H52.799L58.8787 69.8787C60.0503 71.0503 61.9498 71.0503 63.1214 69.8787L69.2011 63.799H77.799C79.4559 63.799 80.799 62.4559 80.799 60.799V52.201L86.8787 46.1214C88.0503 44.9498 88.0503 43.0503 86.8787 41.8787L80.799 35.799V27.201C80.799 25.5442 79.4559 24.201 77.799 24.201H69.201L63.1214 18.1214C61.9498 16.9498 60.0503 16.9498 58.8787 18.1214L52.799 24.201H44.201C42.5442 24.201 41.201 25.5442 41.201 27.201V35.799L35.1214 41.8787Z" fill="#E27E5D"/>
<path d="M67.1782 90.5809L82.4755 83.7124C83.8635 83.0896 85.4164 84.164 85.3233 85.6826L85.1199 88.9649C85.0354 90.3358 86.6589 91.1149 87.6756 90.1924L94.0731 84.3877C94.772 83.7531 95.8165 83.6867 96.5902 84.2272L105.522 90.4653C106.667 91.2647 108.196 90.2395 107.891 88.8761L107.729 88.1494C107.382 86.5987 108.876 85.2717 110.375 85.8003L118.929 88.814V88.8129C118.729 88.707 118.53 88.6021 118.33 88.4929C110.55 84.2935 104.131 79.5504 98.9382 75.0043C97.807 74.0144 96.1397 73.9437 94.9239 74.8256C94.8223 74.8994 94.7217 74.9722 94.62 75.046C93.5027 75.8562 91.9948 75.8669 90.8669 75.0728L89.1856 73.8902C87.9131 72.9945 86.1837 73.1347 85.0707 74.222C79.6759 79.4948 73.1306 85.1625 65.3279 90.689C65.8962 90.8752 66.5415 90.8666 67.1782 90.5809Z" fill="#B2CFE2"/>
<path d="M38.5486 98.3954C31.0723 95.4053 39.9174 90.6194 42.2804 89.454C41.3151 89.1318 40.2567 89.1768 39.3149 89.5952L3.28593 105.619L-22 116H10.0281C20.6604 113.346 34.559 108.777 49.5042 100.584C45.2459 100.149 41.2273 99.4666 38.5486 98.3954Z" fill="#00A4B4"/>
<path d="M38.5485 98.3953C41.2272 99.4666 45.2458 100.15 49.5041 100.584C51.8585 99.2932 54.2396 97.9127 56.6379 96.4348L42.7833 89.6583C42.6195 89.5781 42.4515 89.5106 42.2803 89.4539C39.9173 90.6183 31.0722 95.4042 38.5485 98.3953Z" fill="#B2CFE2"/>
<path d="M126.251 92.3488C123.882 91.3171 121.434 90.1453 118.93 88.8161V88.8172L110.376 85.8035C108.878 85.2759 107.383 86.6019 107.73 88.1526L107.893 88.8793C108.198 90.2416 106.667 91.2679 105.523 90.4685L96.5913 84.2304C95.8176 83.6899 94.7731 83.7563 94.0743 84.3909L87.6767 90.1956C86.66 91.1181 85.0365 90.3379 85.1211 88.9681L85.3244 85.6858C85.4186 84.1672 83.8646 83.0927 82.4766 83.7156L67.1793 90.5841C66.5437 90.8698 65.8973 90.8773 65.3301 90.6911C63.7836 91.787 62.1891 92.8764 60.5431 93.9562C59.2375 94.8124 57.9361 95.6386 56.6401 96.4369C54.2418 97.9149 51.8617 99.2954 49.5063 100.586C34.5589 108.776 20.6604 113.346 10.0281 116C38.8985 116 67.7679 116 96.6384 116C104.047 116 111.457 116 118.866 116H140.484L126.251 92.3488Z" fill="#00699C"/>
<path d="M11.0342 115.745C11.0342 115.745 45.7051 108.688 77.8974 80.8272L82.3526 76.7851C82.8845 76.3025 83.3789 75.7813 83.8444 75.2344C84.4973 74.466 85.7344 73.3295 87.3408 73.3626C88.2012 73.3808 88.8722 73.7297 89.3827 73.9941C91.1688 74.9219 91.3721 76.0478 92.8073 76.9906C93.4686 77.4251 94.5121 77.8992 96.1249 77.9538" stroke="#202223" stroke-miterlimit="10" stroke-linecap="round" stroke-linejoin="round"/>
<path d="M60.0001 109.69C60.0001 109.69 71.4633 103.136 78.7248 92.8898" stroke="white" stroke-miterlimit="10" stroke-linecap="round" stroke-linejoin="round"/>
<path d="M97 99C97 99 102.137 106.277 111.662 111.735" stroke="white" stroke-miterlimit="10" stroke-linecap="round" stroke-linejoin="round"/>
<path d="M35.8635 96.4733C35.8635 96.4733 35.3113 99.0279 49.5041 100.584" stroke="#202223" stroke-miterlimit="10" stroke-linecap="round" stroke-linejoin="round"/>
<path d="M58.5938 54.2656C57.8854 54.2656 57.1823 53.9792 56.4844 53.4062C55.7969 52.8229 55.3594 51.875 55.1719 50.5625C55.0677 49.8229 54.974 49.1198 54.8906 48.4531C54.8177 47.776 54.75 47.0417 54.6875 46.25C54.6354 45.4583 54.5781 44.526 54.5156 43.4531C54.724 43.151 55.026 42.8906 55.4219 42.6719C55.8177 42.4427 56.1979 42.2917 56.5625 42.2188C56.6562 44.2292 56.75 45.8854 56.8438 47.1875C56.9479 48.4792 57.0781 49.4844 57.2344 50.2031C57.401 50.9219 57.6198 51.4271 57.8906 51.7188C58.1615 52 58.5104 52.1406 58.9375 52.1406C59.5104 52.1406 59.9323 51.9271 60.2031 51.5C60.2135 51.4375 60.2188 51.2292 60.2188 50.875C60.2188 50.2292 60.1979 49.4583 60.1562 48.5625C60.125 47.6562 60.0781 46.7552 60.0156 45.8594C59.9635 44.9531 59.9115 44.1771 59.8594 43.5312C59.8177 42.875 59.7865 42.474 59.7656 42.3281C59.8906 42.0781 60.099 41.8646 60.3906 41.6875C60.6927 41.5 61.0104 41.349 61.3438 41.2344C61.6875 41.1198 61.974 41.0469 62.2031 41.0156C62.2448 41.8594 62.2708 42.6667 62.2812 43.4375C62.2917 44.1979 62.2969 45.0417 62.2969 45.9688C62.2969 46.6667 62.2917 47.401 62.2812 48.1719C62.2812 48.9323 62.2812 49.7917 62.2812 50.75C62.2812 51.1562 62.4062 51.4844 62.6562 51.7344C62.9062 51.9844 63.2865 52.1094 63.7969 52.1094C64.099 52.1094 64.4219 52 64.7656 51.7812C65.1198 51.5625 65.3333 51.1042 65.4062 50.4062C65.4583 49.8958 65.4948 49.3229 65.5156 48.6875C65.5469 48.0521 65.5625 47.401 65.5625 46.7344C65.5625 45.9115 65.5521 45.1094 65.5312 44.3281C65.5208 43.5365 65.5052 42.8438 65.4844 42.25C65.474 41.6562 65.4583 41.2396 65.4375 41C65.6146 40.6354 65.9479 40.3385 66.4375 40.1094C66.9271 39.8802 67.3438 39.7396 67.6875 39.6875C67.7292 40.0104 67.7552 40.4531 67.7656 41.0156C67.7865 41.5677 67.7969 42.1875 67.7969 42.875C67.7969 43.9583 67.776 45.1302 67.7344 46.3906C67.6927 47.651 67.6302 48.8073 67.5469 49.8594C67.4323 51.3073 67.0208 52.401 66.3125 53.1406C65.6042 53.8698 64.724 54.2344 63.6719 54.2344C62.8802 54.2344 62.2083 54.0469 61.6562 53.6719C61.1146 53.2969 60.7083 52.8229 60.4375 52.25L61.6562 52.7812C61.2812 53.2708 60.8125 53.6406 60.25 53.8906C59.6979 54.1406 59.1458 54.2656 58.5938 54.2656ZM52.1719 52.5312C51.5469 52.5312 50.9375 52.4271 50.3438 52.2188C49.7604 52.0104 49.2812 51.7083 48.9062 51.3125C48.5312 50.9062 48.3438 50.4167 48.3438 49.8438C48.3438 49.0417 48.8646 48.151 49.9062 47.1719C50.9479 46.1927 52.6406 45.026 54.9844 43.6719L55.5 45.6562C54.5625 46.1042 53.7083 46.6042 52.9375 47.1562C52.1667 47.7083 51.5521 48.2135 51.0938 48.6719C50.6354 49.1198 50.4062 49.4271 50.4062 49.5938C50.4062 49.8438 50.5885 50.0417 50.9531 50.1875C51.3177 50.3333 51.724 50.4062 52.1719 50.4062C52.7448 50.4062 53.3125 50.276 53.875 50.0156C54.4375 49.7552 54.875 49.276 55.1875 48.5781L55.8281 50.8125C55.3698 51.4271 54.8229 51.8698 54.1875 52.1406C53.5625 52.401 52.8906 52.5312 52.1719 52.5312ZM70.9375 54.6719C70.9479 54.3385 70.9531 53.9688 70.9531 53.5625C70.9635 53.1562 70.9688 52.7292 70.9688 52.2812C70.9688 50.9688 70.9583 49.5885 70.9375 48.1406C70.9167 46.6927 70.8906 45.3281 70.8594 44.0469C70.8281 42.7656 70.8021 41.7031 70.7812 40.8594C70.7604 40.0052 70.75 39.5156 70.75 39.3906C70.9271 39.026 71.2812 38.7292 71.8125 38.5C72.3542 38.2708 72.7969 38.1302 73.1406 38.0781C73.1615 38.2031 73.1771 38.3958 73.1875 38.6562C73.1979 38.9167 73.2031 39.1667 73.2031 39.4062C73.2135 39.6354 73.2188 39.7812 73.2188 39.8438C73.2188 40.3542 73.2135 41.0521 73.2031 41.9375C73.2031 42.8229 73.1927 43.8073 73.1719 44.8906C73.1615 45.9635 73.1458 47.0521 73.125 48.1562C73.1042 49.2604 73.0781 50.2969 73.0469 51.2656C73.0156 52.2344 72.9844 53.0521 72.9531 53.7188C72.7448 53.9896 72.4531 54.2031 72.0781 54.3594C71.7031 54.5156 71.3229 54.6198 70.9375 54.6719ZM59.1719 40.6719C58.5885 40.6719 58.1615 40.4844 57.8906 40.1094C57.6198 39.724 57.4844 39.25 57.4844 38.6875C57.4844 38.0312 57.6354 37.3542 57.9375 36.6562C58.1979 36.5833 58.4531 36.5469 58.7031 36.5469C58.8906 36.5469 59.0521 36.5625 59.1875 36.5938C59.0833 36.9062 58.9844 37.2396 58.8906 37.5938C58.8073 37.9375 58.7656 38.25 58.7656 38.5312C58.7656 38.7812 58.8073 38.9896 58.8906 39.1562C58.9844 39.3125 59.1354 39.3906 59.3438 39.3906C59.6354 39.3906 59.9115 39.1406 60.1719 38.6406C60.4323 38.1302 60.5573 37.2604 60.5469 36.0312C60.6927 35.9583 60.8646 35.901 61.0625 35.8594C61.2604 35.8177 61.5 35.7969 61.7812 35.7969C61.7812 36.776 61.849 37.4948 61.9844 37.9531C62.1302 38.4115 62.3906 38.6406 62.7656 38.6406C63.026 38.6406 63.2083 38.5208 63.3125 38.2812C63.4271 38.0312 63.4844 37.7396 63.4844 37.4062C63.4844 36.7083 63.3333 36.1094 63.0312 35.6094C63.1458 35.4948 63.3125 35.3854 63.5312 35.2812C63.75 35.1667 63.9583 35.099 64.1562 35.0781C64.5625 35.8073 64.7656 36.5885 64.7656 37.4219C64.7656 38.099 64.5938 38.6875 64.25 39.1875C63.9167 39.6875 63.3958 39.9375 62.6875 39.9375C62.3646 39.9375 62.0677 39.8542 61.7969 39.6875C61.526 39.5104 61.3333 39.3021 61.2188 39.0625C61.1146 39.4583 60.8906 39.8281 60.5469 40.1719C60.2031 40.5052 59.7448 40.6719 59.1719 40.6719ZM60.5625 35.1719L60.125 27.3906C60.5833 26.8802 61.0938 26.5573 61.6562 26.4219C61.7396 26.5781 61.8021 26.7552 61.8438 26.9531C61.8958 27.1406 61.9219 27.4115 61.9219 27.7656C61.9219 28.0365 61.9167 28.4479 61.9062 29C61.8958 29.5521 61.8802 30.1615 61.8594 30.8281C61.849 31.4948 61.8333 32.1458 61.8125 32.7812C61.7917 33.4167 61.7656 33.9479 61.7344 34.375C61.6615 34.5312 61.5 34.7031 61.25 34.8906C61 35.0781 60.7708 35.1719 60.5625 35.1719Z" fill="white"/>
<path d="M94.7596 11.2012L95.206 12.9347C95.6938 14.8276 97.1719 16.3062 99.0653 16.794L100.799 17.2404C101.067 17.3093 101.067 17.6907 100.799 17.7596L99.0653 18.206C97.1724 18.6938 95.6938 20.1719 95.206 22.0653L94.7596 23.7988C94.6907 24.0671 94.3093 24.0671 94.2404 23.7988L93.794 22.0653C93.3062 20.1724 91.8281 18.6938 89.9347 18.206L88.2012 17.7596C87.9329 17.6907 87.9329 17.3093 88.2012 17.2404L89.9347 16.794C91.8276 16.3062 93.3062 14.8281 93.794 12.9347L94.2404 11.2012C94.3093 10.9329 94.6902 10.9329 94.7596 11.2012Z" fill="white"/>
<path d="M28.7596 51.2012L29.206 52.9347C29.6938 54.8276 31.1719 56.3062 33.0653 56.794L34.7988 57.2404C35.0671 57.3093 35.0671 57.6907 34.7988 57.7596L33.0653 58.206C31.1724 58.6938 29.6938 60.1719 29.206 62.0653L28.7596 63.7988C28.6907 64.0671 28.3093 64.0671 28.2404 63.7988L27.794 62.0653C27.3062 60.1724 25.8281 58.6938 23.9347 58.206L22.2012 57.7596C21.9329 57.6907 21.9329 57.3093 22.2012 57.2404L23.9347 56.794C25.8276 56.3062 27.3062 54.8281 27.794 52.9347L28.2404 51.2012C28.3093 50.9329 28.6902 50.9329 28.7596 51.2012Z" fill="white"/>
<path d="M17.1598 40.1238L17.4345 41.1906C17.7347 42.3555 18.6442 43.2653 19.8094 43.5655L20.8762 43.8402C21.0413 43.8826 21.0413 44.1174 20.8762 44.1598L19.8094 44.4345C18.6445 44.7347 17.7347 45.6442 17.4345 46.8094L17.1598 47.8762C17.1174 48.0413 16.8826 48.0413 16.8402 47.8762L16.5655 46.8094C16.2653 45.6445 15.3558 44.7347 14.1906 44.4345L13.1238 44.1598C12.9587 44.1174 12.9587 43.8826 13.1238 43.8402L14.1906 43.5655C15.3555 43.2653 16.2653 42.3558 16.5655 41.1906L16.8402 40.1238C16.8826 39.9587 17.1171 39.9587 17.1598 40.1238Z" fill="white"/>
</g>
<defs>
<linearGradient id="paint0_linear" x1="0" y1="0" x2="133.265" y2="58.0562" gradientUnits="userSpaceOnUse">
<stop stop-color="#D2F0FA"/>
<stop offset="1" stop-color="#61A1EB"/>
</linearGradient>
<linearGradient id="paint1_linear" x1="113.483" y1="111.286" x2="-70.7232" y2="88.6777" gradientUnits="userSpaceOnUse">
<stop stop-color="white"/>
<stop offset="1" stop-color="white" stop-opacity="0"/>
</linearGradient>
<linearGradient id="paint2_linear" x1="36.1502" y1="58.1619" x2="121.189" y2="52.275" gradientUnits="userSpaceOnUse">
<stop stop-color="white"/>
<stop offset="1" stop-color="white" stop-opacity="0"/>
</linearGradient>
</defs>
</svg>
