<svg width="116" height="116" viewBox="0 0 116 116" fill="none" xmlns="http://www.w3.org/2000/svg">
<rect opacity="0.78" width="116" height="116" fill="url(#paint0_linear)"/>
<mask id="mask0" mask-type="alpha" maskUnits="userSpaceOnUse" x="0" y="0" width="116" height="116">
<rect width="116" height="116" fill="#FDBEBA"/>
</mask>
<g mask="url(#mask0)">
<path opacity="0.25" d="M-115.492 38.25C-177.438 8.30441 -221.552 12 -254 38.25V117H116V12C105.346 31.7525 82.0995 57.946 43.8403 65.6413C5.58115 73.3366 -58.8298 65.6413 -115.492 38.25Z" fill="url(#paint1_linear)"/>
<path opacity="0.25" d="M-22.5079 80.75C39.4383 67.3458 83.5524 69 116 80.75V116H-254V69C-243.346 77.8416 -220.099 89.5663 -181.84 93.0109C-143.581 96.4554 -79.1702 93.0109 -22.5079 80.75Z" fill="url(#paint2_linear)"/>
<path d="M103.842 -5.61293C104.358 -5.09685 104.358 -4.25942 103.842 -3.74333L82.6951 17.4051C82.1791 17.9212 81.3416 17.9212 80.8255 17.4051C80.3095 16.889 80.3095 16.0516 80.8255 15.5355L101.974 -5.61293C102.49 -6.12902 103.326 -6.12902 103.842 -5.61293Z" fill="#106351"/>
<path d="M69.0003 23.4813L74.7496 29.2306C75.2379 29.7189 75.2379 30.5118 74.7496 31.0015C74.2614 31.4897 73.4684 31.4897 72.9788 31.0015L67.2295 25.2522C66.7412 24.7639 66.7412 23.971 67.2295 23.4813C67.7191 22.9917 68.5121 22.9917 69.0003 23.4813Z" fill="#EAA114"/>
<path d="M70.0491 19.6128L78.6181 28.1818C79.1064 28.6701 79.1064 29.463 78.6181 29.9526C78.1299 30.4409 77.337 30.4409 76.8473 29.9526L68.2783 21.3836C67.79 20.8954 67.79 20.1024 68.2783 19.6128C68.768 19.1231 69.5609 19.1231 70.0491 19.6128Z" fill="#EAA114"/>
<path d="M71.3345 15.9779L82.2531 26.8964C82.7413 27.3847 82.7413 28.1776 82.2531 28.6672C81.7648 29.1555 80.9719 29.1555 80.4822 28.6672L69.5637 17.7487C69.0754 17.2605 69.0754 16.4676 69.5637 15.9779C70.052 15.4896 70.8449 15.4896 71.3345 15.9779Z" fill="#EAA114"/>
<path d="M74.9678 14.694L83.5368 23.263C84.0251 23.7512 84.0251 24.5441 83.5368 25.0338C83.0486 25.5221 82.2557 25.5221 81.766 25.0338L73.197 16.4648C72.7087 15.9765 72.7087 15.1836 73.197 14.694C73.6867 14.2057 74.4782 14.2057 74.9678 14.694Z" fill="#EAA114"/>
<path d="M78.8365 13.6451L84.5858 19.3944C85.0741 19.8826 85.0741 20.6756 84.5858 21.1652C84.0975 21.6535 83.3046 21.6535 82.815 21.1652L77.0657 15.4159C76.5774 14.9276 76.5774 14.1347 77.0657 13.6451C77.5553 13.1554 78.3482 13.1554 78.8365 13.6451Z" fill="#EAA114"/>
<path d="M93.8599 39.5649H61.1697V48.9546H93.8599V39.5649Z" fill="#F9F8F5"/>
<path d="M98.9375 84.8721C98.9375 86.2117 97.8984 87.3691 96.442 87.657C91.3256 88.6683 84.9002 89.5071 77.4803 89.5044C70.0867 89.5016 63.6822 88.6642 58.5798 87.6556C57.1261 87.3677 56.0925 86.2089 56.0925 84.8721V52.6604C56.0925 48.8475 59.5327 45.7552 63.7768 45.7552H91.2519C95.496 45.7552 98.9361 48.8461 98.9361 52.6604V84.8721H98.9375Z" fill="#F9F8F5"/>
<path d="M93.8599 82.876C93.8599 83.7092 93.067 84.4284 91.9555 84.6064C88.0521 85.2352 83.1486 85.7569 77.4883 85.7541C71.8475 85.7527 66.9607 85.231 63.0671 84.6051C61.9584 84.427 61.1697 83.7064 61.1697 82.8746V65.0619C61.1697 63.4705 61.9 61.9514 63.1826 60.8539C63.2104 60.8302 63.7668 60.278 64.5083 59.8175C68.566 57.2927 77.167 57.1926 77.167 57.1926C77.167 57.1926 86.7237 57.0813 90.7995 59.8175C91.5465 60.3197 92.1043 60.9248 92.1043 60.9248C93.2408 61.9932 93.8613 63.4218 93.8613 64.9005V82.876H93.8599Z" fill="#EAA114"/>
<path d="M77.5148 42.7644C86.5419 42.7644 93.8599 41.3631 93.8599 39.6345C93.8599 37.9059 86.5419 36.5045 77.5148 36.5045C68.4876 36.5045 61.1697 37.9059 61.1697 39.6345C61.1697 41.3631 68.4876 42.7644 77.5148 42.7644Z" fill="#F9F8F5"/>
<path d="M77.5849 42.7644C84.8066 42.7644 90.6609 41.6433 90.6609 40.2605C90.6609 38.8776 84.8066 37.7565 77.5849 37.7565C70.3631 37.7565 64.5088 38.8776 64.5088 40.2605C64.5088 41.6433 70.3631 42.7644 77.5849 42.7644Z" fill="#EAA114"/>
<path d="M77.4803 89.5044C70.0867 89.5016 63.6822 88.6642 58.5798 87.6557C57.1261 87.3677 56.0925 86.2089 56.0925 84.8721V52.6605" stroke="#202223" stroke-miterlimit="10" stroke-linecap="round" stroke-linejoin="round"/>
<path d="M61.1697 46.1628C64.6682 47.227 69.3798 48.2869 75.0108 48.5373C81.1997 48.8128 86.4051 48.0185 90.1735 47.1463" stroke="#202223" stroke-miterlimit="10" stroke-linecap="round" stroke-linejoin="round"/>
<path d="M63.0481 63.2827C63.0481 63.2827 76.9588 68.0124 91.2869 62.8654" stroke="white" stroke-miterlimit="10"/>
<path d="M59.8711 57.7323V57.4986H39.0982V57.7323C39.0982 60.1013 38.2886 62.3785 36.9059 64.3023C36.2576 65.2037 35.8723 66.3375 35.8723 67.57V73.0911H35.9321V80.0465H63.058V73.0911H63.097V67.57C63.097 66.3375 62.7103 65.2037 62.0634 64.3023C60.6807 62.3785 59.8711 60.1027 59.8711 57.7323Z" fill="#106351"/>
<path d="M35.8723 92.3407C35.8723 93.3687 36.5289 94.2604 37.4526 94.4816C40.6952 95.2578 44.7654 95.9019 49.4631 95.9033C54.1774 95.9046 58.2616 95.2592 61.5126 94.483C62.4376 94.2618 63.0984 93.3715 63.0984 92.3407V84.3574H35.8723V92.3407Z" fill="#106351"/>
<path d="M35.8723 73.0897V84.3574C39.261 85.2741 43.9489 86.1741 49.5646 86.1658C55.1053 86.1574 59.7348 85.2671 63.097 84.3574C63.097 80.6015 63.097 76.8456 63.097 73.0897C59.1797 73.6531 54.6295 74.0593 49.5646 74.0634C44.433 74.0676 39.8285 73.6586 35.8723 73.0897Z" fill="#EAE7DC"/>
<path d="M39.0982 57.4986V57.7323C39.0982 60.1013 38.2886 62.3785 36.9059 64.3023C36.2576 65.2037 35.8723 66.3375 35.8723 67.57V73.0911L35.9224 92.9139C35.9224 93.6456 36.4385 94.2757 37.1563 94.419C39.9009 94.9657 46.5112 96.1926 49.5549 95.9742" stroke="#202223" stroke-miterlimit="10" stroke-linecap="round" stroke-linejoin="round"/>
<path d="M61.1107 53.6884H37.8589V59.2485H37.8617C37.8603 59.2597 37.8589 59.2722 37.8589 59.2833C37.8589 60.5033 43.0643 61.4937 49.4841 61.4937C55.9039 61.4937 61.1093 60.5047 61.1093 59.2833C61.1093 59.2722 61.1079 59.2597 61.1065 59.2485H61.1093V53.6884H61.1107Z" fill="#00699C"/>
<path d="M49.4853 55.9489C55.9057 55.9489 61.1105 54.9593 61.1105 53.7385C61.1105 52.5177 55.9057 51.5281 49.4853 51.5281C43.0649 51.5281 37.8601 52.5177 37.8601 53.7385C37.8601 54.9593 43.0649 55.9489 49.4853 55.9489Z" fill="#00699C"/>
<path d="M37.8589 59.5017C37.8589 59.5017 41.3658 62.8361 57.7707 60.8344" stroke="#202223" stroke-miterlimit="10" stroke-linecap="round" stroke-linejoin="round"/>
<path fill-rule="evenodd" clip-rule="evenodd" d="M27.9198 49.3356C28.9249 48.3732 29.5509 47.0179 29.5509 45.5164C29.5509 42.5966 27.1839 40.2296 24.2641 40.2296C22.8539 40.2296 21.5726 40.7818 20.6247 41.6817C19.6844 40.8215 18.4322 40.2967 17.0573 40.2967C14.1375 40.2967 11.7705 42.6637 11.7705 45.5835C11.7705 47.0507 12.3682 48.3783 13.3334 49.3362L13.3326 49.337L20.6269 56.6313L27.9212 49.337L27.9198 49.3356Z" fill="#F16855"/>
<path d="M14 47.5H18.375L19.6875 44L22.3125 51L23.625 47.5H28" stroke="white" stroke-linecap="round" stroke-linejoin="round"/>
<path d="M43.9267 44.8579L39.6895 40.6207L43.3313 36.9789L47.5685 41.2161C48.3224 41.97 48.3224 43.1914 47.5685 43.9453L46.6559 44.8579C45.9034 45.6118 44.6806 45.6118 43.9267 44.8579Z" fill="#C3475A"/>
<path d="M39.0926 32.7417L43.3298 36.9789L39.6879 40.6207L35.4507 36.3835C34.6968 35.6295 34.6968 34.4082 35.4507 33.6542L36.3633 32.7417C37.1172 31.9877 38.3386 31.9877 39.0926 32.7417Z" fill="#00699C"/>
<path d="M39.6895 40.6207L43.4718 44.403C44.4775 45.4087 46.1079 45.4087 47.1136 44.403" stroke="#202223" stroke-miterlimit="10" stroke-linecap="round" stroke-linejoin="round"/>
<path d="M35.9071 33.1965C34.9014 34.2022 34.9014 35.8326 35.9071 36.8383L39.6895 40.6207L43.3313 36.9733" stroke="#202223" stroke-miterlimit="10" stroke-linecap="round" stroke-linejoin="round"/>
<path d="M46.9449 30.7663C49.0385 32.8599 52.4341 32.8599 54.5277 30.7663L46.9449 23.1836C44.8514 25.2771 44.8514 28.6713 46.9449 30.7663Z" fill="#EDBF58"/>
<path d="M54.5276 23.1822C52.434 21.0886 49.0384 21.0886 46.9448 23.1822L54.5276 30.7649C56.6225 28.6714 56.6225 25.2772 54.5276 23.1822Z" fill="#F16855"/>
<path d="M46.9448 30.7663C49.0384 32.8599 52.434 32.8599 54.5276 30.7663C56.6211 28.6727 56.6211 25.2771 54.5276 23.1836" stroke="#202223" stroke-miterlimit="10" stroke-linecap="round" stroke-linejoin="round"/>
<path d="M47.8491 24.0864L54.4929 30.8011" stroke="#202223" stroke-miterlimit="10" stroke-linecap="round" stroke-linejoin="round"/>
<path d="M74 42C73.4483 42 73 41.629 73 41.1724V30.8276C73 30.371 73.4483 30 74 30C74.5517 30 75 30.371 75 30.8276V41.1724C75 41.6303 74.5517 42 74 42Z" fill="#EAA114"/>
</g>
<defs>
<linearGradient id="paint0_linear" x1="3.13513" y1="8.00002" x2="127.486" y2="23.43" gradientUnits="userSpaceOnUse">
<stop offset="0.529394" stop-color="#FDBEBA"/>
<stop offset="1" stop-color="#DEA07D"/>
</linearGradient>
<linearGradient id="paint1_linear" x1="-248.855" y1="109.891" x2="120.856" y2="41.8673" gradientUnits="userSpaceOnUse">
<stop stop-color="white"/>
<stop offset="1" stop-color="white" stop-opacity="0"/>
</linearGradient>
<linearGradient id="paint2_linear" x1="110.855" y1="112.818" x2="-216.126" y2="-21.5855" gradientUnits="userSpaceOnUse">
<stop stop-color="white"/>
<stop offset="1" stop-color="white" stop-opacity="0"/>
</linearGradient>
</defs>
</svg>
