<svg width="116" height="116" viewBox="0 0 116 116" fill="none" xmlns="http://www.w3.org/2000/svg">
<rect opacity="0.44" width="116" height="116" fill="url(#paint0_linear)"/>
<mask id="mask0" mask-type="alpha" maskUnits="userSpaceOnUse" x="0" y="0" width="116" height="116">
<rect width="116" height="116" fill="#D2DDFA"/>
</mask>
<g mask="url(#mask0)">
<path opacity="0.3" d="M21.0773 0C14.4276 59.4564 -38.4116 63.8895 -64 58.674V0H21.0773Z" fill="url(#paint1_linear)"/>
<path opacity="0.3" d="M29.9448 66.9692C67.5939 41.8173 101.945 58.9495 116 70.7429V115.608H-61V84.999C-24.2271 90.5405 -16.6342 98.0867 29.9448 66.9692Z" fill="url(#paint2_linear)"/>
<path d="M71.8612 6.36548L73.5803 7.3032V12.2221H71.8612H70.1338V7.3032L71.8612 6.36548Z" fill="#B99D3B"/>
<path d="M68.9985 23.8613H74.7647V10.5111C74.4603 10.396 73.391 10.0094 71.8364 10.0176C70.3393 10.0258 69.3111 10.3877 68.9985 10.5111C68.9985 14.9612 68.9985 19.4112 68.9985 23.8613Z" fill="white"/>
<path d="M68.7932 26.2962V20.4066" stroke="#202223" stroke-miterlimit="10" stroke-linecap="round" stroke-linejoin="round"/>
<path d="M79.1986 62.7027H68.3901V92.2656H79.1986V62.7027Z" fill="#F8E9CE"/>
<path d="M68.4397 62.7027L66.6548 64.0846V92.2656H68.4397V62.7027Z" fill="white"/>
<path d="M67.1321 58.8531H67.0663L64.8618 60.7779L66.655 64.0846L68.44 62.7027H79.2073L80.4658 58.8531H67.1321Z" fill="#D8C4A0"/>
<path d="M67.0663 55.8344L64.8618 57.6193V60.7779L67.0663 58.8532H80.4V55.8344H67.0663Z" fill="#F8E9CE"/>
<path d="M68.16 27.0776H76.2376L78.1377 24.2315C76.9944 23.738 74.905 23.0059 72.1988 23.047C69.5502 23.0799 67.5102 23.8367 66.3833 24.3549C66.9755 25.2597 67.5678 26.1727 68.16 27.0776Z" fill="#D8C4A0"/>
<path d="M76.2372 39.1939H68.1597V27.0776C69.0563 26.7485 70.504 26.3455 72.3136 26.3619C74.0081 26.3784 75.3571 26.7568 76.229 27.0776C76.2372 31.1163 76.2372 35.1551 76.2372 39.1939Z" fill="white"/>
<path d="M69.048 18.0952H74.7154C75.2337 18.0952 75.6614 17.6757 75.6614 17.1493C75.6614 16.631 75.2419 16.2033 74.7154 16.2033H69.048C68.5298 16.2033 68.1021 16.6228 68.1021 17.1493C68.1021 17.6757 68.5216 18.0952 69.048 18.0952Z" fill="#F8E9CE"/>
<path d="M71.8611 7.40188C72.0996 7.40188 72.2888 7.21269 72.2888 6.97415V1.21621C72.2888 0.977672 72.0996 0.788483 71.8611 0.788483C71.6225 0.788483 71.4333 0.977672 71.4333 1.21621V6.98237C71.4333 7.21269 71.6225 7.40188 71.8611 7.40188Z" fill="#B99D3B"/>
<path d="M74.9706 18.0952H68.9495" stroke="#202223" stroke-miterlimit="10" stroke-linecap="round" stroke-linejoin="round"/>
<path d="M71.8282 7.29496C72.3098 7.29496 72.7001 6.88618 72.7001 6.38192C72.7001 5.87766 72.3098 5.46887 71.8282 5.46887C71.3467 5.46887 70.9563 5.87766 70.9563 6.38192C70.9563 6.88618 71.3467 7.29496 71.8282 7.29496Z" fill="#EDBF58"/>
<path d="M71.8282 4.54761C72.3098 4.54761 72.7001 4.13883 72.7001 3.63457C72.7001 3.13031 72.3098 2.72153 71.8282 2.72153C71.3467 2.72153 70.9563 3.13031 70.9563 3.63457C70.9563 4.13883 71.3467 4.54761 71.8282 4.54761Z" fill="#EDBF58"/>
<path d="M72.807 0.994125C72.0174 0.994125 71.384 0.352527 71.384 -0.428907C71.384 -1.20211 72.0009 -1.82726 72.7659 -1.85194C72.5438 -1.95065 72.2971 -2 72.0421 -2C70.9892 -2 70.1255 -1.14454 70.1255 -0.0834308C70.1255 0.969448 70.981 1.83314 72.0421 1.83314C72.8811 1.83314 73.5967 1.29025 73.8517 0.541716C73.5885 0.813162 73.2183 0.994125 72.807 0.994125Z" fill="#EDBF58"/>
<path d="M67.9707 27.2832V38.7991" stroke="#202223" stroke-miterlimit="10" stroke-linecap="round" stroke-linejoin="round"/>
<path d="M66.6548 88.9425V64.2985L64.6807 61.0083L67.1483 58.5406H80.3093" stroke="#202223" stroke-miterlimit="10" stroke-linecap="round" stroke-linejoin="round"/>
<path d="M67.6171 41.8097H76.9696L79.1659 38.5112C77.8416 37.9354 75.4232 37.0964 72.2893 37.1375C69.2211 37.1786 66.8604 38.0505 65.5525 38.651C66.2434 39.6957 66.9262 40.7485 67.6171 41.8097Z" fill="#D8C4A0"/>
<path d="M76.9615 55.8343H67.6172V41.8096C68.6536 41.4313 70.3316 40.9624 72.4292 40.9871C74.3869 41.0035 75.958 41.4477 76.9697 41.8096C76.9615 46.4818 76.9615 51.1539 76.9615 55.8343Z" fill="white"/>
<path d="M67.5432 54.0987L68.7935 51.1375L70.4386 53.6052L72.0838 51.1375L73.7289 53.6052L75.374 51.1375L76.9615 54.0987" stroke="#F8E9CE" stroke-miterlimit="10" stroke-linecap="round" stroke-linejoin="round"/>
<path d="M67.5432 49.9859L68.7935 47.0247L70.4386 49.4924L72.0838 47.0247L73.7289 49.4924L75.374 47.0247L76.9615 49.9859" stroke="#F8E9CE" stroke-miterlimit="10" stroke-linecap="round" stroke-linejoin="round"/>
<path d="M67.5432 45.8732L68.7935 42.9119L70.4386 45.3796L72.0838 42.9119L73.7289 45.3796L75.374 42.9119L76.9615 45.8732" stroke="#F8E9CE" stroke-miterlimit="10" stroke-linecap="round" stroke-linejoin="round"/>
<path d="M67.5598 41.678C67.5598 41.678 71.8618 40.1316 77.0193 41.678" stroke="#202223" stroke-miterlimit="10" stroke-linecap="round" stroke-linejoin="round"/>
<path d="M75.3325 78.2409H72.4453C72.2068 78.2409 72.0176 78.0517 72.0176 77.8132V73.1575C72.0176 72.1211 72.8566 71.282 73.893 71.282C74.9294 71.282 75.7685 72.1211 75.7685 73.1575V77.8132C75.7602 78.0435 75.5628 78.2409 75.3325 78.2409Z" fill="#106351"/>
<path d="M73.8848 71.2903C74.9212 71.2903 75.7602 72.1293 75.7602 73.1657V77.8214C75.7602 78.06 75.571 78.2492 75.3325 78.2492H72.4453" stroke="#202223" stroke-miterlimit="10" stroke-linecap="round" stroke-linejoin="round"/>
<path d="M112.158 33.5593C112.69 33.5593 113.121 32.2962 113.121 30.738C113.121 29.1797 112.69 27.9166 112.158 27.9166C111.627 27.9166 111.196 29.1797 111.196 30.738C111.196 32.2962 111.627 33.5593 112.158 33.5593Z" fill="#F8E9CE"/>
<path d="M112.117 28.4019C112.306 28.4019 112.455 28.2538 112.455 28.0646V23.4829C112.455 23.2938 112.306 23.1457 112.117 23.1457C111.928 23.1457 111.78 23.2938 111.78 23.4829V28.0646C111.78 28.2456 111.928 28.4019 112.117 28.4019Z" fill="#B99D3B"/>
<path d="M112.092 28.5911C112.478 28.5911 112.791 28.267 112.791 27.8672C112.791 27.4675 112.478 27.1434 112.092 27.1434C111.706 27.1434 111.393 27.4675 111.393 27.8672C111.393 28.267 111.706 28.5911 112.092 28.5911Z" fill="#EDBF58"/>
<path d="M112.092 26.1234C112.478 26.1234 112.791 25.7993 112.791 25.3995C112.791 24.9997 112.478 24.6757 112.092 24.6757C111.706 24.6757 111.393 24.9997 111.393 25.3995C111.393 25.7993 111.706 26.1234 112.092 26.1234Z" fill="#EDBF58"/>
<path d="M112.874 23.3021C112.249 23.3021 111.739 22.7921 111.739 22.1669C111.739 21.55 112.232 21.0565 112.841 21.0318C112.66 20.9578 112.471 20.9166 112.265 20.9166C111.426 20.9166 110.744 21.5994 110.744 22.4384C110.744 23.2774 111.426 23.9601 112.265 23.9601C112.932 23.9601 113.499 23.5324 113.705 22.9319C113.499 23.1622 113.203 23.3021 112.874 23.3021Z" fill="#B99D3B"/>
<path d="M115.087 58.0306H109.452V93.7133H115.087V58.0306Z" fill="white"/>
<path d="M109.46 58.0306H115.087C115.621 58.0306 116.057 57.5946 116.057 57.06C116.057 56.5253 115.621 56.0894 115.087 56.0894H109.46C108.926 56.0894 108.49 56.5253 108.49 57.06C108.49 57.5946 108.926 58.0306 109.46 58.0306Z" fill="#106351"/>
<path d="M114.602 46.5887H109.979V56.1058H114.602V46.5887Z" fill="white"/>
<path d="M110.554 46.5887H114.034C114.782 46.5887 115.391 45.98 115.391 45.2315C115.391 44.483 114.782 43.8743 114.034 43.8743H110.554C109.806 43.8743 109.197 44.483 109.197 45.2315C109.197 45.98 109.806 46.5887 110.554 46.5887Z" fill="#F8E9CE"/>
<path d="M114.091 38.6428H110.513V43.8661H114.091V38.6428Z" fill="white"/>
<path d="M110.513 38.6428H114.091L112.833 33.4689C112.767 33.1974 112.52 33.0082 112.241 33.0082C111.953 33.0082 111.714 33.2057 111.648 33.4853L110.513 38.6428Z" fill="white"/>
<path d="M110.332 46.6134H114.445" stroke="#202223" stroke-miterlimit="10" stroke-linecap="round" stroke-linejoin="round"/>
<path d="M109.51 62.604L110.324 60.597L111.393 62.2668L112.463 60.597L113.532 62.2668L114.601 60.597L115.638 62.604" stroke="#F8E9CE" stroke-miterlimit="10" stroke-linecap="round" stroke-linejoin="round"/>
<path d="M109.51 65.8943L110.324 63.8872L111.393 65.557L112.463 63.8872L113.532 65.557L114.601 63.8872L115.638 65.8943" stroke="#F8E9CE" stroke-miterlimit="10" stroke-linecap="round" stroke-linejoin="round"/>
<path d="M109.51 69.1845L110.324 67.1775L111.393 68.8473L112.463 67.1775L113.532 68.8473L114.601 67.1775L115.638 69.1845" stroke="#F8E9CE" stroke-miterlimit="10" stroke-linecap="round" stroke-linejoin="round"/>
<path d="M109.51 82.8061V58.1293H114.856" stroke="#202223" stroke-miterlimit="10" stroke-linecap="round" stroke-linejoin="round"/>
<path d="M59.3423 79.886H52.0215V99.4137H59.3423V79.886Z" fill="#F8E9CE"/>
<path d="M60.1976 77.3443H51.1741L52.0213 79.886H59.3421L60.1976 77.3443Z" fill="#106351"/>
<path d="M60.1975 75.3455H51.1658V77.3443H60.1975V75.3455Z" fill="#F8E9CE"/>
<path d="M52.6221 56.517C53.4611 56.6733 54.4811 56.7885 55.6491 56.7885C56.8418 56.7885 57.8865 56.6651 58.7419 56.517C57.6973 50.8825 56.6526 45.2397 55.608 39.6052L52.6221 56.517Z" fill="#106351"/>
<path d="M58.355 64.356H53.0166V56.3525C53.6088 56.1386 54.563 55.8672 55.764 55.8836C56.8826 55.8919 57.7792 56.1469 58.355 56.3525C58.355 59.0258 58.355 61.6909 58.355 64.356Z" fill="white"/>
<path d="M55.5502 41.02C55.7065 41.02 55.8298 40.8966 55.8298 40.7403V36.9318C55.8298 36.7755 55.7065 36.6522 55.5502 36.6522C55.3939 36.6522 55.2705 36.7755 55.2705 36.9318V40.7403C55.2705 40.8884 55.3939 41.02 55.5502 41.02Z" fill="#B99D3B"/>
<path d="M55.5499 40.9459C55.8679 40.9459 56.1257 40.6771 56.1257 40.3455C56.1257 40.0138 55.8679 39.745 55.5499 39.745C55.2319 39.745 54.9741 40.0138 54.9741 40.3455C54.9741 40.6771 55.2319 40.9459 55.5499 40.9459Z" fill="#EDBF58"/>
<path d="M55.5499 39.1281C55.8679 39.1281 56.1257 38.8592 56.1257 38.5276C56.1257 38.196 55.8679 37.9271 55.5499 37.9271C55.2319 37.9271 54.9741 38.196 54.9741 38.5276C54.9741 38.8592 55.2319 39.1281 55.5499 39.1281Z" fill="#EDBF58"/>
<path d="M52.5477 66.0834H58.7251L60.181 63.9036C59.3091 63.5253 57.7051 62.9659 55.6405 62.9988C53.6088 63.0235 52.0541 63.6075 51.1904 63.9941C51.6428 64.6933 52.0952 65.3843 52.5477 66.0834Z" fill="#F8E9CE"/>
<path d="M58.7746 75.3455H52.5972V66.0834C53.2799 65.8367 54.3904 65.5241 55.7723 65.5405C57.0637 65.557 58.1001 65.8449 58.7664 66.0834C58.7746 69.168 58.7746 72.2609 58.7746 75.3455Z" fill="white"/>
<path d="M52.3423 65.9436C52.3423 65.9436 55.4351 64.2984 58.8241 65.9436" stroke="#202223" stroke-miterlimit="10" stroke-linecap="round" stroke-linejoin="round"/>
<path d="M55.2705 40.7403L52.7534 56.4841C52.7534 56.4841 55.7887 55.3819 58.5854 56.5499" stroke="#202223" stroke-miterlimit="10" stroke-linecap="round" stroke-linejoin="round"/>
<path d="M51.0752 76.9938H60.3449" stroke="black" stroke-linecap="round" stroke-linejoin="round"/>
<path d="M101.72 61.2633C101.959 61.2633 102.148 61.0741 102.148 60.8355V53.9178C102.148 53.6792 101.959 53.4901 101.72 53.4901C101.482 53.4901 101.292 53.6792 101.292 53.9178V60.8355C101.301 61.0741 101.49 61.2633 101.72 61.2633Z" fill="#B99D3B"/>
<path d="M101.761 61.3866C102.343 61.3866 102.814 60.8968 102.814 60.2926C102.814 59.6884 102.343 59.1986 101.761 59.1986C101.18 59.1986 100.708 59.6884 100.708 60.2926C100.708 60.8968 101.18 61.3866 101.761 61.3866Z" fill="#EDBF58"/>
<path d="M89.1352 76.1681C89.3244 72.7215 90.6076 69.5053 92.7133 67.2926C93.2233 66.758 93.7662 66.2151 94.3338 65.6804C97.04 63.1305 99.6311 61.3784 101.786 60.161C103.941 61.3702 106.532 63.1305 109.239 65.6804C109.806 66.2151 110.349 66.758 110.859 67.2926C112.965 69.5053 114.248 72.7215 114.437 76.1681C114.437 76.1845 114.437 76.201 114.437 76.2174H101.778H89.127C89.1352 76.2092 89.1352 76.1845 89.1352 76.1681Z" fill="#148469"/>
<path d="M89.127 76.2257C89.127 76.2092 89.127 76.1928 89.127 76.1763C89.3161 72.7298 90.5993 69.5136 92.7051 67.3009C93.2151 66.7662 93.758 66.2233 94.3255 65.6887" stroke="#202223" stroke-miterlimit="10" stroke-linecap="round" stroke-linejoin="round"/>
<path d="M106.228 74.4653H97.336L88.4441 75.3866V81.161L97.336 80.2315H106.228L115.12 81.161V75.3866L106.228 74.4653Z" fill="#106351"/>
<path d="M88.4441 75.3866V80.396" stroke="#202223" stroke-miterlimit="10" stroke-linecap="round" stroke-linejoin="round"/>
<path d="M106.688 79.6887H96.8752L87.0703 80.5112V85.6687L96.8752 84.8461H106.688L116.493 85.6687V80.5112L106.688 79.6887Z" fill="#148469"/>
<path d="M111.665 87.248H114.75V83.5876C114.75 82.7404 114.059 82.0494 113.211 82.0494C112.364 82.0494 111.673 82.7404 111.673 83.5876V87.248H111.665Z" fill="#106351"/>
<path d="M100.536 86.1293H103.62V82.4689C103.62 81.6217 102.929 80.9307 102.082 80.9307C101.235 80.9307 100.544 81.6217 100.544 82.4689V86.1293H100.536Z" fill="#106351"/>
<path d="M89.4062 87.248H92.4909V83.5876C92.4909 82.7404 91.7999 82.0494 90.9527 82.0494C90.1054 82.0494 89.4145 82.7404 89.4145 83.5876V87.248H89.4062Z" fill="#106351"/>
<path d="M101.696 58.5488C102.086 58.5488 102.403 58.2173 102.403 57.8085C102.403 57.3996 102.086 57.0682 101.696 57.0682C101.305 57.0682 100.988 57.3996 100.988 57.8085C100.988 58.2173 101.305 58.5488 101.696 58.5488Z" fill="#B99D3B"/>
<path d="M111.665 87.248H114.75V83.5876C114.75 82.7404 114.059 82.0494 113.211 82.0494" stroke="#202223" stroke-miterlimit="10" stroke-linecap="round" stroke-linejoin="round"/>
<path d="M100.536 86.1293H103.62V82.4689C103.62 81.6217 102.929 80.9307 102.082 80.9307" stroke="#202223" stroke-miterlimit="10" stroke-linecap="round" stroke-linejoin="round"/>
<path d="M89.4062 87.248H92.4909V83.5876C92.4909 82.7404 91.7999 82.0494 90.9527 82.0494" stroke="#202223" stroke-miterlimit="10" stroke-linecap="round" stroke-linejoin="round"/>
<path d="M101.696 56.4841C102.086 56.4841 102.403 56.1527 102.403 55.7438C102.403 55.335 102.086 55.0035 101.696 55.0035C101.305 55.0035 100.988 55.335 100.988 55.7438C100.988 56.1527 101.305 56.4841 101.696 56.4841Z" fill="#EDBF58"/>
<path d="M109.452 72.9354C109.452 72.9354 110.193 69.7274 106.162 64.8743" stroke="#EAE7DC" stroke-miterlimit="10" stroke-linecap="round" stroke-linejoin="round"/>
<path d="M93.9387 72.9354C93.9387 72.9354 93.1984 69.7274 97.2289 64.8743" stroke="#EAE7DC" stroke-miterlimit="10" stroke-linecap="round" stroke-linejoin="round"/>
<path d="M100.898 72.9354C100.898 72.9354 100.84 68.6252 101.482 64.3232" stroke="#EAE7DC" stroke-miterlimit="10" stroke-linecap="round" stroke-linejoin="round"/>
<path d="M88.1233 75.4031L97.1715 74.5805" stroke="#202223" stroke-miterlimit="10" stroke-linecap="round" stroke-linejoin="round"/>
<path d="M97.1715 79.5159L87.3008 80.3384V85.644" stroke="#202223" stroke-miterlimit="10" stroke-linecap="round" stroke-linejoin="round"/>
<path d="M119.175 91.443H84.9399V86.6804C84.9399 85.6686 85.7625 84.8461 86.7743 84.8461H117.341C118.352 84.8461 119.175 85.6686 119.175 86.6804V91.443Z" fill="white"/>
<path d="M70 87L43 99.5572V119H69.7251L70 87Z" fill="white"/>
<path d="M143 119H69C69.0912 108.331 69.1824 97.661 69.2736 87C93.8048 89.0664 118.328 91.1328 142.859 93.1993C142.909 101.802 142.95 110.397 143 119Z" fill="#F8E9CE"/>
<ellipse cx="28.5" cy="33.5" rx="19.5" ry="20.5" fill="#F16855"/>
<path d="M25.2163 38.7403C24.8169 38.8402 24.4152 38.9291 24.0195 39.0399C22.7995 39.3808 21.5674 39.6876 20.3694 40.093C19.7351 40.3073 19.203 40.8259 19.2603 41.5309C19.3187 42.2528 20.0419 42.4781 20.6287 42.6534C22.3357 43.1647 24.0231 42.9906 25.6972 42.4233C26.771 42.0593 27.8412 41.7098 28.6959 40.9221C28.775 40.8491 28.8274 40.748 28.943 40.5897C28.4828 40.5082 28.0859 40.4741 27.7122 40.3645C26.7491 40.082 26.5141 39.3588 27.2726 38.7148C27.9812 38.1133 28.8189 37.6385 29.6577 37.2246C30.1691 36.9725 30.5221 36.7741 30.3773 36.1337C30.32 35.8829 30.2945 35.5822 30.3833 35.3545C30.4649 35.1475 30.7218 35.0087 30.9008 34.8395C31.0043 35.0099 31.1759 35.1719 31.2003 35.3533C31.305 36.1154 31.3574 36.8837 31.4438 37.6483C31.5582 38.6515 31.6873 39.6523 31.8176 40.7139C32.6552 40.6677 33.3699 40.5203 33.9336 39.9079C34.104 39.7229 34.3463 39.6048 34.5557 39.455C34.5691 39.7509 34.5837 40.0455 34.5947 40.3414C34.5971 40.3998 34.5813 40.4582 34.5703 40.5337C34.9672 40.8892 35.1973 40.6165 35.4591 40.3328C36.1689 39.5646 36.8653 38.7781 37.6311 38.0683C38.0183 37.7091 38.5236 37.4181 39.1226 37.6616C40.1587 38.0817 40.2938 39.3649 39.3222 40.1052C38.8182 40.4887 38.2216 40.7931 37.6202 40.9952C36.8227 41.263 35.9863 41.4517 35.1523 41.5613C34.7737 41.6112 34.3609 41.375 33.9579 41.2959C33.7729 41.2594 33.5683 41.263 33.3821 41.2983C32.8293 41.4055 32.2827 41.5443 31.7323 41.6575C31.3257 41.7415 31.0737 41.5905 31.0189 41.1534C30.9203 40.3706 30.8131 39.5889 30.706 38.8061C30.6658 38.5127 30.6159 38.2205 30.5587 37.8491C29.4921 38.2022 28.579 38.6405 27.7231 39.4769C28.299 39.5841 28.747 39.6656 29.1951 39.7497C29.8683 39.8763 30.0729 40.2744 29.7965 40.8929C29.3923 41.7951 28.5693 42.2321 27.7511 42.6047C25.9334 43.4326 24.045 43.9817 22.0021 43.8112C20.9526 43.7236 19.9408 43.5154 19.0996 42.8799C17.8565 41.9412 18.0744 40.2501 19.5805 39.4721C21.0938 38.6904 22.7009 38.1426 24.4566 38.3252C24.7061 38.3507 24.9496 38.4396 25.1968 38.4993C25.2029 38.5796 25.2102 38.66 25.2163 38.7403ZM36.5001 40.1794C36.5074 40.1892 36.5159 40.2001 36.5232 40.2099C36.6401 40.3645 36.8495 40.4156 37.0248 40.3316C37.5934 40.0577 38.1668 39.7935 38.7062 39.4709C38.7318 39.455 38.7549 39.4355 38.7744 39.4112C39.0057 39.1348 38.7817 38.7197 38.4213 38.7099C38.3105 38.7063 38.2119 38.7209 38.14 38.772C37.5532 39.1835 37.0406 39.7022 36.5001 40.1794Z" fill="white"/>
<path d="M16.0037 42.5171C15.7395 41.9814 15.4632 41.4518 15.2124 40.91C14.7643 39.9408 14.2944 38.9802 13.9011 37.988C12.932 35.5335 13.9352 35.0867 15.3974 34.3343C15.8308 34.1114 15.882 33.9215 15.8455 33.4613C15.7383 32.1208 16.3775 31.1018 17.4404 30.3262C17.6035 30.2069 17.7496 30.0474 17.931 29.9732C18.7492 29.6396 18.7942 29.0479 18.5751 28.3052C18.4387 27.8425 18.3766 27.3531 18.3231 26.871C18.2744 26.4351 18.4692 26.1441 19.0158 26.0589C19.2691 27.3032 19.5674 28.517 19.7549 29.7491C19.9691 31.1517 20.0093 31.2333 21.3632 30.8011C22.6659 30.3847 23.9516 29.9147 25.2385 29.4533C25.5891 29.3279 25.9044 29.4387 25.8265 29.7723C25.6159 30.6696 25.1532 31.4561 24.5092 32.1135C24.4495 32.094 24.3899 32.0746 24.3302 32.0563C24.4021 31.6643 24.4751 31.271 24.5628 30.7901C23.7397 31.0336 22.9837 31.2735 22.2179 31.478C21.5738 31.6497 20.9249 31.8116 20.2686 31.9236C19.3616 32.0782 19.2131 31.9479 19.0755 31.0348C19.0487 30.8571 19.0304 30.6769 18.9976 30.4115C18.1027 30.9082 17.3308 31.4403 16.8682 32.413C17.3844 32.497 17.8373 32.6687 17.8495 33.2653C17.8653 33.9532 17.3807 34.3123 16.8657 34.6094C16.3775 34.8906 15.8552 35.1135 15.3499 35.3643C14.4612 35.8062 14.2225 36.225 14.5099 37.1625C14.8179 38.1633 15.2464 39.1251 15.591 40.1149C15.8211 40.7785 16.0013 41.4591 16.1924 42.136C16.2204 42.237 16.1851 42.3551 16.1778 42.4659C16.1194 42.483 16.0622 42.5 16.0037 42.5171Z" fill="white"/>
<path d="M29.6495 32.8415C28.9859 33.1386 28.3747 33.443 27.7404 33.6841C27.307 33.8484 26.8699 33.8521 26.5448 33.3943C26.4742 33.2957 26.2441 33.2506 26.1017 33.2738C25.6865 33.3419 25.2847 33.488 24.8683 33.5453C24.3192 33.6195 24.0002 33.9458 23.7957 34.4133C23.5376 35.0038 23.3075 35.6077 23.0543 36.2006C22.9629 36.4149 22.8375 36.6146 22.728 36.8215C22.6573 36.8057 22.5879 36.7911 22.5173 36.7753C22.5916 36.2238 22.6038 35.6527 22.7572 35.1244C22.9252 34.5473 23.2028 33.9994 23.4706 33.4576C23.7239 32.9462 24.2011 32.7709 24.7393 32.6443C25.3395 32.5031 25.947 32.3144 26.4876 32.0282C26.9685 31.7738 27.1475 31.8748 27.24 32.3545C27.2668 32.4909 27.2972 32.6273 27.324 32.7575C28.0034 32.8038 29.1673 32.1804 29.406 31.6265C29.4729 31.4719 29.4607 31.2685 29.4376 31.0932C29.283 29.8891 29.0967 28.6874 28.9664 27.4809C28.9323 27.1643 29.0273 26.8173 29.1332 26.5081C29.1746 26.3864 29.4096 26.3316 29.5569 26.2463C29.6215 26.3827 29.7249 26.5154 29.7444 26.6579C29.9003 27.8011 30.033 28.948 30.1876 30.0924C30.2935 30.8716 30.4226 31.6484 30.5589 32.5433C31.0837 32.4069 31.5536 32.2839 32.1307 32.133C31.4331 31.3197 31.2419 30.5356 31.7947 29.6773C32.3085 28.881 33.6234 28.7933 34.1773 29.5592C34.2991 29.7272 34.248 30.0194 34.276 30.2556C34.041 30.2288 33.8023 30.2215 33.5722 30.1716C33.3202 30.1168 32.9842 29.8854 32.8478 29.9768C32.6141 30.1326 32.3888 30.4759 32.384 30.745C32.3803 30.969 32.6883 31.3805 32.8746 31.3903C33.4127 31.4183 33.9655 31.3136 34.5 31.2028C34.7447 31.1516 34.9505 30.9179 35.1952 30.8582C35.3534 30.8205 35.6213 30.8984 35.709 31.0189C35.7808 31.1176 35.7211 31.4256 35.6128 31.5218C35.362 31.7458 35.0685 31.9564 34.7544 32.0709C33.5028 32.5238 32.2403 32.9511 30.9741 33.3626C30.0549 33.6621 30.05 33.6451 29.6495 32.8415Z" fill="white"/>
<path d="M37.7579 35.2108C37.2599 35.2741 36.7461 35.4433 36.2677 35.3752C35.5907 35.279 35.1159 35.4689 34.7726 36.0144C34.4195 36.5744 34.1042 37.1588 33.7669 37.7298C33.6768 37.882 33.5697 38.0244 33.4711 38.1705C33.4199 38.1523 33.3688 38.1328 33.3176 38.1145C33.3176 37.927 33.2616 37.7176 33.3274 37.5557C33.6585 36.7363 33.9654 35.8975 34.3903 35.1256C34.7835 34.4109 35.3618 34.2599 36.1483 34.4815C37.1357 34.7603 37.7019 34.2368 37.5058 33.2299C37.4133 32.7539 37.3171 32.2778 37.2453 31.7981C37.2197 31.6265 37.2088 31.4159 37.2855 31.2734C37.3683 31.12 37.5631 31.0263 37.708 30.9069C37.8151 31.0506 37.9831 31.1821 38.0209 31.3416C38.268 32.4252 38.4872 33.5148 38.7185 34.6021C38.7343 34.6775 38.7733 34.7482 38.8171 34.8614C39.1239 34.7713 39.4709 34.7603 39.6803 34.585C39.8885 34.4109 40.0979 34.0554 40.0663 33.8107C39.9713 33.0729 39.7485 32.3533 39.6 31.6216C39.5537 31.3952 39.5342 31.1395 39.5963 30.924C39.6353 30.7876 39.8398 30.633 39.9835 30.6172C40.0772 30.6062 40.2623 30.8156 40.2951 30.9532C40.5301 31.9552 40.7651 32.9596 40.9429 33.9726C41.0731 34.7116 40.7249 35.2376 40.0127 35.4689C39.5366 35.6235 39.0423 35.7282 38.5505 35.822C37.9441 35.9377 38.0635 35.3021 37.8102 35.0489C37.7895 35.1037 37.7737 35.1572 37.7579 35.2108Z" fill="white"/>
<path d="M20.4734 35.4105C20.3638 35.4105 20.3029 35.4044 20.2433 35.4117C19.8342 35.4592 19.4117 35.525 19.223 35.0221C19.0781 34.635 19.3849 34.0335 19.8257 33.8156C20.2786 33.5928 20.6329 33.7401 20.936 34.1139C21.6532 34.9941 21.5923 36.1812 20.6974 36.846C19.4215 37.7932 17.9495 38.2315 16.3619 38.2583C16.1622 38.2619 15.9613 38.1511 15.7604 38.0927C15.7544 38.0354 15.7483 37.977 15.7422 37.9198C16.0478 37.8053 16.3534 37.6921 16.659 37.5777C17.7109 37.1869 18.7774 36.8301 19.8074 36.387C20.1495 36.2409 20.6098 36.0205 20.4734 35.4105Z" fill="white"/>
<path d="M43.5315 36.4758C43.3927 36.0558 43.2588 35.7514 43.1918 35.4337C43.0141 34.5863 42.8874 33.7279 42.6951 32.883C42.5855 32.4009 42.7024 32.0648 43.1163 31.8165C43.8298 32.5238 44.1999 35.6674 43.5315 36.4758Z" fill="white"/>
<path d="M21.5615 25.925C22.0047 27.3945 22.2579 25.7923 22.6195 25.7862C22.7888 26.7444 22.4077 27.134 21.5262 27.0353C21.3679 27.0171 21.1975 27.2107 21.0197 27.2533C20.7397 27.3215 20.4195 27.431 20.1736 27.3507C20.0421 27.3081 19.9776 26.9002 19.9824 26.6591C19.9861 26.4948 20.1602 26.3341 20.2588 26.1721C20.3757 26.3073 20.4926 26.4424 20.7081 26.6932C20.9577 26.4704 21.2486 26.2074 21.5615 25.925Z" fill="white"/>
<path d="M36.7732 28.2333C37.2395 29.0819 37.1506 28.9881 37.998 28.0762C38.5313 29.3765 38.6957 28.1554 38.9976 27.8912C39.3592 28.6594 38.9477 29.2645 38.1648 29.2353C37.9554 29.228 37.7448 29.3583 37.5305 29.3887C37.2042 29.435 36.6965 29.5908 36.5784 29.4459C36.2972 29.1014 36.3447 28.6363 36.7732 28.2333Z" fill="white"/>
<path d="M41.3301 30.2593C41.6418 29.8989 41.8621 29.4545 42.5025 29.5056C42.7144 29.5227 42.9567 29.2463 43.1734 29.088C43.4924 28.853 43.8929 28.5742 44.1681 28.9724C44.4359 29.3607 44.1462 29.7832 43.7468 29.9537C43.4217 30.0925 43.0309 30.0815 42.6693 30.1338C42.4246 30.1692 42.1762 30.185 41.9352 30.2373C41.7538 30.2763 41.5821 30.3603 41.4056 30.4248C41.3812 30.3688 41.3556 30.314 41.3301 30.2593Z" fill="white"/>
<path d="M28.1689 28.2053C28.1726 28.8238 27.7063 29.239 27.0598 29.2402C26.658 29.2414 26.4668 29.0613 26.4754 28.657C26.4863 28.097 26.9453 27.6002 27.4956 27.5942C27.9132 27.5893 28.2018 27.75 28.1689 28.2053ZM27.5078 28.5097C27.6442 28.4196 27.6417 28.2175 27.5017 28.1335C27.4189 28.0836 27.3581 28.0556 27.3203 28.0726C27.1669 28.1445 27.0598 28.3137 26.9344 28.4428C27.0257 28.5231 27.1426 28.6875 27.2047 28.668C27.3033 28.6388 27.3934 28.584 27.5078 28.5097Z" fill="white"/>
<path d="M37.5889 27.7207C37.5305 27.5966 37.4879 27.5272 37.466 27.4529C37.2748 26.8283 37.0703 26.2074 36.9071 25.5755C36.856 25.3758 36.9193 25.1457 36.9315 24.9302C37.1397 25.0057 37.4014 25.024 37.5451 25.1652C38.1368 25.7447 38.1648 26.9793 37.5889 27.7207Z" fill="white"/>
<path d="M24.9973 36.5001C25.2859 36.3954 25.5342 36.3029 25.785 36.214C26.1625 36.0801 26.5362 35.9255 26.9234 35.8256C27.0695 35.7879 27.3361 35.8281 27.3921 35.923C27.4774 36.0691 27.5005 36.3333 27.4226 36.4782C27.162 36.9555 25.4636 37.0103 24.9973 36.5001Z" fill="white"/>
<path d="M42.1934 35.6309C42.1507 36.3041 41.4105 36.6767 41.5895 37.423C41.7989 37.3609 41.9572 37.3134 42.2932 37.2136C42.186 37.5411 42.1727 37.8199 42.0266 37.9575C41.8817 38.0939 41.57 38.1827 41.3935 38.1194C41.2133 38.0537 41.0294 37.7944 40.988 37.591C40.876 37.0322 41.5895 35.8987 42.1934 35.6309Z" fill="white"/>
<path d="M24.5348 42.2066C24.4167 41.7269 24.351 41.3117 24.2098 40.9234C24.0746 40.5532 23.8603 40.2136 23.668 39.8337C24.3875 39.5585 24.5787 40.0236 24.7917 40.3548C25.073 40.7931 24.9281 41.8024 24.5348 42.2066Z" fill="white"/>
<path d="M27.6357 24.929C28.4661 24.5163 29.2952 24.1035 30.1267 23.6908C30.3447 24.3361 28.8021 25.2541 27.7124 25.097C27.6857 25.041 27.6601 24.985 27.6357 24.929Z" fill="white"/>
<path d="M25.5685 26.1953C25.4943 27.0073 24.0101 27.806 22.9448 27.5162C23.8019 27.084 24.6603 26.6518 25.5685 26.1953Z" fill="white"/>
<path d="M14.2808 30.1326C15.1172 29.7199 15.9536 29.3072 16.9008 28.8397C16.8412 29.0418 16.8448 29.3096 16.717 29.4119C16.0254 29.9646 15.2791 30.4115 14.2808 30.1326Z" fill="white"/>
<path d="M22.2398 23.8406C22.3238 24.5893 20.7788 25.4538 19.5503 25.2164C20.5231 24.7184 21.3571 24.2923 22.2398 23.8406Z" fill="white"/>
<path d="M31.325 26.9817C31.4978 26.8648 31.6598 26.7284 31.8436 26.6347C32.4085 26.3474 32.9808 26.0722 33.5554 25.8044C33.6577 25.7569 33.788 25.7678 33.9061 25.752C33.8878 25.8762 33.9146 26.043 33.844 26.1173C33.1792 26.8088 32.361 27.1436 31.4211 27.1582C31.3883 27.0986 31.3566 27.0401 31.325 26.9817Z" fill="white"/>
</g>
<defs>
<linearGradient id="paint0_linear" x1="113.1" y1="116" x2="-16.739" y2="59.9638" gradientUnits="userSpaceOnUse">
<stop stop-color="#148469"/>
<stop offset="1" stop-color="#91ECD6"/>
</linearGradient>
<linearGradient id="paint1_linear" x1="-20.9724" y1="29.826" x2="-21.4613" y2="60.291" gradientUnits="userSpaceOnUse">
<stop stop-color="white"/>
<stop offset="1" stop-color="white" stop-opacity="0"/>
</linearGradient>
<linearGradient id="paint2_linear" x1="62.2155" y1="91.7078" x2="-38.9429" y2="96.2667" gradientUnits="userSpaceOnUse">
<stop stop-color="white"/>
<stop offset="1" stop-color="white" stop-opacity="0"/>
</linearGradient>
</defs>
</svg>
