<svg width="116" height="116" viewBox="0 0 116 116" fill="none" xmlns="http://www.w3.org/2000/svg">
<rect opacity="0.5" width="116" height="116" fill="url(#paint0_linear)"/>
<mask id="mask0" mask-type="alpha" maskUnits="userSpaceOnUse" x="0" y="0" width="116" height="116">
<rect width="116" height="116" fill="#8DE4BA"/>
</mask>
<g mask="url(#mask0)">
<path opacity="0.5" d="M23 3.51242e-06C10.7317 47.688 -40.0041 60.1282 -63.8385 60.3873L-57.9775 14.4406L23 3.51242e-06Z" fill="url(#paint1_linear)"/>
<path opacity="0.5" d="M30.7585 72.9272C70.5058 51.9347 102.621 58.0389 115.267 63.5509L110.621 91.8235L-64 116L-60.8309 96.7113C-25.1259 95.1805 -18.4163 98.8988 30.7585 72.9272Z" fill="url(#paint2_linear)"/>
<path d="M93.6236 32.3391L18.4998 75.0341L49.6244 143.706L122 102.466L93.6236 32.3391Z" fill="#F16855"/>
<path d="M91.5039 63.7286L84.6091 67.8237C85.0195 66.8175 85.5694 65.1324 85.431 63.3305C85.3866 62.7608 85.2662 61.3937 84.4279 60.3794C82.4205 57.952 77.552 59.0564 76.7975 59.2371C66.7185 61.9712 64.2109 62.9161 59.9078 60.7528C58.6248 66.2338 56.4657 68.0607 48.468 76.0628C47.8847 76.6768 44.16 80.6762 44.4691 84.1122C44.5986 85.5475 45.3979 86.5124 45.7359 86.9067C46.8021 88.1575 48.2226 88.6723 49.121 88.9012L42.2262 92.9963C40.0089 94.3132 38.7122 96.6483 39.3299 98.2118L56.7404 142.28L114.048 108.243L96.6372 64.1752C96.0195 62.6117 93.7212 62.4118 91.5039 63.7286Z" fill="#C3475A"/>
<path d="M90.1085 79.3759L54.4932 100.503L69.4067 138.218L105.022 117.091L90.1085 79.3759Z" fill="#00699C"/>
<path d="M39.822 60.0748C39.0072 61.0447 36.756 63.5517 33.1564 65.5444C30.4436 67.0464 28.2202 67.563 27.0947 67.7589C27.9426 68.0347 29.4694 68.7026 30.3275 70.35C31.4668 72.5356 30.7315 75.1033 30.3931 76.0925C30.7987 75.669 33.0195 73.2981 33.1836 70.7941C33.2927 69.1375 32.446 68.2814 32.0623 67.961C32.8267 67.6667 34.5298 66.9283 36.2625 65.4251C39.0372 63.0163 39.7057 60.5365 39.822 60.0748Z" fill="#EDBF58"/>
<path d="M41.1202 69.2565L40.3776 69.7048C37.9249 71.1856 35.4221 71.0842 34.7853 69.4789L34.5925 68.9919L35.3351 68.5435C37.7878 67.0627 40.2906 67.1642 40.9274 68.7695L41.1202 69.2565Z" fill="#EDBF58"/>
<path d="M86.9014 48.7029C86.0615 48.4251 83.9681 47.5652 83.2727 45.1116C82.7485 43.2626 83.2585 41.365 83.603 40.3693C82.7865 41.3459 81.091 43.1962 78.4648 44.9167C74.9801 47.2001 71.9959 47.8549 70.8757 48.0533C71.2158 48.2233 73.1463 49.1264 76.3525 47.947C78.4732 47.1674 80.0525 45.8814 80.6793 45.3348C80.6574 45.9248 80.7175 47.195 81.7678 48.085C83.4518 49.5094 86.3566 48.837 86.9014 48.7029Z" fill="#EDBF58"/>
<path d="M75.9241 54.388L75.7316 53.9018C75.096 52.2958 76.5686 49.7943 79.0209 48.3127L79.7647 47.8637L79.9572 48.3499C80.5928 49.9559 79.1202 52.4574 76.6678 53.939L75.9241 54.388Z" fill="#EDBF58"/>
<path d="M24.0819 59.509L20.7903 61.5216L17.9225 54.2804C17.7023 53.7245 18.2015 52.8605 19.0385 52.3487L19.3015 52.1879C20.1385 51.6761 20.994 51.7118 21.2142 52.2678L24.0819 59.509V59.509Z" fill="#EDBF58"/>
<path d="M32.4843 55.7271L29.1927 57.7397L26.3249 50.4986C26.1047 49.9427 26.6038 49.0786 27.4409 48.5668L27.7038 48.4061C28.5408 47.8943 29.3963 47.93 29.6165 48.486L32.4843 55.7271Z" fill="#EDBF58"/>
<path d="M40.8864 51.9456L37.5962 53.9574L34.7284 46.7163C34.5082 46.1603 35.0074 45.2963 35.8444 44.7845L36.1074 44.6237C36.9444 44.1119 37.7999 44.1477 38.0201 44.7036L40.8878 51.9448L40.8864 51.9456Z" fill="#EDBF58"/>
<path d="M49.2902 48.1629L45.9986 50.1755L43.1308 42.9344C42.9106 42.3785 43.4098 41.5144 44.2468 41.0027L44.5097 40.8419C45.3468 40.3301 46.2023 40.3658 46.4224 40.9218L49.2902 48.1629Z" fill="#EDBF58"/>
<path d="M57.6925 44.3811L54.4009 46.3937L51.5331 39.1526C51.3129 38.5966 51.8121 37.7326 52.6491 37.2208L52.9121 37.06C53.7491 36.5482 54.6046 36.584 54.8247 37.1399L57.6925 44.3811Z" fill="#EDBF58"/>
<path d="M66.0946 40.5993L62.803 42.6119L59.9352 35.3708C59.715 34.8148 60.2142 33.9508 61.0512 33.439L61.3142 33.2782C62.1512 32.7664 63.0067 32.8022 63.2269 33.3581L66.0946 40.5993Z" fill="#EDBF58"/>
<path d="M74.4969 36.8175L71.2053 38.8301L68.3376 31.5889C68.1174 31.033 68.6165 30.169 69.4535 29.6572L69.7165 29.4964C70.5535 28.9846 71.409 29.0203 71.6292 29.5763L74.4969 36.8175Z" fill="#EDBF58"/>
<path d="M82.9001 33.0351L79.6084 35.0477L76.7406 27.8066C76.5205 27.2506 77.0196 26.3866 77.8566 25.8748L78.1196 25.714C78.9566 25.2023 79.8121 25.238 80.0323 25.7939L82.9001 33.0351Z" fill="#EDBF58"/>
<path d="M19.2971 62.6462L85.3021 32.9377" stroke="#202223" stroke-miterlimit="10" stroke-linecap="round" stroke-linejoin="round"/>
<path d="M24.083 59.8351L21.1552 53.3302" stroke="#202223" stroke-miterlimit="10" stroke-linecap="round" stroke-linejoin="round"/>
<path d="M32.0334 56.2566L29.1057 49.7518" stroke="#202223" stroke-miterlimit="10" stroke-linecap="round" stroke-linejoin="round"/>
<path d="M40.7063 52.3529L37.7786 45.8481" stroke="#202223" stroke-miterlimit="10" stroke-linecap="round" stroke-linejoin="round"/>
<path d="M49.3792 48.4492L46.4514 41.9444" stroke="#202223" stroke-miterlimit="10" stroke-linecap="round" stroke-linejoin="round"/>
<path d="M57.3301 44.8708L54.4023 38.366" stroke="#202223" stroke-miterlimit="10" stroke-linecap="round" stroke-linejoin="round"/>
<path d="M66.0029 40.9671L63.0751 34.4623" stroke="#202223" stroke-miterlimit="10" stroke-linecap="round" stroke-linejoin="round"/>
<path d="M73.9534 37.3887L71.0256 30.8839" stroke="#202223" stroke-miterlimit="10" stroke-linecap="round" stroke-linejoin="round"/>
<path d="M82.6265 33.485L79.6987 26.9802" stroke="#202223" stroke-miterlimit="10" stroke-linecap="round" stroke-linejoin="round"/>
<path d="M69.4522 138.199L54.5342 100.471L90.0637 79.3942L104.982 117.122" stroke="#202223" stroke-miterlimit="10" stroke-linecap="round" stroke-linejoin="round"/>
<path d="M33.0745 93.33L56.9154 146.299" stroke="#202223" stroke-miterlimit="10" stroke-linecap="round" stroke-linejoin="round"/>
</g>
<defs>
<linearGradient id="paint0_linear" x1="3.54445" y1="8.49999" x2="132.863" y2="62.4691" gradientUnits="userSpaceOnUse">
<stop stop-color="#8DE4BA"/>
<stop offset="1" stop-color="#028237" stop-opacity="0.3"/>
</linearGradient>
<linearGradient id="paint1_linear" x1="-19.4682" y1="19.1728" x2="-37.4938" y2="65.6277" gradientUnits="userSpaceOnUse">
<stop stop-color="white"/>
<stop offset="1" stop-color="white" stop-opacity="0"/>
</linearGradient>
<linearGradient id="paint2_linear" x1="-27.0918" y1="97.9422" x2="-62.7242" y2="92.7386" gradientUnits="userSpaceOnUse">
<stop stop-color="white"/>
<stop offset="1" stop-color="white" stop-opacity="0"/>
</linearGradient>
</defs>
</svg>
