<svg width="24" height="24" viewBox="0 0 24 24" fill="none" xmlns="http://www.w3.org/2000/svg">
<path d="M12 17.7143C13.581 17.7143 14.9288 17.1619 16.0434 16.0571C17.1573 14.9524 17.7143 13.6 17.7143 12C17.7143 11.8476 17.7097 11.6952 17.7006 11.5429C17.6907 11.3905 17.6667 11.2381 17.6286 11.0857C17.419 11.981 16.9524 12.7189 16.2286 13.2994C15.5048 13.8808 14.6571 14.1714 13.6857 14.1714C12.5429 14.1714 11.581 13.781 10.8 13C10.019 12.219 9.62857 11.2571 9.62857 10.1143C9.62857 9.2381 9.87619 8.45219 10.3714 7.75657C10.8667 7.06171 11.5143 6.57143 12.3143 6.28571H12C10.4 6.28571 9.04762 6.84267 7.94286 7.95657C6.8381 9.07124 6.28571 10.419 6.28571 12C6.28571 13.6 6.8381 14.9524 7.94286 16.0571C9.04762 17.1619 10.4 17.7143 12 17.7143ZM13.1714 11.4286L14.8571 10.2L16.5143 11.4286L15.8571 9.48571L17.5429 8.25714L15.4857 8.28571L14.8571 6.28571L14.2286 8.28571L12.1429 8.25714L13.8286 9.48571L13.1714 11.4286ZM8.17143 21.1429H5.14286C4.51429 21.1429 3.97638 20.9192 3.52914 20.472C3.08114 20.024 2.85714 19.4857 2.85714 18.8571V15.8286L0.685714 13.6286C0.228571 13.1905 0 12.6476 0 12C0 11.3524 0.228571 10.8095 0.685714 10.3714L2.85714 8.17143V5.14286C2.85714 4.51429 3.08114 3.97638 3.52914 3.52914C3.97638 3.08114 4.51429 2.85714 5.14286 2.85714H8.17143L10.3714 0.685714C10.8095 0.228571 11.3524 0 12 0C12.6476 0 13.1905 0.228571 13.6286 0.685714L15.8286 2.85714H18.8571C19.4857 2.85714 20.024 3.08114 20.472 3.52914C20.9192 3.97638 21.1429 4.51429 21.1429 5.14286V8.17143L23.3143 10.3714C23.7714 10.8095 24 11.3524 24 12C24 12.6476 23.7714 13.1905 23.3143 13.6286L21.1429 15.8286V18.8571C21.1429 19.4857 20.9192 20.024 20.472 20.472C20.024 20.9192 19.4857 21.1429 18.8571 21.1429H15.8286L13.6286 23.3143C13.1905 23.7714 12.6476 24 12 24C11.3524 24 10.8095 23.7714 10.3714 23.3143L8.17143 21.1429Z" fill="#072D4C"/>
</svg>
