<svg width="16" height="20" viewBox="0 0 16 20" fill="none" xmlns="http://www.w3.org/2000/svg">
<path fill-rule="evenodd" clip-rule="evenodd" d="M0.0765502 4.78855C-0.146015 5.65099 0.169286 7.60539 0.354757 8.47478C0.749831 9.26493 0.845685 9.89549 0.974696 10.7442L0.974697 10.7442C1.01603 11.0161 1.06076 11.3103 1.11982 11.6394C1.31457 12.7244 1.03868 14.4099 0.876392 15.117C0.887984 15.4184 1.092 16.2089 1.81534 16.9601C2.51086 18.1425 6.54485 19.6378 8.21409 19.2553C8.36061 19.2217 8.50176 19.1898 8.63831 19.1588L8.63833 19.1588C10.0575 18.8374 10.9792 18.6287 12.2481 17.899C13.3609 17.2592 14.0564 15.7777 14.2651 15.117L14.0217 13.8303V12.1958C14.0333 11.4423 14.1538 9.76845 14.5433 9.10075C15.0302 8.26613 15.1345 7.0142 15.204 6.11003C15.2597 5.38669 15.0418 4.30168 14.9258 3.8496C14.8447 3.31637 14.4668 2.08298 13.6044 1.41529C12.7419 0.747592 11.4135 0.372013 10.8571 0.267685L8.21409 0.024255C7.27515 -0.0337048 5.02167 -0.0244312 3.51936 0.476341C2.05751 0.963624 1.64934 1.36661 1.35978 1.6525C1.27737 1.73386 1.20457 1.80574 1.11982 1.86737C0.737289 2.14558 0.0765502 3.74527 0.0765502 4.78855ZM2.78209 6.11002C2.78209 5.1305 3.57614 4.33645 4.55565 4.33645H10.6067C11.5862 4.33645 12.3802 5.1305 12.3802 6.11002C12.3802 7.08953 11.5862 7.88358 10.6067 7.88358H4.55565C3.57614 7.88358 2.78209 7.08953 2.78209 6.11002ZM7.61592 16.2298C9.01797 16.2298 10.1546 15.0932 10.1546 13.6912C10.1546 12.2891 9.01797 11.1525 7.61592 11.1525C6.21387 11.1525 5.07729 12.2891 5.07729 13.6912C5.07729 15.0932 6.21387 16.2298 7.61592 16.2298Z" fill="#072D4C"/>
</svg>
