<svg width="24" height="24" viewBox="0 0 24 24" fill="none" xmlns="http://www.w3.org/2000/svg">
<path d="M6.95 8.46C6.6 8.46 6.35433 8.3748 6.213 8.2044C6.071 8.0348 6 7.74 6 7.32C6 6.52 6.15833 5.78 6.475 5.1C6.79167 4.42 7.21667 3.86 7.75 3.42L12 0L16.25 3.42C16.7833 3.86 17.2083 4.42 17.525 5.1C17.8417 5.78 18 6.52 18 7.32C18 7.74 17.9293 8.0348 17.788 8.2044C17.646 8.3748 17.4 8.46 17.05 8.46H6.95ZM1 24V9.27C0.7 9.05 0.458333 8.7648 0.275 8.4144C0.0916667 8.0648 0 7.66 0 7.2C0 6.74 0.2 6.18 0.6 5.52C1 4.86 1.46667 4.22 2 3.6C2.53333 4.22 3 4.86 3.4 5.52C3.8 6.18 4 6.74 4 7.2C4 7.66 3.90833 8.0648 3.725 8.4144C3.54167 8.7648 3.3 9.05 3 9.27V14.4H5V12C5 11.5 5.13333 11.02 5.4 10.56C5.66667 10.1 6.05 9.8 6.55 9.66H17.45C17.95 9.8 18.3333 10.1 18.6 10.56C18.8667 11.02 19 11.5 19 12V14.4H21V9.27C20.7 9.05 20.4583 8.7648 20.275 8.4144C20.0917 8.0648 20 7.66 20 7.2C20 6.74 20.2 6.18 20.6 5.52C21 4.86 21.4667 4.22 22 3.6C22.5333 4.22 23 4.86 23.4 5.52C23.8 6.18 24 6.74 24 7.2C24 7.66 23.9083 8.0648 23.725 8.4144C23.5417 8.7648 23.3 9.05 23 9.27V24H14V19.2C14 18.54 13.8043 17.9752 13.413 17.5056C13.021 17.0352 12.55 16.8 12 16.8C11.45 16.8 10.9793 17.0352 10.588 17.5056C10.196 17.9752 10 18.54 10 19.2V24H1Z" fill="#072D4C"/>
</svg>
